<svg xmlns="http://www.w3.org/2000/svg" id="_レイヤー_1" data-name="レイヤー 1" viewBox="0 0 557.79 242.7"><defs><style>.cls-1{fill:#881e28;stroke-width:0}</style></defs><path d="M113.97 39.88c-3.3 0-11.97 1.68-14.96 3.9-.05.03-.12.06-.18.1-.29.16-.73.4-1.14.56-.71.28-1.54.7-1.81.84-.11.05-.31.17-.57.31-.39.21-.92.5-1.39.74a68.777 68.777 0 0 0-9.53 5.77c-.48.36-1.18.83-1.63 1.13-.1.07-.23.15-.39.25-.48.3-1.14.71-1.68 1.14-.04.04-.08.07-.12.11-.46.46-1.05.77-1.05.77-.08.04-.16.09-.23.14 0 0-1.03.77-2.16 1.52l-.09.06c-1.14.89-2.9 2.14-3.88 2.85-1 .72-3.04 2.36-4.54 3.61-1.9 1.58-2.51 2.03-2.68 2.15-.13.06-.25.13-.35.23 0 0-1.84 1.58-3.94 3.42-1.22 1.07-2.63 2.28-3.79 3.28-.83.71-1.54 1.32-1.96 1.69-.19.17-1.89 1.62-2.31 2.04-.06.06-.14.16-.18.22-.05.07-.3.36-1.4 1.24-.04.03-.08.07-.12.11-1.02 1.02-2.99 2.86-4.4 4.14-.11.1-.2.22-.28.34-.03.04-.07.08-.12.12-.15.15-.35.35-.53.6l-.5.5c-.19.17-19.1 19.79-20.92 23.79-.1.12-.26.27-.37.38-.03.03-.06.07-.09.1-.7.84-3.13 4.29-4.14 5.73l-.06.09-.17.28c-.34.58-.77 1.3-1.21 1.84-4.07 5.64-8.85 16.24-10.95 22.82 0 .01 0 .03-.01.04l-.15.53c-.21.73-.44 1.49-.66 2.61-1.88 9.87-.07 18.47 5.24 24.89 5.98 7.23 15.95 11.21 28.07 11.21 4.9 0 10.04-.21 14.46-1.72.16-.02.31-.05.44-.08.07-.01.14-.03.17-.04h.26c.52 0 1.43-.21 1.74-.29.43-.09.87-.22 1.19-.32.1-.03.18-.06.23-.07 1.39-.22 6.2-1.68 7.41-2.14.45-.15.94-.3 1.35-.42.31-.09.57-.17.73-.23 4.11-1.33 8.25-3.14 12.26-4.89l2.45-1.07c.85-.4 3.06-1.43 3.53-1.61.1-.03.21-.06.3-.11.12-.06.3-.16.49-.3.33-.14.78-.38 1.43-.72.35-.18.73-.38 1.05-.54 1.96-.92 4.99-2.49 5.95-3.04.27-.13.99-.49 1.57-.72.07-.03.15-.06.21-.11.3-.18.65-.35.98-.52.39-.2.73-.37 1-.54.32-.18.7-.39 1.12-.63.78-.44 1.71-.96 2.69-1.53.54-.23 1.16-.56 1.57-.78l.27-.14c.06-.03.11-.06.16-.09.19-.12.47-.28.79-.45.3-.16.61-.34.91-.51 1.14-.53 3.07-1.75 3.89-2.89.26-.31.5-.76.57-1.23.09-.51.03-1.27-.67-2.17-.84-1.08-2.9-2.57-4.35-2.57-.29 0-.53.08-.76.15h-.01c-.83.14-2.1.7-5.84 3.88-2.01 1.72-3.41 2.7-3.86 3l-.26.15c-.62.37-1.32.79-1.8 1.2-.51.28-1.13.68-1.74 1.09-.2.15-.39.27-.57.39-.33.21-.64.41-.89.66-.06.05-.22.16-.67.38-.12.06-.32.17-.55.3-.27.15-.6.34-.89.49-.04.02-.07.04-.1.06-.22.14-.46.29-.71.44-.43.27-.87.55-1.16.69-.6.3-1.32.74-1.75 1.02-2.01 1.38-8.06 4.21-10.5 5.18-.66.22-1.33.46-1.82.76-4.32 2.02-9.09 3.73-13.18 4.72-.47.13-1.57.46-2.12.71-3.17 1.12-6.93 1.65-10.25 2.11l-2.91.4h-3.18c-2.05 0-5.44 0-6.19-.09l-.27-.09c-.28-.09-.56-.08-.98-.13-.32-.04-.65-.07-.96-.08-7.28-.97-13.02-4.08-16.6-9-3.8-5.22-5.01-12.23-3.52-20.27 1.4-7.35 4.81-15.23 10.12-23.42.53-.79 1.19-1.85 1.51-2.46.18-.3.4-.6.57-.85.16-.22.28-.4.38-.57.25-.3.63-.82 1.41-1.9l.81-1.12c.96-1.32 2.03-2.75 2.5-3.38l.15-.21c.13-.2.56-.72.9-1.13.21-.25.42-.51.59-.73.04-.05.08-.11.12-.17.35-.58 1.06-1.53 1.34-1.81.38-.38.89-1 1.43-1.66.29-.35.59-.72.9-1.08 3.34-4.14 7.01-8.17 10.63-11.67.48-.48.96-1 1.35-1.44.25-.27.46-.51.65-.7 12.37-13.27 34.23-30.11 49.74-38.33l.79-.39c.06-.03.11-.06.16-.09.29-.19.69-.39.95-.48.1-.04.2-.08.3-.14.62-.37 1.82-.96 2.45-1.17.07-.02.13-.05.2-.08.42-.21.88-.42 1.3-.61.36-.17.68-.31.88-.42 2.63-1.21 6.89-2.61 10.25-2.61.37 0 1.15 0 1.32.04.34.12.96.35.5 2.68l-.14.56c-.21.97-.44 1.69-.66 2.14-.03.06-.06.13-.08.2-.1.3-.52 1.14-.71 1.51-.14.27-.31.65-.48 1.03-.14.31-.28.62-.4.86l-.21.31c-.04.05-.07.11-.09.16-.08.16-.17.32-.26.5-.22.42-.47.88-.68 1.38-.28.55-.74 1.22-1.01 1.62l-.18.27c-.03.05-.06.1-.09.16-.1.21-.43.69-.72 1.11-.29.43-.62.91-.88 1.33-2.1 3.08-4.18 5.54-5.71 6.74-.03.02-.05.04-.08.06-1.4 1.26-1.65 1.49-1.89 2.46-.01.06-.03.12-.03.18-.25 2.01 2.05 4.06 3.63 4.29.14.02.28.02.42 0 4.27-.58 11.39-12.95 11.49-13.13.21-.42.48-.86.57-.99l.09-.12c2.01-2.79 3.3-6.64 3.79-9.09.65-3.18 0-6.25-1.76-8.42-1.62-1.98-4.07-3.08-6.91-3.08ZM249.7 111.7c.03-.12.04-.24.04-.36 0-.64-.35-1.08-.59-1.34-.49-.67-1.42-1.08-2.09-1.08h-.13c-.26 0-.95 0-2.51 1.25-.45.36-1.68 1.11-3.14 1.93-.67.33-1.37.75-1.93 1.09-.34.21-.63.38-.83.48-.13.07-.25.15-.36.25-.16.08-.34.19-.53.3-.5.28-1.12.63-1.65.86-.9.39-2.39 1.06-3.14 1.44-.25.11-.54.24-.86.38-.85.39-1.91.87-2.78 1.13-.04.01-.09.03-.13.04-.21.08-.44.17-.67.25-.45.17-.91.34-1.31.53l-1 .33c-.27.06-.55.13-.8.21-.19.05-.45.13-.51.14-.16 0-.32.03-.47.08-.13.04-.31.08-.53.13-.41.09-.91.21-1.35.36-1.78.47-3.64.73-5.25.73-5 0-7.09-1.89-9.89-6.14-2.55-3.83-6.34-8.4-9.89-8.4-4.75 0-10.82 4.91-13.55 7.68.42-.59.85-1.18 1.27-1.77 2.64-3.65 5.57-7.8 6.81-10.69.34-.67.55-1.55.55-2.19.06-1.51-.53-2.94-1.68-4.14-2.03-2.11-5.32-3.05-7.68-3.05h-.62c-7.69.54-18.76 3.18-25.76 6.14-.05.02-.1.04-.14.07-1.08.6-6.17 2.29-7.19 2.3 0 0-.1-.06-.31-.32-.52-.69-1.91-2.3-3.56-2.3-4.12 0-11.99 10.37-13.34 12.78l-.42.71c-.28.47-.56.95-.71 1.18-1.88 2.75-2.87 5.62-3 8.69-.2 2 1.41 4.74 3.71 5.16.25.05.5.03.74-.05l.26-.09c4.26-.63 9.32-6.54 10.87-8.46.5-.51.98-1.13 1.37-1.63.2-.25.44-.57.54-.67.44-.44.88-1.15 1.4-2.02l.57-.96c.27-.46.54-.93.71-1.17l.06-.09c.62-1.09 1.06-2.45 1.58-4.13.36-1.28.44-1.29 1.67-1.58.42-.1 1.01-.31 1.64-.53.29-.1.57-.2.91-.32.53-.21 1.05-.38 1.22-.43.1-.01.2-.04.29-.07 0 0 1.82-.65 3.77-1.3 5.38-1.79 11.54-3.63 13.51-4.03.33-.08.77-.16 1.21-.25l.69-.13s.08-.02.13-.03c2.63-.77 5.78-1.23 9.27-1.38 1.46 0 2.06.14 2.29.24-.02.08-.1.21-.23.38l-1.43 1.95c-1.94 2.58-3.94 5.25-5.93 8.04-8.33 11.99-12.65 20.1-12.84 24.05-.28 3.32 5.39 4.07 5.63 4.1.06 0 .12.01.19.01.99 0 1.91-.75 3.04-2.44l.21-.28c6.34-8.59 10.56-13.62 12.53-14.96.06-.04.15-.11.2-.17l.1-.09c.27-.24.81-.72 1.29-1.31 1.92-2.04 6.53-5.39 8.53-5.64h.23c.98.21 3.91 3.56 4.75 5.07 2.35 5.08 8.98 9.32 14.83 9.47h.26c.25 0 .56-.05 1.64-.27 4.75-.62 9.64-2.08 14.94-4.43.83-.36 1.78-.76 2.05-.85 1.03-.29 3.04-1.22 4.01-1.84.16-.08.34-.18.51-.27.26-.14.65-.35.79-.39.07-.02.13-.05.2-.08.07-.04 7.2-3.72 7.73-5.83Zm-114.26 7.22c-.52.52-1.22 1.08-1.85 1.51 1.68-3.2 7.17-9.72 10.09-12.36-1.37 3.44-5.29 8.16-8.24 10.86ZM422.54 118.66c.1-.03.38-.06 1.11-.06.66 0 1.46-.13 2.58-.3.47-.07.99-.16 1.56-.24.09-.01.18-.03.26-.06.12-.04.24-.05.36-.08.23-.04.46-.08.69-.15l.75-.13c12.62-2.71 12.75-4.42 12.84-5.54v-.12c0-.46-.2-.93-.45-1.29-.37-.68-1.22-1-1.83-1-.56 0-1.19.21-1.79.59-.46.22-1.19.54-1.77.77-.84.16-1.63.42-1.96.53-1.29.37-4.84 1.29-5.95 1.4-5.75.78-11.38 1.17-17.22 1.17-.37 0-.69 0-.96-.01.15-.31.32-.65.51-.93.56-.84 1.12-1.81 1.27-2.12.03-.06.06-.13.08-.2.09-.27.43-1.09.95-2.13 1.34-2.55 1.98-4.69 2.14-7.25v-.18c.16-2.96-1.6-5.52-4.41-6.44-.5-.26-1.05-.26-1.42-.26-1.7 0-4.02.59-5.78 1.47-.08.04-.16.09-.23.14-.27.21-.7.42-1.21.59-1.38.53-5.03 2.72-8.18 4.79.21-.24.43-.51.67-.78.36-.42.72-.85 1.06-1.23.92-1.05 1.88-2.28 2.21-2.78.09-.14.27-.36.47-.61.32-.41.71-.91 1.04-1.4 3.66-4.17 5.02-5.91 5.79-7.45.03-.06.06-.13.08-.2.23-.69.34-1.03.34-1.39 0-1.67-2.42-4.51-4.25-4.51-.92 0-1.85.53-2.61 1.48-.03.03-.05.07-.08.11-.12.18-.3.42-.48.65-.15.2-.3.41-.43.58-.65.56-1.17 1.47-1.35 1.81-.14.19-.28.4-.42.6-.14.2-.34.5-.41.58-.03.03-2.34 2.69-3.3 4.35-.16.16-.3.36-.52.66-.1.13-.21.29-.33.46-.37.4-.9 1.17-1.77 2.42l-.61.89c-.99 1.23-1.98 2.58-2.36 3.13-.53.57-1.44 1.76-2.21 2.93-.61 1.01-1.4 2.05-1.88 2.67l-.2.26c-.45.46-1.17 1.32-1.52 2.02-.12.25-.54.84-.87 1.32-.2.28-.39.56-.57.82-.52.66-.85 1.08-1.03 1.45-.14.17-.34.42-.52.6-.38.38-.79.95-1.19 1.54.05-.18.08-.35.08-.47 0-.55-.21-1.3-.42-1.72-.07-.14-.17-.28-.28-.39a3.95 3.95 0 0 0-1.18-.8c-.21-.1-.44-.16-.67-.16h-.13c-1.45 0-6.56 2.27-7.22 2.65-.41.21-1.09.43-1.53.54-.08.02-.15.04-.23.08l-.75.31c-1.58.66-4.86 2.03-7.06 3.13-.94.47-1.62.76-1.77.8.01 0 .15-.04.34-.04-.83 0-5.8 2.21-5.83 2.22-7.14 3.06-11.31 4.67-12.72 5.2-.71.24-2.25.79-3.48 1.33-.78.26-1.84.61-2.15.7-.23.03-.5.11-1.09.29-.28.08-.6.18-.94.28l-.18.06c-.77.33-1.99.58-2.58.69-.09.02-.18.04-.26.08-.21.09-.53.17-.83.25-.42.11-.86.22-1.25.4-1.86.57-4.04.82-7.05.82-2.48 0-3.09 0-3.72-.18-.95-.32-1.36-.73-1.4-.85-.03-.13-.05-.71.14-1.38.02-.07.03-.13.04-.2.14-.98.39-1.91.64-2.42l.15-.31c1.3-2.87 2.41-4.73 3.29-5.53.08-.04.18-.09.25-.12.2.05.5.11.86.11h.79c4.4 0 15.05-6.54 16.14-11.67.02-.1.03-.21.03-.31v-.26c0-.8-.21-1.68-.55-2.37-.03-.06-.06-.11-.09-.16-.12-.17-.28-.39-.44-.61-.16-.21-.32-.43-.39-.54-.12-.23-.29-.43-.51-.58-.66-.44-1.34-.64-2.14-.64-4.9 0-12.02 6.03-16.63 10.9-.08-.36-.24-.71-.49-1.02-.59-.73-1.63-1.23-2.53-1.23-3.59 0-11.4 3.42-22.88 8.64l-1.95.86c-12.95 5.74-27.62 12.24-35.17 12.24-1.07 0-2.46-.14-3.02-.81-.44-.53-.52-1.6-.23-3.16 1.58-8 13.81-21.39 21.03-26.24l.18-.09c-.22.43-.46.87-.69 1.29l-.24.44c-.15.27-.31.54-.46.8-.61 1.05-1.14 1.95-1.29 2.89-.2 1.58 1.3 3.37 1.6 3.71.89 1 1.77 1.51 2.64 1.51 4 0 6.22-10.18 6.32-10.64.45-2.25-.07-4.68-1.31-6.2-.94-1.14-2.21-1.75-3.69-1.75-6.64 0-20.1 16.24-21.91 18.69-.01.02-.03.04-.04.06-2.07 3.1-5.7 9.09-6.78 14.33-.57 3.25-.16 5.64 1.25 7.32 1.38 1.64 3.59 2.43 6.78 2.43 8.05 0 21.61-5.76 35.97-12.18 7.44-3.26 14.74-6.39 22.29-8.83l.52-.13c.77-.19 1.4-.35 1.93-.5-.64.76-1.18 1.45-1.57 2.01-1.55 2.33-2.58 4.75-2.98 6.97-.58 3.01 0 5.67 1.67 7.69 1.85 2.24 4.98 3.52 8.58 3.52 1.78 0 4.47-.11 6.16-.42.05 0 .1-.02.14-.03.9-.26 1.98-.46 2.21-.47.07 0 .14 0 .21-.02 1.14-.16 6.81-2.03 8.43-2.7.33-.11.68-.25 1.02-.37.35-.13.71-.27.95-.34.43-.06.94-.25 1.86-.6.44-.17.92-.36 1.36-.5.05-.01.09-.03.14-.05.64-.28 1.31-.56 1.83-.78.31-.13.58-.24.76-.32.69-.16 1.58-.6 2.29-1 .82-.32 2.04-.87 3.13-1.36l.98-.44c1.29-.52 3.08-1.28 4.1-1.72.36-.15.7-.31.99-.44.24-.11.44-.2.58-.26.35-.07.75-.26 1.53-.65.03-.02.07-.04.1-.05.27-.16.85-.41 1.42-.65.55-.24 1.13-.48 1.63-.73 1-.5 3.08-1.41 4.67-2.07 1.13-.51 2.28-.95 2.65-1.09.35-.08.77-.29 1.66-.74 2.83-1.26 4.91-2.12 5.86-2.24.06 0 .12-.02.18-.03.63-.16 1.37-.34 1.8-.81.05-.04.08-.09.12-.13-.14.22-.31.46-.46.68-.09.12-.17.24-.25.35-.34.36-.68.84-1.02 1.3-.11.16-.23.31-.33.45-.03.04-.06.08-.08.13-.19.31-.41.63-.6.89-.12.17-.22.31-.31.45-.48.44-.8 1.08-.96 1.44-.18.24-.38.53-.57.81-.22.31-.43.62-.62.87l-.4.53c-.32.41-.63.83-.82 1.11-.03.04-.07.11-.09.16-.12.22-.78 1.17-1.36 2-.71 1.02-1.59 2.28-2.43 3.54-1.93 2.57-3.81 5.37-4.28 6.16-.04.07-.08.14-.11.21-.16.39-1.07 1.89-2.48 3.92-.43.64-.85 1.32-1.24 1.94-.41.65-.92 1.46-1.06 1.63-.11.11-.21.25-.28.39-.25.5-.86 1.59-1.48 2.46-.55.83-1.63 2.58-2.25 3.7-.39.63-1.08 1.69-1.75 2.75l-1.25 1.95c-.97 1.51-1.75 2.71-2.39 3.69-1.83 2.82-2.6 4-3.77 6.14-.26.37-.62.92-.99 1.51-.25.39-.49.78-.67 1.05-.47.66-.87 1.36-1.16 1.87-.13.22-.23.41-.31.53-.06.09-.13.25-.17.35-.06.15-.39.7-.83 1.29-.35.47-.77 1.12-1.02 1.69-.26.34-.56.83-.96 1.5l-.16.28c-.57.77-.95 1.46-1.74 2.93-.36.67-.81 1.5-1.42 2.59-.46.64-.98 1.57-1.23 2.06-1.02 1.75-5.52 10.44-5.68 13.69 0 2.26 3 4.77 5.04 4.77.47 0 .95-.21 1.3-.46.34-.18.62-.49.83-.89.1-.21.16-.44.16-.67 0-.17 0-.54-.15-1.06-.02-.16-.05-.3-.08-.42-.02-.09-.03-.15-.04-.19.14-1.71.87-5.05 1.53-6.55.23-.4.44-.88.64-1.35.17-.4.35-.82.5-1.06.04-.07.08-.14.11-.21 1.12-2.8 2.78-6.16 5.38-10.9.66-.95 1.32-2.22 1.55-2.82.17-.34.52-1.03.73-1.24.07-.07.13-.15.19-.23.21-.32.55-.91 1.08-1.85l.38-.67c.35-.51.72-1.14 1.08-1.75.34-.58.69-1.18 1.01-1.65l.41-.64c.97-1.51 1.67-2.6 2.26-3.76.6-1.08 2.7-4.3 3.39-5.28.33-.37.67-.92 1.17-1.75.04-.07.08-.14.11-.22.13-.33.73-1.28 1.77-2.67.03-.03.05-.07.07-.11.4-.64.96-1.45 1.46-2.16.29-.41.55-.79.74-1.08.03-.05.07-.11.09-.16.21-.42.54-.93.78-1.31.11-.17.2-.32.27-.44.47-.54 1.06-1.51 1.21-1.77 2.98-4.53 3.86-5.72 4.47-6.07.03-.02.06-.03.09-.05.97-.64 1.31-1.11 3.19-3.7l.35-.49c6.3-9 14.22-17.45 22.88-24.43.84-.65 1.81-1.44 2.54-2.03l.75-.6s.08-.07.12-.11c.36-.36 1.06-.88 1.52-1.22l.14-.1c.54-.25 1.12-.62 1.64-.95.21-.14.42-.27.67-.42 3.89-2.66 7.21-4.19 9.11-4.19h.09c0 .07 0 .17-.01.3v.1c-.12 3.01-5.61 13.5-6.99 14.49-.25.12-1.44.45-4.16.85-6.38.87-16.31 7.09-16.75 14.49-.09 1.35.55 2.81 1.75 4.01 1.13 1.13 2.53 1.82 3.84 1.91h.17c7.42-.35 17.67-14.23 17.75-14.33.74-.94 1.33-1.62 1.61-1.91.36-.05 1.22-.13 2.73-.13 9.89-.14 11.35-.28 12.06-.42.03 0 .14-.04.16-.04Zm-34.15 10.82c.62-3.27 6.37-8.12 10.61-9.22-2.42 2.84-8.15 7.99-10.61 9.22Z" class="cls-1"/><path d="M547.42 68.49c-.12-.03-.17-.05-.29-.05a4.5 4.5 0 0 0-.99-.12c-1.63 0-4.31.26-5.37.62-.77.29-2.1.3-16.26.3-3.61.06-7.36.09-10.69.12-4.64.04-8.31.07-9.92.15-3.54.17-5.89.26-6.61.26-1.83 0-7.51.28-11.27.52h-.98c.44-.62 1.04-1.41 1.71-2.21.24-.25.61-.68 1.2-1.37.44-.52.95-1.11 1.43-1.65.03-.03.05-.06.08-.1.77-1.03 1.8-2.31 2.59-3.24l1.09-1.36c1.78-2.2 2.4-2.96 3.14-4.06.23-.29.52-.68.83-1.09.41-.55.85-1.15 1.17-1.53.73-.81 2.46-2.85 2.73-4.43.01-.08.02-.16.02-.25 0-1.48-1.4-2.79-2.65-3.04-.1-.02-.2-.03-.29-.03h-.13c-.16 0-.32.03-.47.08-.47.16-1.58.52-6.82 6.21-.76.88-1.92 2.17-2.67 2.93l-.08.08c-1 1.17-1.75 2-2.15 2.41-.09.09-.16.18-.23.29-.17.29-.46.63-.71.93-.18.22-.35.42-.47.58-.4.43-.97 1.17-1.16 1.42-.21.22-.48.56-.94 1.13-.51.63-1.15 1.42-1.79 2.13-1.47 1.66-2.38 2.75-3.26 3.82-.39.47-.78.94-1.21 1.45-.03.04-.06.07-.08.11-.74 1.06-1.46 1.42-1.77 1.48-.72.12-4.82.5-6.04.5-.94 0-4.07.22-4.65.26-5.71.26-9.13.39-11.98.39-1.95 0-3.54-.08-5.55-.18l-1.51-.08c-1-.14-2.1-.14-2.63-.14h-.39c-.3 0-.59.09-.83.25-.65.43-1.48 1.4-1.7 2.7-.01.08-.02.16-.02.25v.26c0 1.31 0 4.38 3.2 4.38h.26c.62 0 1.68-.13 2.39-.26.36-.01.77-.06 1.24-.12.51-.06 1.08-.14 1.48-.14.07 0 .14 0 .21-.01.44-.06 1.05-.13 1.65-.19.64-.07 1.28-.14 1.79-.21 1.42-.24 2.62-.37 3.29-.37.06 0 .12 0 .19-.01.37-.05.81-.09 1.25-.14.76-.08 1.49-.16 1.98-.24.89-.01 2.29-.14 3.34-.28.89-.13 2.25-.25 2.8-.25.08 0 .17 0 .25-.02.62-.1 1.86-.21 3.07-.32l1.13-.11c.78-.08 1.41-.14 1.91-.2l-.56.68c-.03.03-.05.07-.08.1-.73 1.04-1.37 1.82-2.25 2.89l-.56.69c-.05.06-.09.12-.13.18-.22.37-.67.93-1.02 1.37-.18.22-.34.42-.44.56-.38.48-.83 1.08-1.2 1.59l-.4.54s-.06.08-.08.13c-.19.31-.41.63-.6.89-.16.23-.29.42-.4.58-1.26 1.46-2.09 2.56-2.97 3.73-.29.39-.59.79-.92 1.21-.02.03-.04.05-.06.08-.73 1.1-1.71 2.44-2.12 3-.36.39-.71.93-1.1 1.56-.14.23-.29.46-.48.74-.27.45-.67 1.02-.96 1.45l-.26.39c-.79.98-4.25 5.85-5.2 7.48-.04.06-.07.13-.1.2-.16.4-.79 1.28-1.26 1.92l-.3.42c-.59.88-.98 1.48-1.19 1.84-.13.19-.3.47-.64 1.04-.23.39-.51.86-.79 1.3-1.42 1.94-3.06 4.7-4.21 6.7-.32.44-.62.92-.75 1.12-.11.14-.21.3-.32.48-.12.19-.26.43-.45.67-.05.07-.1.15-.14.23-.22.45-.83 1.42-1.17 1.87-.03.04-.06.08-.09.13-.15.25-.34.53-.52.82-.33.51-.64.98-.84 1.38-.17.33-.56 1-.95 1.67-.19.33-.38.65-.55.94-.72 1.02-1.39 2.24-1.65 2.75-.02.04-.04.08-.05.12-.16.39-.8 1.45-1.32 2.3l-.54.89s-.04.07-.06.1c-.42.85-.92 1.67-1.22 2.16-.17.29-.3.49-.35.59-.08.15-.13.32-.15.49-.03.06-.07.14-.1.17-.17.17-.29.37-.36.59-.09.28-.44 1.12-.87 1.98-.34.79-.82 1.64-1.05 1.99-.03.05-.07.11-.1.17-.15.31-.44.88-.6 1.37l-.03.11c-.1.39-.25.72-.26.75-.07.07-.13.14-.18.22-.15.22-.3.49-.45.75-.11.2-.22.39-.34.56-.05.08-.09.16-.13.24-.29.69-1.03 2.72-1.89 5.12l-.5 1.38c-.03.07-.05.14-.06.22-.1.51-.44 1.55-.69 2.17-.41.83-.65 1.47-.65 2.18 0 .19.04.48.09.77.02.11.04.22.04.28 0 .4.16.78.44 1.06.16.16.55.56 1.17.81.48.3 1.05.58 1.52.73.45.15 1.01.34 1.78.34 1.75 0 2.97-.95 3.19-2.47 0-.07.01-.14.01-.21 0-.27 0-.64-.13-1.06v-2.13c.13-2.54.92-6.2 2-7.93.06-.1.11-.21.15-.32.04-.11.08-.24.14-.38.14-.38.31-.86.42-1.3 0-.04.02-.08.02-.12.09-.57.79-2.16 1.13-2.58.07-.08.12-.17.17-.27l.41-.79c1.51-2.95 1.81-3.57 1.9-3.86.02-.06.04-.13.05-.2.05-.13.2-.44.38-.69.46-.62.74-1.03.87-1.42.33-.64 1.51-2.87 1.88-3.43.44-.59 1-1.57 3.1-5.5.17-.25.35-.53.53-.81.36-.55.71-1.09.96-1.42.05-.07.1-.15.14-.23.09-.18.23-.41.38-.65.28-.45.59-.95.79-1.43.41-.67 1.39-2.14 2.25-3.36l.06-.09c.3-.5.64-1.02.96-1.5.59-.91.98-1.51 1.2-2 1.26-2.15 1.71-2.56 1.78-2.62.11-.08.21-.19.3-.3l.19-.25c.6-.79 2.18-2.88 4.18-5.71.45-.67 1.39-1.87 2.12-2.74.81-.94 1.34-1.61 1.34-1.61.08-.09.14-.2.19-.3.24-.36 1.26-1.67 1.89-2.43.03-.04.07-.08.1-.13.24-.36 1.06-1.45 1.81-2.45.71-.99 1.54-2.03 1.81-2.3.46-.46 1.12-1.26 1.57-1.97.33-.35.71-.84 1.13-1.4.34-.44.7-.91 1.1-1.38.32-.42.7-.89 1.06-1.33.55-.67 1.03-1.25 1.32-1.71.25-.31.57-.69.89-1.07.37-.44.75-.88.98-1.18 2.51-2.9 3.72-4.38 4.75-5.81q3.2-4.04 7.69-4.15c9.66-.59 18.12-.93 25.92-1.05 2.85-.13 8.56-.13 14.08-.13 5.18 0 10.54 0 11.92.12h.14c1.33 0 2.49.12 2.8.19.89.34 1.95.47 4.8.6h2.1c.4 0 .78-.16 1.06-.44l.35-.35c.98-.85 1.2-2.22 1.35-3.14l.03-.21c.01-.08.02-.16.02-.25 0-1.23-.75-2.21-1.92-2.5Z" class="cls-1"/></svg>