<svg xmlns="http://www.w3.org/2000/svg" id="_レイヤー_1" data-name="レイヤー 1" viewBox="0 0 707.45 212.27"><defs><style>.cls-1{fill:#481a01;stroke-width:0}</style></defs><path d="M116.52 34.15c1.54-1.98 2.04-2.48 2.2-2.6.11-.08.2-.17.29-.28.48-.62 1.02-1.22 1.65-1.92.51-.57 1.08-1.2 1.7-1.94.86-.97 1.74-2 2.51-2.89.9-1.04 1.75-2.03 2.01-2.28.09-.09.22-.18.3-.23.12-.01.24-.04.35-.09.98-.37 4.54-.66 8.44-.95 1 0 2.16-.11 2.89-.27.18 0 .4-.03.65-.05.38-.03.83-.08 1.25-.08 1.12 0 2.29-.01 3.09-.15.81-.12 2.49-.12 4.11-.12 1.54 0 3.28 0 3.97.11l.23.03c.58.09 1.17.17 1.51.25v.08c0 .07.04.23.06.3.14.55.55 2.23 2.22 2.23 1.44 0 2.53-1.14 2.91-3.04v-.02c.3-1.61.49-3.15-.39-4.21-.91-1.1-2.33-1.1-4.49-1.1-5.3 0-9.62.16-14.1.54-.44.06-1.05.13-1.65.19-.6.06-1.19.13-1.65.19-1.21 0-2.34.13-3.78.29-.67.07-1.42.16-2.29.24-.03 0-.07 0-.1.01-.66.11-1.09.11-1.59.11-.33 0-.41-.03-.67-.22-.05-.04-.1-.07-.15-.1-1.62-.94-2.67-1.51-3.77-1.51h-.66c-.23 0-.46.05-.67.16-.51.25-1.05.68-1.7 1.33-.05.05-.1.1-.14.16-.15.2-.53.5-.78.7l-.17.14c-.37.06-1.08.14-2.05.14h-.17c-1.3.14-2.58.25-2.98.25-.1 0-.2 0-.29.03-.56.11-1.51.23-2.06.23-.69 0-1.72.12-2.41.27-.83.02-2.74.14-4.67.26-1.72 0-4.11.11-5.07.28-1.02.1-4.74.22-10.83.4l-3.49.11c-.62 0-1.23.03-1.85.07-.56.03-1.12.06-1.69.06-2.92 0-5.51-.19-6.36-.28-.17-.16-.33-.29-.48-.39-.66-.77-1.39-.77-1.95-.77-1.24 0-2.1.62-2.45 1.74l-.07.14c-.09.19-.15.39-.16.6-.17 3.34.88 4.7 4.1 5.24 1.6.16 2.82.84 3.73 2.08 3.35 4.51 1.79 14.74.97 18.93-1.35 6.77-2.98 12-4.98 16-.43.85-.63 1.26-.67 1.68-.07.21-.32.8-.73 1.52-.03.05-.05.1-.08.15-.18.42-.55 1.23-1.27 2.67-.03.06-.06.13-.08.2-.35 1.04-1.6 3.68-3.19 6.75-.49.99-1.02 2.15-1.22 2.7-.27.53-.76 1.52-1.14 2.41-1.39 2.45-1.75 3.22-2.83 5.46l-.84 1.74c-.67 1.34-2.21 4.28-3.74 6.84-.02.03-.04.07-.06.1-.21.42-.47.89-.71 1.34-.37.67-.68 1.25-.88 1.71-1.06 1.97-3.47 5.89-4.81 7.72-.78 1.01-2.29 3.2-3.76 5.31-1.06 1.53-2.1 3.04-2.8 4-.42.56-1.75 2.42-2.9 4.22-.66.93-1.39 2.02-2.05 3.01s-1.23 1.84-1.6 2.33a.99.99 0 0 0-.11.17c-.65 1.17-1.56 2.45-1.85 2.84-.03.04-.06.08-.09.13-.19.32-.38.66-.56.98-.15.27-.28.52-.4.7-.39.44-.9 1.21-1.66 2.36l-1.06 1.69c-.67 1.09-1.24 2.04-1.51 2.67-.43.85-.78 1.21-1 1.37-.5.03-1.29.12-2.37.24h-.11c-2.63.24-4.19.38-5.33.48-.84.08-1.46.13-2.21.2-3.61.5-7.63.77-11.32.77-.34 0-.66-.03-.98-.06-.69-.06-1.49-.07-2.14-.14-.31-.04-.59-.06-.81-.06-1.41 0-2.04.63-2.37.96-.21.21-.64.64-.7 1.31-.15 1.18.11 3.4.98 4.48.04.04.07.08.11.12.67.67 1.17.96 2.37.96.29 0 .71-.05 1.56-.17.58-.08 1.25-.17 1.87-.23.04 0 .08 0 .12-.02l.54-.1c1.38-.25 3.09-.56 4.16-.69l3.04-.51c.33-.01.68-.08 1.05-.14.32-.06.69-.12.9-.12.08 0 .17 0 .25-.02.5-.08 1.23-.17 1.96-.25.38-.04.77-.09 1.15-.14.35-.05.75-.12 1.13-.19.43-.08 1.08-.19 1.28-.19.41 0 .96-.08 1.82-.22.41-.07.85-.14 1.21-.18 1.29-.13 2.68-.25 4.3-.25h.12c.59-.05 1.1-.08 1.54-.11.83-.05 1.39-.08 1.85-.2.03 0 .08-.02.11-.03.22-.07 1.06-.19 1.62-.26l.47-.07c.86-.12 2.1-.25 2.8-.25.1 0 .2 0 .3-.03.54-.11 1.76-.23 2.58-.23.98 0 2.29-.13 3.14-.26.34 0 .84-.02 1.41-.05.85-.04 1.89-.08 2.79-.08h.12c1.51-.13 3.56-.13 4.33-.13.06 0 .12 0 .19-.01.96-.12 2.24-.12 3.48-.12 4.56 0 9.42.26 12.07.63.76.13 1.86.27 2.53.28 1.36.12 2.26.55 2.41.71.73.98 1.67 1.52 2.64 1.52 1.42 0 2.48-1.19 2.76-2.32.03-.12.04-.24.04-.36 0-.75-.27-2.89-.47-3.49-.07-.22-.2-.43-.37-.59a2.51 2.51 0 0 0-1.71-.7h-.66c-.23 0-.46.05-.67.16-.21.1-.48.1-.77.1-.08 0-.24 0-.33-.01-.04-.02-.08-.03-.11-.04-2.17-.72-23.71-.73-23.92-.73-3.11 0-6.32 0-9.17.13h-2.17c.59-.89 1.13-1.8 1.65-2.69.21-.36.42-.72.63-1.07.29-.48.59-1.01.93-1.59.59-1.02 1.25-2.18 2.11-3.56.73-1.32 1.38-2.44 2.01-3.55 1.08-1.88 2.1-3.67 3.52-6.34.63-1.26 1.52-2.92 2-3.64.47-.71 1.25-2.14 2-3.53l.82-1.51c.55-1.02 1.31-2.42 1.5-2.69.06-.09.13-.24.17-.34.08-.21.53-1 .86-1.57.2-.35.41-.72.61-1.08.53-.95 1.06-1.9 1.32-2.39.3-.3.66-.77 1.3-1.62.25-.33.52-.69.83-1.09.53-.76 1.2-1.65 1.78-2.44.43-.57.82-1.09 1.08-1.46 1.29-1.74 2.09-2.78 2.66-3.52.43-.55.74-.95 1.05-1.39.5-.75.71-.98.76-1.02.17-.11.31-.25.42-.42.1-.15.32-.42.58-.74.38-.47.85-1.05 1.28-1.66.58-.93 1.56-2.03 1.75-2.22.55-.55 1.45-1.8 1.86-2.42.32-.44.68-.87.97-1.21.25-.29.43-.51.57-.71.38-.41.91-1.09 1.19-1.47.36-.48 1.11-1.48 1.69-2.06.04-.04.08-.08.11-.12.22-.27.51-.62.8-.96.41-.49.83-.99 1.07-1.31.37-.5 1.15-1.54 1.8-2.31.72-.87 1.34-1.61 1.6-2 .17-.22.46-.56.8-.98.46-.55 1.02-1.22 1.48-1.81 1.02-1.15 2.73-3.25 3.67-4.45 1.04-1.17 2.47-2.86 3.16-3.69.85-1 2.12-2.52 2.91-3.57l.03-.04c.95-1.09 2.72-3.12 4.01-4.66 1.01-1.22 2.55-3.06 2.79-3.31.15-.15.26-.32.33-.51.15-.24.73-.82 1.11-1.19.6-.6 1.44-1.58 1.84-2.13.04-.05.1-.16.13-.21.19-.33 1.42-1.84 2.87-3.29.03-.03.06-.07.09-.1 1.13-1.36 2.79-3.24 3.77-4.37l.45-.52Zm-1.95-8.88c-1.79 2.26-2.33 2.94-3.61 4.75-.93 1.35-2.31 3.3-3.56 4.83-.28.29-.65.77-.89 1.16-.16.18-.37.44-.67.82-.32.4-.7.87-1.09 1.33-.63.75-1.61 2-1.9 2.45-.65.91-3.38 4.41-5.32 6.62l-.17.21c-.59.74-1 1.26-1.24 1.74-.1.12-.22.27-.35.43-.29.37-.66.82-1 1.17-.07.07-.13.15-.19.23-.27.41-.7.94-1.04 1.36-.29.36-.54.68-.63.82-.38.5-1.1 1.47-1.61 2.11-.56.58-1.17 1.35-1.66 1.97l-1.45 1.82c-.54.76-1.31 1.66-1.99 2.45l-.33.39c-1.29 1.68-2.55 3.18-2.76 3.4-.16.16-.25.27-.32.49-.06.12-.33.43-.49.62-.18.21-.36.42-.48.58-.35.44-.66.84-.97 1.24-.62.8-1.2 1.55-2.14 2.66-.04.04-.07.09-.1.14-.46.69-1.18 1.53-1.38 1.74l-.52.52c-.14.14-.25.3-.32.48-.17.27-.81 1.18-2 2.73.49-1.03.95-2.04 1.33-2.94.35-.64.72-1.45 1.07-2.22.31-.67.62-1.37.84-1.75.04-.07.07-.14.1-.22.43-1.15.91-2.33 1.12-2.74.02-.04.04-.08.05-.12l.4-1.01c2.25-5.73 4.57-11.65 5.71-17.76.43-2.58.68-4.69.81-6.93 0-.31.04-.68.07-1.03.04-.4.07-.79.07-1.07V37.3c0-.13-.02-.37-.05-.67-.03-.3-.08-.69-.08-1.11-.14-3.06-1.35-6.74-3.05-9.21-.23-.31-.44-.61-.62-.89.79-.05 1.87-.12 3.11-.21 4.81-.31 12.07-.79 14.61-1.1.7-.04 1.5-.1 2.29-.16 1.52-.11 3.09-.23 3.9-.23h.17c.45-.05.99-.1 1.53-.15.93-.08 1.82-.17 2.32-.25.83-.12 2.21-.25 2.93-.25.92 0 2.45-.15 3.26-.28l.18-.03c-.42.65-.97 1.45-1.6 2.21l-.24.31ZM197.08 75.87c-1.22 0-2.91.93-3.22 1.11l-.4.22c-7.97 4.48-17.88 10.06-27.03 10.06-3.66 0-6.14-3.02-9.03-7.02-2.92-3.75-5.93-7.63-10.75-7.78h-.21c-3.29.18-7.82 2.91-13.53 8.12 3.17-4.75 7.34-10.33 10.1-14.03l1.02-1.37c3.13-4.03 3.43-4.41 3.46-4.94.23-1.28-.58-2.63-.84-3.04-.39-.6-1.24-1.62-2.43-1.77-.31-.04-.62.02-.9.17-7 3.79-26.57 35.49-27.87 42.03-.19.94.06 1.89.7 2.67 1.27 1.55 3.8 2.13 5.1 2.13.81 0 .95 0 4.72-4.77 10.44-13.35 17.67-20.12 21.48-20.12.99 0 2.99 2.87 3.76 3.96 3.03 4.21 7.6 10.58 16.02 10.58s24.53-8.57 29.22-11.23c2.22-1.39 2.49-2.2 2.59-2.5.05-.15.08-.31.08-.47 0-1.1-.93-2.02-2.02-2.02ZM330.17 40.49c9.75 0 18.95 0 28.35.52.82.04 1.64.1 2.46.16 1.66.12 3.37.24 5.08.24.32 0 .64-.11.9-.3 1.64-1.23 1.9-2.64 1.91-3.99.1-.93-.22-1.54-.52-1.88-.69-.79-1.74-.9-2.68-.9s-3.33.06-5.32.6c-.69.23-4.21.31-6.78.37-1 .02-2.02.05-2.96.08-.97 0-1.95-.04-2.84-.07-.79-.03-1.52-.06-2.14-.06h-1.44c-9.75 0-21.29.09-32.97.79-2.06.12-4.08.23-6.09.25.95-1.28 2.29-3.01 3.78-4.91l1.21-1.55c9.95-12.22 10.34-13.8 10.51-14.47.05-.2.06-.41.02-.61-.22-1.33-1.52-2.83-2.92-2.83-.89 0-2.11 0-11.51 10.8a439.26 439.26 0 0 0-10.67 12.75c-.66.93-1.23 1.43-1.79 1.49-5.76 1.02-13.6 1.15-19.78 1.15-2.56 0-5.2 0-7.75-.13l-.34-.03c-1.6-.12-3.11-.24-4.76-.24s-2.65 1.46-2.68 3.65c-.12 1.29.21 2.52.9 3.29a2.7 2.7 0 0 0 2.04.91c8.36 0 17.46-1.26 25.53-2.38.92-.15 1.85-.31 2.76-.44-1.76 2.4-5.23 6.97-6.58 8.75l-1.01 1.33c-2.13 2.72-5.46 7.1-9.25 12.5-19.82 18.07-42.12 29.06-47.09 31.17-1.3-4.18-4.01-5.28-7.16-6.2-1.45-.42-5.67-1.65-6.72-2.53.72-2.15 5.26-6.71 14.15-12.49 6.98-4.54 13.2-7.55 16.29-8.39-.22.4-.42.82-.54 1.19-.05.15-.08.31-.08.47v.26c0 1.12.61 2.61 1.75 3.18.24.12.5.17.77.16 2.77-.19 6.36-4.45 6.87-6.82.02-.1.03-.17.03-.27 0-.06.02-.14.04-.21.04-.21.09-.47.09-.75 0-3.02-1.55-6.08-4.51-6.08-9.1 0-37.04 18.65-39.44 27.98-.03.12-.05.22-.05.35 0 .1-.04.24-.06.36-.05.26-.07.49-.07.54-.18 5.4 5.7 6.87 8.93 7.68 3.35.9 5 1.49 5.08 2.74l-.05.16c-.05.15-.08.31-.08.47 0 .23-.23.78-.38 1.14l-.24.54-.61.53c-8.37 6.27-8.88 8.32-9.07 9.09-.03.12-.04.24-.04.36v.31c-.08.19-.13.39-.13.6 0 2.85 1.58 3.86 2.94 3.86 5.78 0 11.99-10.87 12.02-10.94 1.13-1.85 4.85-3.94 10.01-6.83l1.8-1.01c6.81-3.79 15.72-8.76 25.96-16.34-10.1 15.8-20.91 34.89-22.96 44.44-.02.1-.03.21-.03.32v.26c0 2.39 2.54 3.99 4.91 3.99.74 0 1.54-.24 2.14-.64.18-.12.34-.29.45-.47l.39-.65s.04-.07.06-.1c.29-.58.29-1.21.29-1.72v-3.84c.71-12.5 21.14-41.43 31.93-55.1 4.39-3.66 13.02-14.99 17.68-21.11 1.36-1.81 2.14-2.76 2.5-3.15 6.13-.9 16.07-1.36 29.58-1.36Z" class="cls-1"/><path d="M379.88 78.16v-.13c0-1.36-1.02-2.81-2.55-2.81-.26 0-.66 0-2.89 1.28-.96.6-2.19 1.22-2.76 1.5-.16.08-.34.16-.51.24-.42.2-.86.4-1.22.64-.12.08-.56.3-.88.46-.46.23-.98.49-1.45.75-.82.36-2.18 1.02-2.89 1.52-2.74 1.54-12.58 5.76-15.18 6.5l-2.36.65c-.05.01-.11.03-.16.05-.55.22-1.35.41-1.54.42-.74 0-2.32.42-2.78.55-.34.04-.63.08-.89.11-.56.08-.92.12-1.44.12-2.86 0-4.68-.52-5.57-1.59-.81-.98-1-2.67-.57-4.97.54-2.45 1.32-4.79 2.25-6.76.03-.05.05-.11.07-.17.28-.83.82-2.71 1.08-4.04.12-.47.18-.99.18-1.54 0-.1 0-.2-.03-.29-.25-1.22-1.69-2.82-2.37-3.37-.08-.07-.17-.12-.27-.17-.55-.27-1.33-.42-2.24-.42-1.32 0-1.71.14-2.75.6-.2.09-.43.19-.71.3-.03.01-.07.03-.1.05-.44.22-.9.45-1.14.56-.97-.83-2.48-1.9-4.47-1.9-2.71 0-6.3 2.18-8.04 3.75-.6.46-1.61 1.35-2.28 2.01-1.64 1.38-4.54 4.4-5.54 5.69-.09.11-.16.24-.21.37-.1.25-.56.78-.86 1.13-.17.2-.34.4-.44.53-1.17 1.31-3.33 4.56-3.89 5.83-.2.39-.61 1.22-.82 1.54-.04.05-.07.11-.1.16-.47.95-1.03 2.79-1.18 3.65-.19.95.17 2.02 1.04 3.08.85 1.04 2.37 2.25 3.84 2.25 1.15 0 2.41-.7 4.63-2.57 1.66-1.39 2.27-2.01 6.98-7.5 2.55-2.92 4.73-5.37 6.14-6.92.94-1.03 2.21-2.03 2.82-2.43.02.01.05.03.08.05.05.04.11.07.17.1.35.18.84.42 1.46.42 2.06 0 3.05-2.42 3.3-3.78.09-.29.26-.56.47-.78-.04.13-.07.27-.1.4l-.24.61c-.25.74-.49 1.67-.64 2.29-.25.52-.45 1.38-.85 3.17l-.23 1.02c-.18.63-.3 1.21-.41 1.69-.05.22-.09.42-.15.67-.62 3.24.02 6.13 1.87 8.37 2.11 2.56 5.64 4.03 9.69 4.03.91 0 1.53-.01 2.04-.2.47-.11 1.04-.19 1.24-.19 5.02 0 21.71-7.49 26.77-10.47.35-.24 1.14-.67 1.73-.87.06-.02.12-.04.17-.07 2.42-1.16 6.52-3.38 7.22-4.09.28-.28.44-.66.44-1.06ZM467.2 75.74c-.33 0-1.01 0-1.83.41-9.97 4.76-22.35 10.9-32.5 17.39l.11-.19c2.88-4.72 7.27-13.93 7.55-19.94.21-3.23-.56-6.01-2.16-7.83-1.22-1.38-2.9-2.17-4.97-2.29h-.65c-4.81 0-9.15 2.23-13.16 4.5-1.4.76-2.84 1.53-4.36 2.22-.12-.09-.23-.19-.35-.29-.19-.16-.38-.32-.57-.46-1.31-1.16-2.88-2.4-5.03-2.56H408.94c-7.19.44-24.53 16.48-26.62 23.33-.04.14-.07.29-.07.44v.13c0 2.23 2.53 4.03 4.2 4.24.06 0 .12.01.19.01h.2c3.17-.15 8.69-3.98 17.45-10.24 9.86-7.11 22.12-15.96 29.25-15.96h.44c.46.09.63 1.25.55 2.32v.11c0 .65-.11 1.44-.22 1.87-2.04 8.3-6.78 16.33-11.36 24.09l-.08.13c-3.69 6.24-4.17 7.04-9.73 12.1-1.63 1.49-3.16 2.9-4.02 3.88l-1.58 1.58-1.03 1.11c-9.72 10.52-25.98 28.12-28.26 37.35-.08.25-.12.5-.17.75-.02.12-.03.24-.07.36-.05.15-.08.32-.08.48 0 2.28 1.3 3.87 3.48 4.23.08.01.17.02.25.02.07 0 .14 0 .22-.02 8.43-1.23 40.23-45.97 42.93-51.67 3.77-7.89 32.53-22.15 42.82-26.24.04-.02.08-.03.12-.05 1.22-.61 2.01-1.75 2.01-2.91 0-1.45-1.02-2.42-2.55-2.42Zm-60.53-.11-.92.61c-1.06.66-2.65 1.88-4.71 3.49l-.42.32c-1.36 1.05-2.96 2.28-4.55 3.47 4.08-3.65 9.16-7.59 11.79-8.98-.26.38-.63.66-1.19 1.08ZM502.17 67.75c-1.88 0-6.49 2.56-6.95 2.85-.04.02-.07.05-.1.07-.37.27-1.09.74-1.74 1.13.69-.83 1.58-1.93 2.05-2.64.28-.41.66-.9.97-1.29.22-.28.42-.53.54-.71.92-1.06 1.45-1.87 1.68-2.54.05-.15.08-.31.08-.48 0-.71-.39-1.3-.78-1.88-.05-.08-.12-.16-.19-.23-.06-.06-.15-.16-.24-.26-.42-.47-.73-.8-1.09-1.01-.56-.37-1.13-.74-1.83-.74-1.23 0-2.16.95-3.44 2.71l-.06.09c-.42.68-1 1.39-1.42 1.92-.19.24-.35.44-.49.62-.42.56-1.19 1.59-1.73 2.4-.02.03-.04.06-.05.09-.46.81-1.72 2.58-2.75 3.87-.05.06-.09.12-.13.19l-.48.83c-.23.31-.45.59-.64.83-.4.51-.66.85-.82 1.13-.28.33-.69.88-1.02 1.43l-.4.54c-3.48 5.28-7.08 10.74-10.53 16.46l-.5.87-.03.05c-.54.79-1.11 1.72-1.11 2.71 0 1.51 2.25 2.9 2.27 2.92.05.03.1.05.13.08.19.12.55.34 1.06.34s1.05-.25 1.41-.54c.79-.49 1.21-.94 2.9-2.89 3.66-4.5 6.25-7.56 7.89-9.32.86-.86 1.74-1.76 2.22-2.49 2.3-2.42 5.15-5.4 7.91-7.29a.55.55 0 0 0 .09-.07c.44-.35 1.01-.77 1.49-1.12l.57-.42c.26-.2.5-.33.62-.39.32-.07.59-.23.91-.42.22-.13.51-.31.86-.48.27-.13.65-.32.96-.47.18.17.38.37.55.54.82.95 1.33 1.53 2.41 1.53 1.75 0 2.93-1.76 3.3-3.4.02-.11.04-.22.04-.33v-.45c.06-.8-.29-1.65-1.02-2.47-.75-.85-2.09-1.85-3.36-1.85ZM602.65 75.22c-.26 0-.66 0-2.89 1.28-.96.6-2.19 1.22-2.76 1.5-.16.08-.34.16-.51.24-.42.2-.86.4-1.22.64-.12.08-.56.3-.88.46-.46.23-.98.49-1.45.75-.82.36-2.18 1.02-2.89 1.52-2.74 1.54-12.58 5.76-15.18 6.5l-2.36.65c-.05.01-.11.03-.16.05-.55.22-1.35.41-1.54.42-.74 0-2.32.42-2.78.55-.34.04-.63.08-.89.11-.56.08-.92.12-1.44.12-2.86 0-4.68-.52-5.57-1.59-.81-.98-1-2.67-.57-4.97.54-2.45 1.32-4.79 2.25-6.76.03-.05.05-.11.07-.17.28-.83.82-2.71 1.08-4.04.12-.47.18-.99.18-1.54 0-.1 0-.2-.03-.29-.25-1.22-1.69-2.82-2.37-3.37-.08-.07-.17-.12-.27-.17-.55-.27-1.33-.42-2.24-.42-1.32 0-1.71.14-2.75.6-.2.09-.43.19-.71.3-.03.01-.07.03-.1.05-.44.22-.9.45-1.14.56-.97-.83-2.48-1.9-4.47-1.9-2.71 0-6.3 2.18-8.04 3.75-.6.46-1.61 1.35-2.28 2.01-1.64 1.38-4.54 4.4-5.54 5.69-.09.11-.16.24-.21.37-.1.25-.56.78-.86 1.13-.17.2-.34.4-.44.53-1.17 1.31-3.33 4.56-3.89 5.83-.2.4-.61 1.22-.82 1.54-.03.05-.07.11-.09.16-.47.94-1.03 2.79-1.18 3.65-.19.95.17 2.02 1.04 3.08.85 1.04 2.37 2.25 3.84 2.25 1.15 0 2.41-.7 4.63-2.57 1.66-1.39 2.27-2.01 6.98-7.5 2.55-2.92 4.73-5.37 6.14-6.92.94-1.03 2.21-2.03 2.82-2.43.02.01.05.03.08.05.05.04.11.07.17.1.35.18.84.42 1.46.42 2.06 0 3.05-2.42 3.3-3.78.09-.29.26-.56.47-.78-.04.13-.07.27-.1.4l-.24.61c-.25.74-.49 1.67-.64 2.29-.25.52-.45 1.38-.85 3.17l-.23 1.02c-.18.63-.3 1.21-.41 1.69-.05.22-.09.42-.15.67-.62 3.24.02 6.13 1.87 8.37 2.11 2.56 5.64 4.03 9.69 4.03.91 0 1.53-.01 2.04-.2.47-.11 1.04-.19 1.24-.19 5.02 0 21.71-7.49 26.77-10.47.35-.24 1.14-.67 1.73-.87.06-.02.12-.04.17-.07 2.42-1.16 6.52-3.39 7.22-4.09.28-.28.44-.66.44-1.06v-.13c0-1.36-1.02-2.81-2.55-2.81ZM697.88 75.87c-.88 0-1.63.38-2.24.68-.04.02-.08.04-.12.07-7.31 4.54-24.64 13.92-31.56 13.92-.17 0-.28-.02-.34-.03-.01-.07-.02-.22 0-.5.1-2.46 3.48-8.06 6.2-12.56l.9-1.49c2.91-4.55 3.98-6.44 4.25-7.52.03-.12.04-.24.04-.36 0-.2.03-.37.05-.52.04-.27.08-.53.07-.71.09-1.75-.34-3.14-1.29-4.15-.94-.99-2.29-1.49-4-1.49-4.11 0-11.62 6.94-23.21 18.93-1.5 1.54-2.96 3.04-4.32 4.37 1.37-2.79 2.59-5.64 3.07-8.01.02-.1.03-.2.03-.29v-.39c0-2.65-2.36-5.56-4.51-5.56-1.53 0-4.47.88-12.28 8.45-3.05 2.96-5.91 6.03-7.92 8.26 4.46-6.37 10.95-14.45 12.09-15.59.28-.28.44-.66.44-1.06V70c.06-.81-.3-1.66-1.07-2.54-.17-.2-1.74-1.92-3.31-1.92-4.44 0-17.2 22.79-18.26 25.51-.6 1.33-1.35 3.08-1.79 4.84-.03.12-.04.24-.04.36v.39c0 2.29 2.03 4.38 4.25 4.38 1.94 0 4.42-2.56 11.02-9.88l1.24-1.37c2.51-2.86 8.37-9.51 11.74-12.01-.73 1.38-1.65 2.99-2.49 4.48-1.1 1.84-3.65 6.2-4.19 8.1l-.06.12c-.12.24-.17.51-.15.79.2 2.66 3.59 4.66 5.69 4.66 1.62 0 4.22-2.07 15.6-13.67l2.02-2.02c4.67-4.68 10.78-10.81 13.76-12.84-.66 1.81-1.91 4.26-3.24 6.83l-.44.86c-2.57 5-5.48 10.67-5.62 14.82-.09 1.87.36 3.33 1.34 4.36 1.07 1.12 2.66 1.66 4.87 1.66 7.8 0 27.98-10.88 34.07-14.64 1.42-.89 1.98-1.85 2.2-2.5.05-.15.08-.32.08-.48 0-1.38-1.1-2.42-2.55-2.42Z" class="cls-1"/></svg>