<svg xmlns="http://www.w3.org/2000/svg" xml:space="preserve" id="_レイヤー_2" x="0" y="0" style="enable-background:new 0 0 567.3 98.19" version="1.1" viewBox="0 0 567.3 98.19"><style>.st0{fill:#fff}</style><g id="_1"><path d="M99.21 20.8c0-.07.01-.13 0-.2l-.02-.23c-.01-.92-.43-1.85-1.12-2.48-.61-.56-1.36-.84-2.12-.78-1.55.11-3.33 1.18-4.85 2.15l-.32.19c-.31.19-.62.38-.87.48-.04.02-.08.03-.11.05C79.42 26 61.28 46.57 53.42 56.78c3.6-6.24 10.06-18.47 9.97-22.68 0-1.21-.42-2.23-1.2-2.95-.91-.85-2.26-1.24-3.88-1.12-7.1.5-23.97 18.02-27.68 22.5l-.62.86-.3.37c-.37.46-.76.94-1.15 1.42.86-1.43 1.76-2.83 2.66-4.2 1.65-2.66 3.26-5.36 4.81-7.97l.07-.12c1.94-3.28 3.94-6.68 6.13-9.81 2.69-3.84 4.81-7.27 6.3-10.2.11-.22.13-.48.06-.71-.35-1.07-1.58-2.6-3.08-2.5-.62.04-1.15.08-5.41 7.58-2.13 3.75-4.18 7.61-4.64 8.61-2.28 4.77-5.16 9.76-8.41 15.34-.43.77-.86 1.53-1.29 2.28-.65 1.14-1.28 2.26-1.89 3.37-4.58 8.03-9.52 16.54-15.02 24.4-.39.5-4.07 6.41-4.65 7.79-1.03 2.19-2.07 3.84-3.17 5.05-.19.18-.93.94-1.03 1.73v.32c.06.66.52 1.24 1.32 1.63.5.24 1.08.39 1.55.39h.15c.57-.04 1.51-.11 4.5-6.49.08-.16.16-.33.22-.47.05-.11.08-.2.09-.23.05-.05.09-.11.12-.18 2.41-4.6 5.21-9.09 7.91-13.42l.75-1.21c1.45-2.31 3.03-4.78 4.81-7.13 9.27-12.17 21.23-26.95 31.57-33.23l.42-.25c1.18-.72 4.31-2.63 6.17-2.76h.15V33.14c-.02.06-.03.13-.04.19-.64 5.5-7.48 17.35-12.97 26.87l-.21.37c-4.72 8.1-8.1 14.05-8.48 16.56-.09.28-.08.48-.07.59 0 .86.36 1.7.97 2.26.53.49 1.2.74 1.89.68.42-.03.84-.27 1.24-.7.14-.05.26-.14.36-.25.42-.48 2.39-3.99 3.29-5.66.48-.82.92-1.6 1.29-2.24.36-.64.65-1.14.79-1.36 7-10.36 37.76-48.22 48.22-50.3-.49 2.1-2.76 6.46-4.44 9.7l-.74 1.38c-.37.68-.69 1.28-.94 1.78-2.49 5.16-5.17 10.35-7.77 15.39l-.39.74c-5.14 9.82-10.46 19.98-14.36 30.49l-.14.37c-1.12 2.93-2.28 5.96-2.64 8.98V89.2c-.09.73-.18 1.47-.13 2.13.02 1.07.31 1.85.89 2.38.62.56 1.5.8 2.7.71.82-.06 1.22-.67 1.46-1.05a.96.96 0 0 0 .15-.57c-.02-.26-.06-.48-.1-.65-.02-.08-.03-.14-.04-.2 0-.05-.01-.09-.02-.14l-.07-.33c-.17-.73-.3-1.3-.29-2.03-.19-9.6 15.9-40.62 21.55-50.74 2.8-5.04 8.02-14.42 8.53-17.93l-.01.02zM195.65 46.75c-.27-.24-.54-.35-.71-.42a.979.979 0 0 0-.42-.07h-.07c-.81.06-3.53 1.5-3.87 1.73-.21.12-.56.27-.79.34-.05.02-.09.03-.14.06l-.4.2c-.83.42-2.56 1.28-3.72 1.97-.48.28-.83.46-.92.5 0 0 .09-.03.22-.05-.51.05-3.11 1.43-3.12 1.44-3.89 2-6.14 3.04-6.71 3.3-.46.19-1.22.53-1.84.86h-.02c-.4.17-.94.4-1.11.46-.14.03-.3.09-.61.21-.14.05-.31.12-.48.18-.04.01-.07.03-.11.05-.39.2-1.04.38-1.36.47-.05.01-.11.03-.16.06-.13.06-.28.11-.43.16-.23.08-.47.16-.68.27-.97.37-2.14.59-3.76.7-1.33.09-1.66.11-1.99.04-.5-.13-.7-.32-.71-.33-.02-.07-.05-.36.03-.7 0-.04.01-.08.02-.13.04-.53.13-1.03.25-1.3l.07-.18c.59-1.58 1.11-2.62 1.54-3.08.02-.02.05-.03.07-.05.11.02.27.04.47.02l.42-.03c2.42-.17 8.03-4.18 8.43-7.05 0-.07.01-.13 0-.2v-.14c-.04-.46-.19-.94-.42-1.32l-.06-.09c-.07-.09-.17-.21-.27-.33-.09-.11-.18-.21-.22-.26a.898.898 0 0 0-.34-.33c-.4-.23-.79-.31-1.26-.28-2.87.2-6.86 4.25-9.15 7.15 0-.1-.03-.2-.07-.29-.26-.64-.79-1-1.39-.97l-.28.02s-.08 0-.11.02c-3.11.61-13.15 6.76-15.59 8.37-.88.63-1.56 1.11-4.3 3.02-.52.38-1.09.82-1.41 1.08-.49-1.08-1.59-2.56-2.95-2.76-.07 0-.09-.01-.16 0-.05 0-.22-.04-.46-.14-.27-.14-.68-.22-1.57-.39-.2-.04-.4-.08-.59-.11-1.3-.28-1.83-.47-2.04-.59.38-1.11 3.34-4.23 5.2-5.77l.24-.21c2.89-2.29 7.48-5.39 9.95-6.33-.13.31-.16.5-.16.63-.05.64.33 1.42.76 1.79.1.08.21.15.33.18.2.1.43.13.66.08 1.64-.41 3.31-2.61 3.47-4.04.17-1.17-.16-2.41-.85-3.15-.52-.56-1.23-.84-1.98-.79-4.74.33-15.06 8.65-17.93 12.44-.01.02-.03.04-.04.06l-.14.21-.06.06a.895.895 0 0 0-.17-.32c-.45-.52-.98-.73-1.66-.69-.45.03-.95.15-1.52.36-.03.01-.06.02-.09.04-.28.13-.71.29-.97.38-.95.28-3.43 1.25-3.84 1.49-.06.04-.12.08-.18.13-.07.04-.26.12-.5.19-.64.18-1.18.37-1.59.57-.2.07-.41.14-.59.21-.28.1-.52.18-.65.23-.18.08-.57.24-.87.32-.05.01-.09.03-.13.05-.62.28-1.8.71-3.26 1.11-.44.09-.99.25-1.4.38-.15.05-.29.09-.44.13-1.06.36-2.23.63-3.07.68-.51.04-.79 0-.92-.04.19-1.05 1.58-3.51 2.83-5.41.34-.41.48-.88.53-1.07.02-.1.03-.2.03-.29-.01-.19-.03-.5-.23-.83-.04-.06-.08-.12-.13-.17l-.06-.12c-.05-.11-.12-.24-.2-.37-.34-.81-1.03-1.34-1.74-1.29h-.14c-.06.01-.12.02-.18.04-.52.14-1.11.6-2.59 2.51l-.76.87c-.37.35-.82.87-1.16 1.26l-.35.38c-.23.25-.41.44-.53.61-.38.27-.73.73-.94 1.03-.34.39-1.17 1.27-1.8 1.92a38.6 38.6 0 0 0-1.69 1.87c-.02.03-.04.05-.06.08-.18.26-.51.51-.67.64-.05.04-.08.06-.12.11-.06.06-.16.14-.28.22-.06.05-.12.09-.18.14 1.12-2.7 4.1-7.34 5.69-8.85.69-.66.95-.92 1.07-1.22.04-.1.07-.21.07-.32.03-.75-.47-1.52-.96-1.99-.52-.51-1.12-.77-1.66-.73-1.98.14-5.38 7.59-5.73 8.36-.04.08-.09.16-.13.24-.05.09-.09.18-.13.24-.04.05-.08.1-.11.15-.89 1.57-1.6 3.48-1.86 5.01v.06c-.11 1.15.35 2.57 1.66 3.17.23.1.45.12.63.12h.22c.37-.03.79-.17 1.21-.41 1.38-.89 3.38-2.93 4.83-4.5l.29-.34c.16-.15.3-.31.43-.46.08-.09.15-.18.21-.23a.8.8 0 0 0 .13-.13l.79-.91s.04-.05.06-.07c.11-.15.25-.32.41-.49-.03 1.31.68 2.4 1.13 2.97.03.04.07.08.11.12.35.3.75.64 1.11.79l.52.25c.15.07.31.11.47.09l1.07-.07c1.32-.09 2.55-.34 3.18-.63.07-.03.19-.06.34-.09.24-.06.54-.14.83-.25.58-.13 1.37-.42 1.7-.58.29-.12.73-.26 1.02-.35l.27-.09c1.04-.38 2.82-1.09 3.43-1.34.21-.1.42-.17.49-.18.18-.02.32-.09.52-.19.16-.08.39-.19.64-.28.04-.01.07-.03.11-.05.35-.18.83-.33 1.12-.43l.14-.05s.04-.01.06-.02c.06-.02.15-.06.26-.1.27-.1.6-.22.88-.35 1.9-.76 2.79-1.1 3.84-1.45.19-.04.39-.09.59-.14-.53.81-.87 1.56-.96 2.44-.17 1.64.7 3.19 2.13 3.78.56.23 2.22.65 4.08 1.01.72.1 1.77.59 1.79 1.11l-.13.5-.21.49-.65.62c-2.67 2.46-3.65 3.55-4.05 4.54-.06.11-.1.22-.12.3-.08.15-.11.32-.1.49 0 .02.15 1.59.7 2.23l.09.09c.18.16.48.42.96.42h.09c2.4-.17 5.49-5.23 5.96-6.42.58-1.2 8.35-6.85 10.63-8.3 3.89-2.52 9.87-5.62 11.16-5.89.12-.03.26-.06.4-.11-.17.25-.32.47-.44.67-.76 1.34-1.24 2.71-1.37 3.94-.26 2.14.53 3.47 1.23 4.21 1.01 1.06 2.56 1.64 4.32 1.64.19 0 .38 0 .57-.02.97-.07 2.43-.23 3.35-.46.03 0 .06-.02.09-.03.46-.17 1.03-.32 1.15-.33.04 0 .09 0 .13-.02.62-.13 3.64-1.37 4.5-1.79.17-.07.36-.16.53-.24.18-.08.35-.17.49-.22.24-.05.52-.18 1.01-.41.23-.11.48-.23.71-.32a.3.3 0 0 0 .08-.04c.33-.18.68-.35.96-.49.16-.08.3-.15.4-.21.38-.12.84-.39 1.21-.63.44-.21 1.08-.55 1.65-.86l.5-.27c.66-.32 1.56-.78 2.07-1.04l.09-.05c.19-.1.37-.2.52-.28.12-.06.22-.12.29-.15.2-.06.42-.18.83-.42.02-.01.04-.03.06-.04.13-.09.45-.26.73-.4.29-.15.6-.31.86-.46.53-.31 1.62-.88 2.45-1.3.58-.32 1.17-.59 1.38-.68.2-.06.43-.2.89-.47 1.48-.79 2.57-1.33 3.07-1.43.04 0 .09-.02.13-.03.31-.1.72-.24.97-.52.33-.29.36-.64.35-.83-.02-.3-.16-.71-.31-.98a.962.962 0 0 0-.18-.22h.08zM295.53 15.64v-.34s.01-.04.01-.06c-.08-4-1.55-7.67-3.92-9.84-1.82-1.66-4.15-2.45-6.73-2.27-8.39.59-19.63 10.81-34.36 31.27-1.92 2.71-3.66 5.05-4.41 5.93-.2-.04-.43-.08-.68-.06-.37.03-.68.16-.95.38 5.63-10.58 10.98-19.65 15.98-27.08 1.17-1.7 3.17-4.63 3.35-5.19.04-.11.05-.23.04-.35v-.07c-.06-.78-.65-1.53-.91-1.81-.35-.4-1.07-1.06-1.87-1h-.14a1 1 0 0 0-.5.2c-1.85 1.4-9.68 15.43-10.47 17.05-.74 1.43-1.47 2.86-2.21 4.3-1.22 2.38-2.45 4.79-3.71 7.19-6.87 13.29-12.67 25.12-17.73 36.17-3.31 7.26-4 8.97-4.08 9.47a.67.67 0 0 0 0 .2v.07c.06.78.65 1.51 1.67 2.05.57.3 1.42.61 2.15.61h.17c.99-.07 1.15-1.13 1.2-1.53l.02-.12c.01-.08.02-.15.01-.23v-.03c.5-2.97 1.92-5.86 3.33-8.55.27-.49.54-1 .82-1.51.43-.79.87-1.61 1.35-2.46 3.56-6.95 6.87-13.19 10.94-18.7 3.36 4.78 8.52 5.5 12.34 5.23 16.21-1.13 36.71-20.5 39.16-37.02.08-.64.11-1.3.13-1.9zM239.65 50c1.22-2.41 2.42-4.75 3.62-7.02-.17.62-.3 1.3-.4 1.98l-.02.1c-1 1.56-2.08 3.22-3.2 4.94zm35.21-38.78c.2-.14.39-.27.58-.4.47-.32.91-.63 1.33-.95 2.72-1.88 5.06-3.51 8.48-3.75 1.93-.13 3.49.34 4.65 1.42 1.41 1.3 2.21 3.48 2.24 6.17.02.37 0 .84-.03 1.29-.01.24-.03.48-.04.71-2.31 15.98-21.29 34.02-36.95 35.11-2.95.2-5.32-.35-6.67-1.57-.91-.82-1.4-1.96-1.46-3.41v-.03c-.02-.22 0-.56.04-1.03.25-.56 1.73-2.66 2.53-3.81l.34-.49c6.55-9.14 18.5-25.08 24.96-29.28v.02zM331.98 41.42s.07-.03.11-.05c1.26-.72 3.42-2.09 3.8-2.52.16-.19.24-.43.23-.68v-.07c-.06-.79-.72-1.59-1.62-1.54-.17.01-.39.03-1.58.83-.49.36-1.14.74-1.43.91-.08.05-.17.1-.26.15-.23.13-.47.26-.66.41-.09.06-.25.16-.45.27-.24.14-.52.3-.76.47-.44.23-1.15.64-1.53.94-1.43.94-6.59 3.59-7.97 4.09l-1.26.45s-.06.02-.09.04c-.27.13-.69.26-.78.27-.42.03-1.25.31-1.51.41-.18.03-.34.07-.47.09-.29.06-.49.1-.76.12-1.52.11-2.49-.1-2.99-.61-.45-.47-.61-1.35-.47-2.58.2-1.34.53-2.63.96-3.73.01-.03.02-.07.03-.11.12-.46.34-1.51.44-2.25.06-.36.05-.71.04-.88 0-.06-.01-.12-.03-.17-.19-.69-1.04-1.52-1.46-1.8-.06-.04-.12-.07-.18-.1-.33-.13-.77-.18-1.28-.15-.73.05-.96.15-1.51.44-.1.05-.22.12-.37.19-.02 0-.04.02-.06.03-.19.11-.39.23-.53.31-.57-.41-1.43-.92-2.52-.84-1.5.1-3.4 1.44-4.3 2.37-.32.28-.83.8-1.17 1.18-.84.81-2.31 2.57-2.81 3.31-.05.07-.09.16-.11.24-.04.12-.27.43-.4.61-.09.12-.17.23-.22.3-.59.77-1.65 2.63-1.91 3.35-.1.24-.28.68-.38.85a.37.37 0 0 0-.05.11c-.23.55-.46 1.59-.51 2.06-.07.56.18 1.16.71 1.73.5.53 1.34 1.12 2.15 1.12h.11c.75-.05 1.51-.66 2.49-1.61.86-.82 1.17-1.18 3.52-4.35 1.26-1.67 2.35-3.08 3.07-3.99.43-.55 1.04-1.1 1.36-1.36.03.01.06.03.09.04.2.08.49.21.86.18.64-.05 1.07-.47 1.35-.98v.04c-.12.31-.2.79-.35 1.78l-.08.55c-.07.35-.12.67-.16.93-.02.12-.03.23-.06.38-.22 1.82.25 3.4 1.37 4.57 1.27 1.33 3.28 2.01 5.51 1.86.5-.04.85-.07 1.13-.19.25-.08.54-.14.63-.15 2.74-.19 11.56-4.91 14.21-6.73.18-.14.58-.4.88-.52l-.01-.02z" class="st0"/><path d="M357.34 16.88c5.24-.69 9.82-1.19 14.04-1.55 1.52-.18 4.58-.39 7.54-.6h.1c2.81-.2 5.7-.41 6.47-.39h.09c.71-.05 1.32-.03 1.49 0 .51.15 1.08.18 2.66.15l1.14-.08c.25-.02.48-.13.64-.32l.17-.2c.53-.53.6-1.31.65-1.83v-.11c.02-.05.02-.1.01-.15-.05-.72-.54-1.27-1.24-1.39-.05 0-.11-.01-.16-.01a2.3 2.3 0 0 0-.57-.03c-.89.06-2.35.31-2.93.55-.4.18-1.35.25-8.79.77-1.96.17-4 .33-5.82.47-2.51.2-4.5.35-5.37.46-2.46.29-3.3.37-3.58.39-.99.07-4.07.44-6.1.71l-.3.02c.2-.31.45-.69.72-1.07.12-.15.34-.44.6-.79.22-.3.47-.64.71-.95.02-.02.03-.04.05-.06.38-.58.88-1.32 1.28-1.86l.56-.81c.85-1.21 1.18-1.68 1.53-2.3.11-.16.25-.38.4-.61.2-.32.42-.66.58-.88.37-.47 1.25-1.67 1.34-2.57v-.15c-.06-.86-.92-1.57-1.65-1.66-.06 0-.12-.01-.18 0h-.07c-.1.01-.2.03-.29.07-.28.12-.86.36-3.52 3.67-.37.5-.95 1.24-1.33 1.68-.02.02-.03.04-.05.06-.49.66-.87 1.15-1.07 1.38-.05.06-.09.12-.13.19-.08.16-.22.35-.34.52-.09.12-.17.24-.23.34-.2.25-.47.66-.58.82-.11.13-.25.33-.47.65-.25.36-.56.8-.88 1.21-.73.95-1.18 1.58-1.62 2.18-.2.27-.39.55-.61.85-.02.02-.03.05-.05.07-.36.59-.72.79-.83.82-.39.09-2.59.45-3.25.5-.47.03-1.94.24-2.52.32-3.08.36-4.93.56-6.49.67a59.6 59.6 0 0 1-3.03.11l-.81.02c-.56-.03-1.15 0-1.44.03h-.21c-.18.03-.36.09-.51.21-.35.27-.79.86-.86 1.61V18.3c.06.68.17 2.51 2.04 2.37h.14c.34-.03.92-.15 1.3-.25.2-.02.43-.07.67-.11.27-.05.57-.11.79-.13.04 0 .09 0 .13-.02.24-.05.56-.11.88-.16.35-.06.7-.12.97-.18.77-.18 1.41-.3 1.76-.32.04 0 .08 0 .11-.02.2-.04.43-.08.67-.12.41-.07.8-.14 1.07-.21.49-.04 1.24-.17 1.81-.28.47-.1 1.2-.22 1.5-.24.05 0 .1-.01.15-.02.33-.08.99-.19 1.64-.29l.61-.1c.29-.05.54-.09.76-.13-.04.06-.08.11-.11.15-.02.02-.03.04-.04.07-.36.6-.68 1.04-1.12 1.66l-.27.38-.07.11c-.1.2-.32.51-.49.76-.09.13-.17.25-.22.33-.18.27-.4.6-.58.89l-.21.33s-.03.06-.05.09c-.09.18-.2.35-.29.5-.07.12-.14.23-.19.32-.63.85-1.05 1.48-1.49 2.16-.14.22-.29.44-.44.68-.01.02-.02.04-.03.05-.35.62-.83 1.38-1.03 1.7-.19.23-.36.54-.55.9-.07.13-.14.26-.23.42-.13.25-.33.59-.47.83l-.12.21c-.4.58-2.09 3.35-2.55 4.27-.02.04-.04.08-.05.13-.07.21-.38.71-.6 1.08l-.15.25c-.31.54-.48.84-.57 1.03-.07.11-.15.28-.32.6-.11.22-.24.48-.37.72-.7 1.11-1.48 2.67-2.03 3.8-.16.25-.3.52-.36.64-.05.08-.1.17-.16.28-.05.1-.12.24-.21.38-.03.05-.06.1-.08.15-.1.24-.39.79-.55 1.04-.02.03-.03.05-.05.08-.07.14-.16.3-.25.46-.16.29-.32.57-.41.79-.08.18-.26.55-.44.92l-.27.54c-.34.56-.66 1.24-.8 1.57 0 .02-.02.05-.03.07-.07.21-.37.79-.61 1.26l-.27.53-.03.06c-.2.47-.43.92-.58 1.21-.09.17-.15.29-.17.35-.04.09-.06.19-.07.29 0 .02-.02.04-.02.05-.09.11-.16.24-.2.38-.04.15-.2.62-.4 1.1-.15.44-.38.91-.49 1.1-.02.03-.03.07-.05.1-.14.33-.23.59-.28.79 0 .02-.01.05-.02.07-.03.19-.1.36-.09.36-.04.05-.07.1-.11.15-.07.13-.14.27-.22.42-.05.11-.11.22-.16.32-.03.05-.05.1-.07.16-.14.39-.48 1.61-.85 2.92l-.2.71-.03.14c-.04.28-.18.84-.29 1.18-.2.48-.31.85-.28 1.26 0 .11.04.27.08.43.01.06.03.11.03.13.02.25.14.49.33.65.1.09.34.29.69.41.28.15.6.28.87.34.21.05.49.13.84.13h.18c1.01-.07 1.68-.67 1.75-1.57v-.14c-.01-.14-.03-.35-.11-.58l-.08-1.14c-.02-1.34.27-3.37.77-4.33.03-.07.06-.13.08-.21l.06-.21c.07-.23.14-.5.18-.73v-.07c.03-.29.34-1.16.5-1.39.04-.05.07-.11.09-.17l.17-.4c.73-1.71.87-2.07.92-2.24 0-.04.02-.07.02-.11.02-.07.08-.22.16-.35.23-.36.37-.6.43-.83.16-.36.71-1.6.88-1.91.22-.34.49-.9 1.48-3.12l.24-.43c.17-.32.35-.63.47-.82.03-.05.06-.1.08-.15.04-.1.11-.22.18-.36.13-.26.28-.54.38-.82.2-.39.67-1.21 1.09-1.9l.03-.06c.14-.28.31-.57.46-.85.29-.52.48-.86.58-1.15.58-1.17.8-1.42.84-1.45a.82.82 0 0 0 .17-.2l.08-.13c.29-.45 1.08-1.65 2.07-3.28.22-.38.7-1.08 1.04-1.56.4-.54.67-.93.67-.93.04-.06.07-.12.1-.19.12-.21.62-.95.92-1.37.02-.03.04-.05.05-.08.12-.21.56-.88.89-1.4.34-.56.75-1.15.88-1.3.23-.26.56-.72.79-1.14.17-.21.36-.49.57-.81.17-.25.34-.51.54-.79.15-.24.34-.51.52-.76.27-.38.51-.72.66-.99.12-.17.28-.39.43-.6.19-.26.38-.51.49-.68 1.26-1.68 1.86-2.53 2.37-3.34 1.04-1.51 2.35-2.35 3.94-2.51z" class="st0"/><path d="M363.57 25.07c-.06.71.07 2.29.84 3.1.32.33.73.51 1.16.51h.11c.57-.04 1.12-.55 1.29-1.16.06-.14.2-.4.3-.58.18-.32.31-.6.31-.9.02-.81-.6-1.5-.87-1.76-.55-.53-1.18-.82-1.75-.78-.84.06-1.39.86-1.39 1.58v-.01zM490.82 22.61c-.46-.45-1.26-.96-1.99-.91-1.05.07-3.49 1.66-3.73 1.83-.02.01-.04.03-.06.05-.08.07-.19.15-.31.25.22-.32.45-.67.6-.93.14-.24.32-.51.47-.73.11-.16.2-.3.27-.41.47-.62.73-1.09.83-1.48.02-.1.03-.2.03-.3-.03-.43-.29-.76-.52-1.06-.04-.05-.08-.09-.12-.13-.04-.03-.08-.08-.13-.13-.25-.24-.44-.42-.66-.53-.32-.18-.68-.38-1.09-.35-.79.06-1.31.78-1.86 1.66l-.03.06c-.2.38-.48.78-.69 1.08-.09.14-.18.25-.24.35-.19.3-.59.92-.86 1.39l-.03.06c-.22.45-.83 1.46-1.34 2.19-.03.04-.05.08-.07.13l-.22.47c-.11.17-.22.33-.31.47-.19.29-.32.48-.41.65-.14.2-.34.51-.5.82l-.2.31c-.08.14-.16.29-.24.43-.06-.19-.14-.38-.22-.52a.794.794 0 0 0-.19-.22c-.27-.24-.53-.34-.71-.42a.908.908 0 0 0-.43-.07h-.06c-.81.06-3.53 1.5-3.87 1.73-.21.12-.56.27-.79.34-.05.02-.09.03-.14.06l-.4.2c-.83.42-2.56 1.28-3.72 1.97-.48.28-.83.46-.91.49 0 0 .09-.04.21-.05-.49.04-3.11 1.43-3.12 1.44-3.76 1.93-5.96 2.96-6.71 3.3-.46.19-1.22.53-1.84.86h-.02c-.4.17-.94.4-1.11.45-.14.03-.29.09-.61.21-.14.05-.31.12-.48.18-.04.01-.07.03-.11.05-.39.2-1.04.38-1.35.47-.05.01-.11.03-.16.06-.13.06-.28.11-.43.16-.23.08-.47.16-.68.27-.97.37-2.14.59-3.76.7-1.33.09-1.66.11-1.99.04-.5-.13-.7-.32-.71-.33-.02-.07-.05-.36.03-.7 0-.04.01-.08.02-.13.04-.53.13-1.03.25-1.3l.07-.18c.59-1.58 1.11-2.62 1.54-3.08.02-.02.05-.03.07-.05.11.02.27.04.47.02l.42-.03c2.42-.17 8.03-4.18 8.43-7.05 0-.07.01-.13 0-.2v-.14c-.04-.46-.19-.94-.42-1.32l-.06-.09c-.07-.09-.17-.21-.27-.33-.09-.11-.18-.21-.22-.26a.898.898 0 0 0-.34-.33c-.4-.23-.79-.32-1.26-.29-2.71.19-6.41 3.8-8.74 6.64.03-.1.04-.2.04-.31-.04-.55-.46-.97-.64-1.12a.91.91 0 0 0-.67-.22h-.14c-.21.02-.36.09-.56.18-.09.04-.2.09-.36.16a.3.3 0 0 0-.08.04c-2.09 1.1-4.78 2.02-7.61 2.61l-1.13.28c-.11.01-.23.03-.38.06-.16.03-.35.06-.52.07-.05 0-.1.01-.15.02-.86.21-2.32.52-2.89.63-.71.17-1.37.31-1.87.4 2.51-4.24 3.74-7.29 3.76-9.33V23.66s-.01-.05-.02-.07c-.16-1.05-.89-2.46-1.86-2.92-.3-.12-.73-.19-1.08-.17-.68.05-1.54.37-2.87 1.06-5.64 2.95-10.71 7.16-15.33 11.25-.24.2-.51.43-.75.64-.2.17-.37.32-.48.41-.3.19-.65.52-1.13.98l-.07.07c-.38.26-.85.65-1.42 1.17-.41.3-1.21 1-1.87 1.68l-1.41 1.26c-.79.71-1.33 1.19-1.5 1.32-.06.04-.12.08-.18.13-.02.01-.38.35-.74.76-.39.45-1.29 1.25-1.92 1.78-.63-1.6-2.08-2.22-3.44-2.62-.03 0-.05-.01-.08-.02-.22-.04-.42-.09-.63-.14-.54-.12-1.16-.26-2.19-.4-.68-.09-1.25-.26-1.59-.39.29-.92 2.53-3.56 7-7.02 3.51-2.72 6.95-4.82 8.97-5.51-.13.26-.2.53-.18.84.01.16.05.31.08.43 0 .03.02.07.02.07.01.14.05.28.13.41.16.27.56.99 1.4.92 1.46-.1 3.78-2.83 3.77-4.49v-.07c-.01-.12-.04-.3-.08-.49-.03-.15-.06-.3-.06-.43 0-.07-.02-.14-.04-.21l-.28-.9c-.41-1.38-1.49-1.49-2.37-1.42-4.85.34-15.36 8.56-18.68 12.61-.02.03-.04.05-.06.08-.11-.32-.33-.61-.64-.81-.33-.22-.73-.33-1.12-.3-.23.02-.61.09-1.46.53-.3.15-.58.28-.85.42-.66.33-1.23.61-1.9.89-.35.13-1 .43-1.83.81-.45.21-.94.44-1.41.65-.76.33-1.5.67-2.06.94-.35.16-.75.35-.84.39-.02 0-.04.02-.07.02-.22.09-.58.26-.89.44l-.6.25c-.56.26-1.14.53-1.72.81-.56.27-1.13.54-1.64.77-.31.13-.66.29-.98.44-.25.12-.59.27-.69.3a.37.37 0 0 0-.11.05c-.13.06-.34.16-.59.27-.39.17-.86.38-1.31.6-.6.32-1.31.63-1.52.7-.02 0-.1.04-.12.05-.22.09-.59.25-.91.4-.11.04-.23.08-.34.13-.08.03-.15.06-.21.08-.16.02-.35.08-.78.22-.22.07-.57.21-.83.33-.21.04-.58.14-1.26.39-1.03.33-2.07.55-3.02.61-.58.04-1.3.09-1.59-.18l.08-.66c.34-2.54 2.48-6.23 4.21-8.61l.32-.45c.47-.64.72-1 .69-1.5l-.02-.28c0-.15-.05-.29-.13-.41-.12-.2-.32-.41-.73-.76a.793.793 0 0 0-.25-.15c-.49-.21-.82-.33-1.16-.31-2.55.18-6.26 9.68-6.45 10.82v.06c-.08.88-.09 1.24.06 1.76.01.04.02.08.04.11.05.12.1.29.15.46l.07.24c.4 2.14 3.29 2.92 5.06 2.92.13 0 .25 0 .36-.01 2.1-.15 4.86-1 8.19-2.55.48-.17.91-.36 1.21-.48l.22-.09c.04-.01.07-.02.11-.04 0 0 .4-.17.87-.34.04-.01.07-.03.11-.05.45-.23 1.03-.47 1.25-.54.03 0 .06-.02.09-.03l.48-.21c.64-.28 1.3-.57 1.89-.89l.24-.12c.32-.15.67-.32.92-.46.47-.17.86-.32 3.02-1.38.32-.17.65-.32.93-.44.26-.11.47-.21.63-.3.2-.09.5-.23.69-.33.24-.1.59-.27.84-.42.16-.08.4-.2.74-.36.68-.34 1.75-.86 3.3-1.65 1.14-.63 1.34-.65 1.49-.66.09 0 .18-.03.26-.05-.6.9-1.07 1.95-1.05 3.17 0 1.35.7 3.05 4.1 3.48l.46.08c.3.05.81.13.94.18.06.03.13.05.2.06.24.04.68.1.97.1.49.08 1.36.62 1.61.91 0 .71-.74 1.61-1.49 2.15-.04.03-3.8 3.03-3.81 4.83-.04.61.18 1.67.78 2.2.18.16.49.42.91.42h.07c1.7-.12 5.63-4.43 5.97-6.15.04-.09.14-.28.28-.49.19-.33.8-.92 3.12-3.11.84-.84 1.7-1.65 2.32-2.24.56-.53.87-.82 1.02-.99.92-.81 3.61-3.24 4.53-4.07l.59-.51c.41-.35.82-.7 1.05-.91.3-.27 1.02-.88 1.54-1.26.02-.02.04-.03.06-.05l.79-.69c.38-.32.71-.6 1.01-.85.42-.36.77-.66 1.13-.93.02-.02.04-.03.06-.05.29-.27.86-.71 1.23-.97.2-.15.38-.31.54-.43.11-.1.21-.18.25-.21.03-.02.07-.04.1-.07l.16-.13c.16-.13.34-.27.49-.36.03-.02.07-.04.1-.06l.36-.28c.45-.34 1.11-.84 2.04-1.58l.28-.2c.16-.11.43-.31.5-.34a.72.72 0 0 0 .21-.12c.24-.18.47-.33.54-.36.06-.03.12-.06.18-.1 1.02-.71 3.85-2.25 5.13-2.61-.08.35-.26.9-.56 1.53-1.35 2.87-3.01 5.67-5.2 8.78l-.39.51-.61.3c-.23.09-.49.18-.71.26-.19.07-.35.12-.42.15-2.32.88-6.87 4.04-8.41 6.61-.12.22-.28.45-.35.52-.02.02-.03.04-.04.06-.48.65-1.15 2.19-1.08 3.11.01.19.03.5.21.8.58 1.1 1.59 1.74 2.62 1.66 4.1-.29 11.07-9.95 11.35-10.34.47-.63 1.17-1.05 2.08-1.27l.23-.05c1.08-.26 1.62-.39 5.41-1.13l.82-.2c1.41-.33 1.92-.46 2.13-.55.1-.04.49-.13.72-.18l.22-.05c.06-.01 5.69-1.59 7.64-2.94-.47.62-.86 1.18-1.12 1.61-.76 1.34-1.24 2.71-1.37 3.94-.26 2.14.53 3.47 1.23 4.21 1.01 1.06 2.56 1.64 4.32 1.64.19 0 .38 0 .57-.02.98-.07 2.44-.23 3.35-.46.03 0 .06-.02.09-.03.46-.17 1.03-.32 1.15-.33.04 0 .09 0 .13-.02.62-.13 3.64-1.37 4.5-1.79.17-.07.36-.16.53-.24.18-.08.36-.17.49-.22.24-.05.52-.18 1.01-.41.23-.11.48-.23.71-.32a.3.3 0 0 0 .08-.04c.33-.17.67-.35.94-.48.17-.09.31-.16.41-.21.38-.12.84-.39 1.21-.63.44-.21 1.09-.55 1.66-.86l.5-.27c.66-.32 1.56-.78 2.07-1.04l.09-.05c.19-.1.37-.2.52-.28.12-.06.22-.12.29-.15.2-.06.42-.18.83-.42.02-.01.04-.03.06-.04.13-.09.45-.26.73-.4.29-.15.6-.31.86-.46.52-.31 1.62-.88 2.45-1.3.58-.32 1.17-.59 1.38-.68.2-.06.43-.2.89-.47 1.48-.79 2.57-1.33 3.07-1.43.04 0 .08-.02.12-.03.08-.03.17-.06.26-.09-1.31 2.34-2.63 4.73-3.89 7.2l-.25.51c-.27.47-.56 1.01-.52 1.58.06.89 1.41 1.59 1.41 1.6.03.01.05.02.07.03.11.06.31.16.58.16h.08c.32-.02.62-.2.81-.38.44-.32.67-.62 1.49-1.7 1.81-2.58 3.1-4.34 3.93-5.36.45-.52.88-1.02 1.11-1.44 1.16-1.4 2.58-3.12 4-4.23a.12.12 0 0 0 .05-.05c.23-.21.52-.46.77-.67l.29-.25c.12-.1.23-.18.29-.22.18-.06.33-.16.5-.28.11-.08.26-.18.46-.3.12-.07.28-.16.41-.24l.25.22c.49.49.82.82 1.46.77 1.01-.07 1.63-1.12 1.77-2.07a.67.67 0 0 0 0-.2l-.02-.24c0-.47-.23-.94-.68-1.38l.07-.02zm-77.4 20.52c.8-.94 1.86-2 2.86-2.85-.89.96-1.95 2.02-2.86 2.85zM509.45 18.63h.11c.57-.04 1.12-.55 1.29-1.16.06-.14.2-.4.3-.58.18-.32.31-.6.31-.9.02-.81-.6-1.5-.87-1.76-.55-.53-1.18-.82-1.75-.78-.84.06-1.39.86-1.39 1.58-.06.71.07 2.29.84 3.1.32.33.73.51 1.16.51v-.01zM566.99 21.05a1.01 1.01 0 0 0-.19-.23c-.27-.24-.53-.34-.7-.41a.908.908 0 0 0-.43-.07h-.06c-.81.06-3.53 1.5-3.87 1.73-.21.12-.56.27-.79.34-.05.02-.09.03-.14.06l-.4.2c-.83.42-2.56 1.28-3.72 1.97-.48.28-.83.46-.92.5 0 0 .09-.03.22-.05-.51.05-3.11 1.43-3.12 1.44-3.75 1.93-5.96 2.96-6.71 3.3-.47.19-1.24.54-1.83.85-.41.17-.97.4-1.14.46-.13.03-.29.09-.61.21-.14.05-.31.12-.48.18-.04.01-.07.03-.11.05-.39.2-1.03.38-1.35.47-.05.01-.11.03-.16.06-.13.06-.28.11-.43.16-.23.08-.47.16-.68.27-.97.37-2.14.59-3.76.7-1.33.09-1.66.11-1.99.04-.5-.13-.7-.32-.71-.33-.02-.07-.05-.36.03-.69 0-.04.01-.08.02-.12.04-.53.13-1.03.25-1.3l.07-.18c.59-1.58 1.11-2.62 1.54-3.08.02-.02.05-.03.07-.04.11.02.27.04.47.02l.43-.03c2.42-.17 8.03-4.18 8.43-7.05 0-.07.01-.13 0-.2v-.14c-.04-.46-.19-.94-.42-1.32l-.06-.09c-.07-.09-.17-.21-.27-.33-.09-.11-.18-.21-.22-.26a.898.898 0 0 0-.34-.33c-.4-.23-.79-.32-1.26-.28-2.73.19-6.47 3.85-8.79 6.71-.11-.32-.33-.6-.64-.81-.33-.22-.74-.33-1.12-.3-.23.02-.61.09-1.45.53-.3.15-.58.28-.85.42-.66.33-1.23.61-1.9.89-.35.13-1 .43-1.83.81-.45.21-.94.44-1.41.65-.76.33-1.5.67-2.06.94-.35.16-.75.35-.84.38-.02 0-.05.02-.07.02-.22.09-.58.26-.89.44l-.6.25c-.56.26-1.14.53-1.72.81-.56.27-1.13.54-1.65.78-.3.13-.66.29-.97.43-.25.12-.6.28-.69.31a.37.37 0 0 0-.11.05c-.13.06-.35.16-.59.26-.39.17-.86.38-1.31.6-.6.32-1.31.63-1.51.7-.02 0-.05.02-.07.03l-.06.03c-.22.09-.58.24-.9.39-.11.04-.23.09-.34.13-.08.03-.15.06-.21.08-.16.02-.35.08-.78.22-.22.07-.57.21-.83.33-.21.04-.58.14-1.26.39-1.03.33-2.07.55-3.02.61-.58.04-1.29.09-1.59-.18l.08-.66c.34-2.55 2.48-6.23 4.21-8.61l.32-.45c.46-.64.72-.99.68-1.5l-.02-.28c0-.14-.05-.28-.13-.41-.13-.23-.37-.45-.73-.77a.793.793 0 0 0-.25-.15c-.49-.21-.81-.33-1.16-.31-2.55.18-6.26 9.68-6.45 10.82v.06c-.08.88-.09 1.24.06 1.76.01.04.02.08.04.11.05.12.1.29.15.47l.07.23c.4 2.14 3.29 2.92 5.05 2.92.13 0 .25 0 .36-.01 2.1-.15 4.86-1 8.19-2.55.48-.17.91-.35 1.2-.48l.22-.09c.04 0 .07-.02.11-.04 0 0 .4-.17.87-.34.04-.01.07-.03.11-.05.45-.23 1.03-.47 1.25-.54.03 0 .06-.02.09-.03l.48-.21c.64-.28 1.3-.57 1.89-.89l.24-.11c.32-.15.67-.32.92-.46.47-.17.86-.32 3.02-1.38.31-.17.65-.32.93-.44.26-.12.47-.21.64-.3.21-.09.5-.23.69-.33.24-.1.59-.27.84-.42.16-.08.4-.2.74-.36.68-.34 1.75-.86 3.3-1.65 1.14-.63 1.34-.65 1.49-.66.09 0 .17-.03.25-.05-.11.16-.2.31-.29.45-.76 1.34-1.24 2.71-1.37 3.94-.26 2.14.53 3.47 1.23 4.21 1.01 1.06 2.56 1.64 4.32 1.64.19 0 .38 0 .57-.02.98-.07 2.44-.23 3.35-.46.03 0 .06-.02.09-.03.46-.17 1.03-.32 1.15-.33.04 0 .09 0 .13-.02.62-.13 3.64-1.37 4.5-1.79.17-.07.36-.16.53-.24.18-.08.36-.17.49-.22.24-.05.52-.18 1.01-.41.23-.11.48-.23.71-.32a.3.3 0 0 0 .08-.04l.95-.49c.17-.08.31-.16.41-.21.38-.12.84-.39 1.22-.63.44-.21 1.08-.55 1.65-.86l.51-.27c.67-.32 1.6-.8 2.16-1.09.19-.1.37-.2.53-.28.12-.06.21-.12.28-.15.2-.06.42-.18.83-.42.02-.01.04-.03.06-.04.13-.09.45-.26.73-.4.29-.15.6-.31.86-.46.53-.31 1.62-.88 2.45-1.3.59-.32 1.19-.6 1.39-.69.2-.06.43-.2.89-.47 1.48-.79 2.57-1.33 3.07-1.43.04 0 .09-.02.12-.03.31-.1.72-.24.97-.52.33-.29.36-.64.35-.83-.02-.29-.16-.71-.31-.97l.03-.04z" class="st0"/></g></svg>