<?xml version="1.0" encoding="utf-8"?>
<!-- Generator: Adobe Illustrator 27.9.1, SVG Export Plug-In . SVG Version: 6.00 Build 0)  -->
<svg version="1.1" id="_レイヤー_2" xmlns="http://www.w3.org/2000/svg" xmlns:xlink="http://www.w3.org/1999/xlink" x="0px"
	 y="0px" viewBox="0 0 567.3 98.19" style="enable-background:new 0 0 567.3 98.19;" xml:space="preserve">
<style type="text/css">
	.st0{fill:#FFFFFF;}
</style>
<g id="_1">
	<g>
		<path class="st0" d="M99.21,20.8c0-0.07,0.01-0.13,0-0.2l-0.02-0.23c-0.01-0.92-0.43-1.85-1.12-2.48
			c-0.61-0.56-1.36-0.84-2.12-0.78c-1.55,0.11-3.33,1.18-4.85,2.15l-0.32,0.19c-0.31,0.19-0.62,0.38-0.87,0.48
			c-0.04,0.02-0.08,0.03-0.11,0.05C79.42,26,61.28,46.57,53.42,56.78c3.6-6.24,10.06-18.47,9.97-22.68c0-1.21-0.42-2.23-1.2-2.95
			c-0.91-0.85-2.26-1.24-3.88-1.12c-7.1,0.5-23.97,18.02-27.68,22.5l-0.62,0.86l-0.3,0.37c-0.37,0.46-0.76,0.94-1.15,1.42
			c0.86-1.43,1.76-2.83,2.66-4.2c1.65-2.66,3.26-5.36,4.81-7.97l0.07-0.12c1.94-3.28,3.94-6.68,6.13-9.81
			c2.69-3.84,4.81-7.27,6.3-10.2c0.11-0.22,0.13-0.48,0.06-0.71c-0.35-1.07-1.58-2.6-3.08-2.5c-0.62,0.04-1.15,0.08-5.41,7.58
			c-2.13,3.75-4.18,7.61-4.64,8.61c-2.28,4.77-5.16,9.76-8.41,15.34c-0.43,0.77-0.86,1.53-1.29,2.28c-0.65,1.14-1.28,2.26-1.89,3.37
			c-4.58,8.03-9.52,16.54-15.02,24.4c-0.39,0.5-4.07,6.41-4.65,7.79l0,0c-1.03,2.19-2.07,3.84-3.17,5.05
			C0.84,94.27,0.1,95.03,0,95.82c0,0.06,0,0.12,0,0.18v0.14c0.06,0.66,0.52,1.24,1.32,1.63c0.5,0.24,1.08,0.39,1.55,0.39
			c0.05,0,0.1,0,0.15,0c0.57-0.04,1.51-0.11,4.5-6.49c0.08-0.16,0.16-0.33,0.22-0.47c0.05-0.11,0.08-0.2,0.09-0.23
			c0.05-0.05,0.09-0.11,0.12-0.18c2.41-4.6,5.21-9.09,7.91-13.42l0.75-1.21c1.45-2.31,3.03-4.78,4.81-7.13
			c9.27-12.17,21.23-26.95,31.57-33.23l0.42-0.25c1.18-0.72,4.31-2.63,6.17-2.76c0.06,0,0.11,0,0.15,0c0,0.03,0,0.06,0,0.1
			c0,0.03,0,0.07,0,0.11c0,0.05,0,0.1,0,0.14c-0.02,0.06-0.03,0.13-0.04,0.19c-0.64,5.5-7.48,17.35-12.97,26.87l-0.21,0.37
			c-4.72,8.1-8.1,14.05-8.48,16.56c-0.09,0.28-0.08,0.48-0.07,0.59c0,0.86,0.36,1.7,0.97,2.26c0.53,0.49,1.2,0.74,1.89,0.68
			c0.42-0.03,0.84-0.27,1.24-0.7c0.14-0.05,0.26-0.14,0.36-0.25c0.42-0.48,2.39-3.99,3.29-5.66c0.48-0.82,0.92-1.6,1.29-2.24
			c0.36-0.64,0.65-1.14,0.79-1.36c7-10.36,37.76-48.22,48.22-50.3c-0.49,2.1-2.76,6.46-4.44,9.7l-0.74,1.38
			c-0.37,0.68-0.69,1.28-0.94,1.78c-2.49,5.16-5.17,10.35-7.77,15.39l-0.39,0.74c-5.14,9.82-10.46,19.98-14.36,30.49L67.23,80
			c-1.12,2.93-2.28,5.96-2.64,8.98c0,0.06,0,0.12,0,0.17v0.05c-0.09,0.73-0.18,1.47-0.13,2.13c0.02,1.07,0.31,1.85,0.89,2.38
			c0.62,0.56,1.5,0.8,2.7,0.71c0.82-0.06,1.22-0.67,1.46-1.05c0.11-0.17,0.16-0.37,0.15-0.57c-0.02-0.26-0.06-0.48-0.1-0.65
			c-0.02-0.08-0.03-0.14-0.04-0.2c0-0.05-0.01-0.09-0.02-0.14l-0.07-0.33c-0.17-0.73-0.3-1.3-0.29-2.03
			c-0.19-9.6,15.9-40.62,21.55-50.74c2.8-5.04,8.02-14.42,8.53-17.93L99.21,20.8z"/>
		<path class="st0" d="M195.65,46.75c-0.27-0.24-0.54-0.35-0.71-0.42c-0.13-0.05-0.27-0.08-0.42-0.07h-0.07
			c-0.81,0.06-3.53,1.5-3.87,1.73c-0.21,0.12-0.56,0.27-0.79,0.34c-0.05,0.02-0.09,0.03-0.14,0.06l-0.4,0.2
			c-0.83,0.42-2.56,1.28-3.72,1.97c-0.48,0.28-0.83,0.46-0.92,0.5c0,0,0.09-0.03,0.22-0.05c-0.51,0.05-3.11,1.43-3.12,1.44
			c-3.89,2-6.14,3.04-6.71,3.3c-0.46,0.19-1.22,0.53-1.84,0.86h-0.02c-0.4,0.17-0.94,0.4-1.11,0.46c-0.14,0.03-0.3,0.09-0.61,0.21
			c-0.14,0.05-0.31,0.12-0.48,0.18c-0.04,0.01-0.07,0.03-0.11,0.05c-0.39,0.2-1.04,0.38-1.36,0.47c-0.05,0.01-0.11,0.03-0.16,0.06
			c-0.13,0.06-0.28,0.11-0.43,0.16c-0.23,0.08-0.47,0.16-0.68,0.27c-0.97,0.37-2.14,0.59-3.76,0.7c-1.33,0.09-1.66,0.11-1.99,0.04
			c-0.5-0.13-0.7-0.32-0.71-0.33c-0.02-0.07-0.05-0.36,0.03-0.7c0-0.04,0.01-0.08,0.02-0.13c0.04-0.53,0.13-1.03,0.25-1.3l0.07-0.18
			c0.59-1.58,1.11-2.62,1.54-3.08c0.02-0.02,0.05-0.03,0.07-0.05c0.11,0.02,0.27,0.04,0.47,0.02l0.42-0.03
			c2.42-0.17,8.03-4.18,8.43-7.05c0-0.07,0.01-0.13,0-0.2v-0.14c-0.04-0.46-0.19-0.94-0.42-1.32c-0.02-0.03-0.04-0.06-0.06-0.09
			c-0.07-0.09-0.17-0.21-0.27-0.33c-0.09-0.11-0.18-0.21-0.22-0.26c-0.08-0.14-0.2-0.25-0.34-0.33c-0.4-0.23-0.79-0.31-1.26-0.28
			c-2.87,0.2-6.86,4.25-9.15,7.15l0,0c0-0.1-0.03-0.2-0.07-0.29c-0.26-0.64-0.79-1-1.39-0.97l-0.28,0.02c0,0-0.08,0-0.11,0.02
			c-3.11,0.61-13.15,6.76-15.59,8.37c-0.88,0.63-1.56,1.11-4.3,3.02c-0.52,0.38-1.09,0.82-1.41,1.08c-0.49-1.08-1.59-2.56-2.95-2.76
			c-0.07,0-0.09-0.01-0.16,0c-0.05,0-0.22-0.04-0.46-0.14c-0.27-0.14-0.68-0.22-1.57-0.39c-0.2-0.04-0.4-0.08-0.59-0.11
			c-1.3-0.28-1.83-0.47-2.04-0.59c0.38-1.11,3.34-4.23,5.2-5.77l0.24-0.21c2.89-2.29,7.48-5.39,9.95-6.33
			c-0.13,0.31-0.16,0.5-0.16,0.63c-0.05,0.64,0.33,1.42,0.76,1.79c0.1,0.08,0.21,0.15,0.33,0.18c0.2,0.1,0.43,0.13,0.66,0.08
			c1.64-0.41,3.31-2.61,3.47-4.04c0.17-1.17-0.16-2.41-0.85-3.15c-0.52-0.56-1.23-0.84-1.98-0.79c-4.74,0.33-15.06,8.65-17.93,12.44
			c-0.01,0.02-0.03,0.04-0.04,0.06l-0.14,0.21c0,0-0.04,0.04-0.06,0.06c-0.04-0.12-0.09-0.23-0.17-0.32
			c-0.45-0.52-0.98-0.73-1.66-0.69c-0.45,0.03-0.95,0.15-1.52,0.36c-0.03,0.01-0.06,0.02-0.09,0.04c-0.28,0.13-0.71,0.29-0.97,0.38
			c-0.95,0.28-3.43,1.25-3.84,1.49c-0.06,0.04-0.12,0.08-0.18,0.13c-0.07,0.04-0.26,0.12-0.5,0.19c-0.64,0.18-1.18,0.37-1.59,0.57
			c-0.2,0.07-0.41,0.14-0.59,0.21c-0.28,0.1-0.52,0.18-0.65,0.23c-0.18,0.08-0.57,0.24-0.87,0.32c-0.05,0.01-0.09,0.03-0.13,0.05
			c-0.62,0.28-1.8,0.71-3.26,1.11c-0.44,0.09-0.99,0.25-1.4,0.38c-0.15,0.05-0.29,0.09-0.44,0.13c-1.06,0.36-2.23,0.63-3.07,0.68
			c-0.51,0.04-0.79,0-0.92-0.04c0.19-1.05,1.58-3.51,2.83-5.41c0.34-0.41,0.48-0.88,0.53-1.07c0.02-0.1,0.03-0.2,0.03-0.29
			c-0.01-0.19-0.03-0.5-0.23-0.83c-0.04-0.06-0.08-0.12-0.13-0.17c-0.02-0.04-0.04-0.08-0.06-0.12c-0.05-0.11-0.12-0.24-0.2-0.37
			c-0.34-0.81-1.03-1.34-1.74-1.29h-0.14c-0.06,0.01-0.12,0.02-0.18,0.04c-0.52,0.14-1.11,0.6-2.59,2.51l-0.76,0.87
			c-0.37,0.35-0.82,0.87-1.16,1.26c-0.11,0.12-0.23,0.25-0.35,0.38c-0.23,0.25-0.41,0.44-0.53,0.61c-0.38,0.27-0.73,0.73-0.94,1.03
			c-0.34,0.39-1.17,1.27-1.8,1.92c-0.7,0.72-1.45,1.58-1.69,1.87c-0.02,0.03-0.04,0.05-0.06,0.08c-0.18,0.26-0.51,0.51-0.67,0.64
			c-0.05,0.04-0.08,0.06-0.12,0.11c-0.06,0.06-0.16,0.14-0.28,0.22c-0.06,0.05-0.12,0.09-0.18,0.14c1.12-2.7,4.1-7.34,5.69-8.85
			c0.69-0.66,0.95-0.92,1.07-1.22c0.04-0.1,0.07-0.21,0.07-0.32c0.03-0.75-0.47-1.52-0.96-1.99c-0.52-0.51-1.12-0.77-1.66-0.73
			c-1.98,0.14-5.38,7.59-5.73,8.36c-0.04,0.08-0.09,0.16-0.13,0.24c-0.05,0.09-0.09,0.18-0.13,0.24c-0.04,0.05-0.08,0.1-0.11,0.15
			c-0.89,1.57-1.6,3.48-1.86,5.01c0,0.02,0,0.04,0,0.06c-0.11,1.15,0.35,2.57,1.66,3.17c0.23,0.1,0.45,0.12,0.63,0.12
			c0.09,0,0.16,0,0.22,0c0.37-0.03,0.79-0.17,1.21-0.41c1.38-0.89,3.38-2.93,4.83-4.5l0.29-0.34c0.16-0.15,0.3-0.31,0.43-0.46
			c0.08-0.09,0.15-0.18,0.21-0.23c0.05-0.04,0.09-0.08,0.13-0.13l0.79-0.91c0,0,0.04-0.05,0.06-0.07c0.11-0.15,0.25-0.32,0.41-0.49
			c-0.03,1.31,0.68,2.4,1.13,2.97c0.03,0.04,0.07,0.08,0.11,0.12c0.35,0.3,0.75,0.64,1.11,0.79l0.52,0.25
			c0.15,0.07,0.31,0.11,0.47,0.09l1.07-0.07c1.32-0.09,2.55-0.34,3.18-0.63c0.07-0.03,0.19-0.06,0.34-0.09
			c0.24-0.06,0.54-0.14,0.83-0.25c0.58-0.13,1.37-0.42,1.7-0.58c0.29-0.12,0.73-0.26,1.02-0.35l0.27-0.09
			c1.04-0.38,2.82-1.09,3.43-1.34c0.21-0.1,0.42-0.17,0.49-0.18c0.18-0.02,0.32-0.09,0.52-0.19c0.16-0.08,0.39-0.19,0.64-0.28
			c0.04-0.01,0.07-0.03,0.11-0.05c0.35-0.18,0.83-0.33,1.12-0.43l0.14-0.05c0,0,0.04-0.01,0.06-0.02c0.06-0.02,0.15-0.06,0.26-0.1
			c0.27-0.1,0.6-0.22,0.88-0.35c1.9-0.76,2.79-1.1,3.84-1.45c0.19-0.04,0.39-0.09,0.59-0.14c-0.53,0.81-0.87,1.56-0.96,2.44
			c-0.17,1.64,0.7,3.19,2.13,3.78c0.56,0.23,2.22,0.65,4.08,1.01c0.72,0.1,1.77,0.59,1.79,1.11l-0.13,0.5l-0.21,0.49l-0.65,0.62
			c-2.67,2.46-3.65,3.55-4.05,4.54c-0.06,0.11-0.1,0.22-0.12,0.3c-0.08,0.15-0.11,0.32-0.1,0.49c0,0.02,0.15,1.59,0.7,2.23
			c0.03,0.03,0.06,0.06,0.09,0.09c0.18,0.16,0.48,0.42,0.96,0.42c0.03,0,0.06,0,0.09,0c2.4-0.17,5.49-5.23,5.96-6.42
			c0.58-1.2,8.35-6.85,10.63-8.3c3.89-2.52,9.87-5.62,11.16-5.89c0.12-0.03,0.26-0.06,0.4-0.11c-0.17,0.25-0.32,0.47-0.44,0.67
			c-0.76,1.34-1.24,2.71-1.37,3.94c-0.26,2.14,0.53,3.47,1.23,4.21c1.01,1.06,2.56,1.64,4.32,1.64c0.19,0,0.38,0,0.57-0.02
			c0.97-0.07,2.43-0.23,3.35-0.46c0.03,0,0.06-0.02,0.09-0.03c0.46-0.17,1.03-0.32,1.15-0.33c0.04,0,0.09,0,0.13-0.02
			c0.62-0.13,3.64-1.37,4.5-1.79c0.17-0.07,0.36-0.16,0.53-0.24c0.18-0.08,0.35-0.17,0.49-0.22c0.24-0.05,0.52-0.18,1.01-0.41
			c0.23-0.11,0.48-0.23,0.71-0.32c0.03-0.01,0.05-0.02,0.08-0.04c0.33-0.18,0.68-0.35,0.96-0.49c0.16-0.08,0.3-0.15,0.4-0.21
			c0.38-0.12,0.84-0.39,1.21-0.63c0.44-0.21,1.08-0.55,1.65-0.86l0.5-0.27c0.66-0.32,1.56-0.78,2.07-1.04l0.09-0.05
			c0.19-0.1,0.37-0.2,0.52-0.28c0.12-0.06,0.22-0.12,0.29-0.15c0.2-0.06,0.42-0.18,0.83-0.42c0.02-0.01,0.04-0.03,0.06-0.04
			c0.13-0.09,0.45-0.26,0.73-0.4c0.29-0.15,0.6-0.31,0.86-0.46c0.53-0.31,1.62-0.88,2.45-1.3c0.58-0.32,1.17-0.59,1.38-0.68
			c0.2-0.06,0.43-0.2,0.89-0.47c1.48-0.79,2.57-1.33,3.07-1.43c0.04,0,0.09-0.02,0.13-0.03c0.31-0.1,0.72-0.24,0.97-0.52
			c0.33-0.29,0.36-0.64,0.35-0.83l0,0c-0.02-0.3-0.16-0.71-0.31-0.98c-0.05-0.08-0.11-0.16-0.18-0.22L195.65,46.75z"/>
		<path class="st0" d="M295.53,15.64V15.3c0,0,0.01-0.04,0.01-0.06c-0.08-4-1.55-7.67-3.92-9.84c-1.82-1.66-4.15-2.45-6.73-2.27
			c-8.39,0.59-19.63,10.81-34.36,31.27c-1.92,2.71-3.66,5.05-4.41,5.93c-0.2-0.04-0.43-0.08-0.68-0.06
			c-0.37,0.03-0.68,0.16-0.95,0.38c5.63-10.58,10.98-19.65,15.98-27.08c1.17-1.7,3.17-4.63,3.35-5.19c0.04-0.11,0.05-0.23,0.04-0.35
			V7.96c-0.06-0.78-0.65-1.53-0.91-1.81c-0.35-0.4-1.07-1.06-1.87-1h-0.14c-0.18,0.02-0.36,0.09-0.5,0.2
			c-1.85,1.4-9.68,15.43-10.47,17.05c-0.74,1.43-1.47,2.86-2.21,4.3c-1.22,2.38-2.45,4.79-3.71,7.19
			c-6.87,13.29-12.67,25.12-17.73,36.17c-3.31,7.26-4,8.97-4.08,9.47c-0.01,0.07-0.01,0.14,0,0.2v0.07
			c0.06,0.78,0.65,1.51,1.67,2.05c0.57,0.3,1.42,0.61,2.15,0.61c0.06,0,0.11,0,0.17,0c0.99-0.07,1.15-1.13,1.2-1.53l0.02-0.12
			c0.01-0.08,0.02-0.15,0.01-0.23v-0.03c0.5-2.97,1.92-5.86,3.33-8.55c0.27-0.49,0.54-1,0.82-1.51c0.43-0.79,0.87-1.61,1.35-2.46
			c3.56-6.95,6.87-13.19,10.94-18.7c3.36,4.78,8.52,5.5,12.34,5.23c16.21-1.13,36.71-20.5,39.16-37.02
			C295.48,16.9,295.51,16.24,295.53,15.64L295.53,15.64z M239.65,50c1.22-2.41,2.42-4.75,3.62-7.02c-0.17,0.62-0.3,1.3-0.4,1.98
			l-0.02,0.1C241.85,46.62,240.77,48.28,239.65,50z M274.86,11.22c0.2-0.14,0.39-0.27,0.58-0.4c0.47-0.32,0.91-0.63,1.33-0.95
			c2.72-1.88,5.06-3.51,8.48-3.75c1.93-0.13,3.49,0.34,4.65,1.42c1.41,1.3,2.21,3.48,2.24,6.17c0.02,0.37,0,0.84-0.03,1.29
			c-0.01,0.24-0.03,0.48-0.04,0.71c-2.31,15.98-21.29,34.02-36.95,35.11c-2.95,0.2-5.32-0.35-6.67-1.57
			c-0.91-0.82-1.4-1.96-1.46-3.41c0,0,0-0.02,0-0.03c-0.02-0.22,0-0.56,0.04-1.03c0.25-0.56,1.73-2.66,2.53-3.81l0.34-0.49
			c6.55-9.14,18.5-25.08,24.96-29.28L274.86,11.22z"/>
		<path class="st0" d="M331.98,41.42c0,0,0.07-0.03,0.11-0.05c1.26-0.72,3.42-2.09,3.8-2.52c0.16-0.19,0.24-0.43,0.23-0.68V38.1l0,0
			c-0.06-0.79-0.72-1.59-1.62-1.54c-0.17,0.01-0.39,0.03-1.58,0.83c-0.49,0.36-1.14,0.74-1.43,0.91c-0.08,0.05-0.17,0.1-0.26,0.15
			c-0.23,0.13-0.47,0.26-0.66,0.41c-0.09,0.06-0.25,0.16-0.45,0.27c-0.24,0.14-0.52,0.3-0.76,0.47c-0.44,0.23-1.15,0.64-1.53,0.94
			c-1.43,0.94-6.59,3.59-7.97,4.09l-1.26,0.45c0,0-0.06,0.02-0.09,0.04c-0.27,0.13-0.69,0.26-0.78,0.27
			c-0.42,0.03-1.25,0.31-1.51,0.41c-0.18,0.03-0.34,0.07-0.47,0.09c-0.29,0.06-0.49,0.1-0.76,0.12c-1.52,0.11-2.49-0.1-2.99-0.61
			c-0.45-0.47-0.61-1.35-0.47-2.58c0.2-1.34,0.53-2.63,0.96-3.73c0.01-0.03,0.02-0.07,0.03-0.11c0.12-0.46,0.34-1.51,0.44-2.25
			c0.06-0.36,0.05-0.71,0.04-0.88c0-0.06-0.01-0.12-0.03-0.17c-0.19-0.69-1.04-1.52-1.46-1.8c-0.06-0.04-0.12-0.07-0.18-0.1
			c-0.33-0.13-0.77-0.18-1.28-0.15c-0.73,0.05-0.96,0.15-1.51,0.44c-0.1,0.05-0.22,0.12-0.37,0.19c-0.02,0-0.04,0.02-0.06,0.03
			c-0.19,0.11-0.39,0.23-0.53,0.31c-0.57-0.41-1.43-0.92-2.52-0.84c-1.5,0.1-3.4,1.44-4.3,2.37c-0.32,0.28-0.83,0.8-1.17,1.18
			c-0.84,0.81-2.31,2.57-2.81,3.31c-0.05,0.07-0.09,0.16-0.11,0.24c-0.04,0.12-0.27,0.43-0.4,0.61c-0.09,0.12-0.17,0.23-0.22,0.3
			c-0.59,0.77-1.65,2.63-1.91,3.35c-0.1,0.24-0.28,0.68-0.38,0.85c-0.02,0.03-0.04,0.07-0.05,0.11c-0.23,0.55-0.46,1.59-0.51,2.06
			c-0.07,0.56,0.18,1.16,0.71,1.73c0.5,0.53,1.34,1.12,2.15,1.12c0.04,0,0.07,0,0.11,0c0.75-0.05,1.51-0.66,2.49-1.61
			c0.86-0.82,1.17-1.18,3.52-4.35c1.26-1.67,2.35-3.08,3.07-3.99c0.43-0.55,1.04-1.1,1.36-1.36c0.03,0.01,0.06,0.03,0.09,0.04
			c0.2,0.08,0.49,0.21,0.86,0.18c0.64-0.05,1.07-0.47,1.35-0.98c0,0.01,0,0.03,0,0.04c-0.12,0.31-0.2,0.79-0.35,1.78l-0.08,0.55
			c-0.07,0.35-0.12,0.67-0.16,0.93c-0.02,0.12-0.03,0.23-0.06,0.38c-0.22,1.82,0.25,3.4,1.37,4.57c1.27,1.33,3.28,2.01,5.51,1.86
			c0.5-0.04,0.85-0.07,1.13-0.19c0.25-0.08,0.54-0.14,0.63-0.15c2.74-0.19,11.56-4.91,14.21-6.73c0.18-0.14,0.58-0.4,0.88-0.52
			L331.98,41.42z"/>
		<path class="st0" d="M357.34,16.88c5.24-0.69,9.82-1.19,14.04-1.55c1.52-0.18,4.58-0.39,7.54-0.6h0.1c2.81-0.2,5.7-0.41,6.47-0.39
			c0.03,0,0.06,0,0.09,0c0.71-0.05,1.32-0.03,1.49,0c0.51,0.15,1.08,0.18,2.66,0.15l1.14-0.08c0.25-0.02,0.48-0.13,0.64-0.32
			l0.17-0.2c0.53-0.53,0.6-1.31,0.65-1.83v-0.11c0.02-0.05,0.02-0.1,0.01-0.15c-0.05-0.72-0.54-1.27-1.24-1.39
			c-0.05,0-0.11-0.01-0.16-0.01l0,0c-0.12-0.02-0.33-0.05-0.57-0.03c-0.89,0.06-2.35,0.31-2.93,0.55c-0.4,0.18-1.35,0.25-8.79,0.77
			c-1.96,0.17-4,0.33-5.82,0.47c-2.51,0.2-4.5,0.35-5.37,0.46c-2.46,0.29-3.3,0.37-3.58,0.39c-0.99,0.07-4.07,0.44-6.1,0.71
			l-0.3,0.02c0.2-0.31,0.45-0.69,0.72-1.07c0.12-0.15,0.34-0.44,0.6-0.79c0.22-0.3,0.47-0.64,0.71-0.95
			c0.02-0.02,0.03-0.04,0.05-0.06c0.38-0.58,0.88-1.32,1.28-1.86l0.56-0.81c0.85-1.21,1.18-1.68,1.53-2.3
			c0.11-0.16,0.25-0.38,0.4-0.61c0.2-0.32,0.42-0.66,0.58-0.88c0.37-0.47,1.25-1.67,1.34-2.57c0-0.05,0-0.1,0-0.15
			c-0.06-0.86-0.92-1.57-1.65-1.66c-0.06,0-0.12-0.01-0.18,0h-0.07c-0.1,0.01-0.2,0.03-0.29,0.07c-0.28,0.12-0.86,0.36-3.52,3.67
			c-0.37,0.5-0.95,1.24-1.33,1.68c-0.02,0.02-0.03,0.04-0.05,0.06c-0.49,0.66-0.87,1.15-1.07,1.38c-0.05,0.06-0.09,0.12-0.13,0.19
			c-0.08,0.16-0.22,0.35-0.34,0.52c-0.09,0.12-0.17,0.24-0.23,0.34c-0.2,0.25-0.47,0.66-0.58,0.82c-0.11,0.13-0.25,0.33-0.47,0.65
			c-0.25,0.36-0.56,0.8-0.88,1.21c-0.73,0.95-1.18,1.58-1.62,2.18c-0.2,0.27-0.39,0.55-0.61,0.85c-0.02,0.02-0.03,0.05-0.05,0.07
			c-0.36,0.59-0.72,0.79-0.83,0.82c-0.39,0.09-2.59,0.45-3.25,0.5c-0.47,0.03-1.94,0.24-2.52,0.32c-3.08,0.36-4.93,0.56-6.49,0.67
			c-1.06,0.07-1.93,0.09-3.03,0.11l-0.81,0.02c-0.56-0.03-1.15,0-1.44,0.03h-0.21c-0.18,0.03-0.36,0.09-0.51,0.21
			c-0.35,0.27-0.79,0.86-0.86,1.61c0,0.05,0,0.1,0,0.15v0.14c0.06,0.68,0.17,2.51,2.04,2.37h0.14c0.34-0.03,0.92-0.15,1.3-0.25
			c0.2-0.02,0.43-0.07,0.67-0.11c0.27-0.05,0.57-0.11,0.79-0.13c0.04,0,0.09,0,0.13-0.02c0.24-0.05,0.56-0.11,0.88-0.16
			c0.35-0.06,0.7-0.12,0.97-0.18c0.77-0.18,1.41-0.3,1.76-0.32c0.04,0,0.08,0,0.11-0.02c0.2-0.04,0.43-0.08,0.67-0.12
			c0.41-0.07,0.8-0.14,1.07-0.21c0.49-0.04,1.24-0.17,1.81-0.28c0.47-0.1,1.2-0.22,1.5-0.24c0.05,0,0.1-0.01,0.15-0.02
			c0.33-0.08,0.99-0.19,1.64-0.29l0.61-0.1c0.29-0.05,0.54-0.09,0.76-0.13c-0.04,0.06-0.08,0.11-0.11,0.15
			c-0.02,0.02-0.03,0.04-0.04,0.07c-0.36,0.6-0.68,1.04-1.12,1.66l-0.27,0.38c0,0-0.05,0.08-0.07,0.11c-0.1,0.2-0.32,0.51-0.49,0.76
			c-0.09,0.13-0.17,0.25-0.22,0.33c-0.18,0.27-0.4,0.6-0.58,0.89l-0.21,0.33c0,0-0.03,0.06-0.05,0.09c-0.09,0.18-0.2,0.35-0.29,0.5
			c-0.07,0.12-0.14,0.23-0.19,0.32c-0.63,0.85-1.05,1.48-1.49,2.16c-0.14,0.22-0.29,0.44-0.44,0.68c-0.01,0.02-0.02,0.04-0.03,0.05
			c-0.35,0.62-0.83,1.38-1.03,1.7c-0.19,0.23-0.36,0.54-0.55,0.9c-0.07,0.13-0.14,0.26-0.23,0.42c-0.13,0.25-0.33,0.59-0.47,0.83
			l-0.12,0.21c-0.4,0.58-2.09,3.35-2.55,4.27c-0.02,0.04-0.04,0.08-0.05,0.13c-0.07,0.21-0.38,0.71-0.6,1.08l-0.15,0.25
			c-0.31,0.54-0.48,0.84-0.57,1.03c-0.07,0.11-0.15,0.28-0.32,0.6c-0.11,0.22-0.24,0.48-0.37,0.72c-0.7,1.11-1.48,2.67-2.03,3.8
			c-0.16,0.25-0.3,0.52-0.36,0.64c-0.05,0.08-0.1,0.17-0.16,0.28c-0.05,0.1-0.12,0.24-0.21,0.38c-0.03,0.05-0.06,0.1-0.08,0.15
			c-0.1,0.24-0.39,0.79-0.55,1.04c-0.02,0.03-0.03,0.05-0.05,0.08c-0.07,0.14-0.16,0.3-0.25,0.46c-0.16,0.29-0.32,0.57-0.41,0.79
			c-0.08,0.18-0.26,0.55-0.44,0.92l-0.27,0.54c-0.34,0.56-0.66,1.24-0.8,1.57c0,0.02-0.02,0.05-0.03,0.07
			c-0.07,0.21-0.37,0.79-0.61,1.26l-0.27,0.53c0,0-0.02,0.04-0.03,0.06c-0.2,0.47-0.43,0.92-0.58,1.21
			c-0.09,0.17-0.15,0.29-0.17,0.35c-0.04,0.09-0.06,0.19-0.07,0.29c0,0.02-0.02,0.04-0.02,0.05c-0.09,0.11-0.16,0.24-0.2,0.38
			c-0.04,0.15-0.2,0.62-0.4,1.1c-0.15,0.44-0.38,0.91-0.49,1.1c-0.02,0.03-0.03,0.07-0.05,0.1c-0.14,0.33-0.23,0.59-0.28,0.79
			c0,0.02-0.01,0.05-0.02,0.07c-0.03,0.19-0.1,0.36-0.09,0.36c-0.04,0.05-0.07,0.1-0.11,0.15c-0.07,0.13-0.14,0.27-0.22,0.42
			c-0.05,0.11-0.11,0.22-0.16,0.32c-0.03,0.05-0.05,0.1-0.07,0.16c-0.14,0.39-0.48,1.61-0.85,2.92l-0.2,0.71
			c0,0-0.02,0.09-0.03,0.14c-0.04,0.28-0.18,0.84-0.29,1.18c-0.2,0.48-0.31,0.85-0.28,1.26c0,0.11,0.04,0.27,0.08,0.43
			c0.01,0.06,0.03,0.11,0.03,0.13c0.02,0.25,0.14,0.49,0.33,0.65c0.1,0.09,0.34,0.29,0.69,0.41c0.28,0.15,0.6,0.28,0.87,0.34
			c0.21,0.05,0.49,0.13,0.84,0.13c0.06,0,0.12,0,0.18,0c1.01-0.07,1.68-0.67,1.75-1.57c0-0.05,0-0.09,0-0.14
			c-0.01-0.14-0.03-0.35-0.11-0.58L330.07,63c-0.02-1.34,0.27-3.37,0.77-4.33c0.03-0.07,0.06-0.13,0.08-0.21l0.06-0.21
			c0.07-0.23,0.14-0.5,0.18-0.73c0-0.02,0-0.05,0-0.07c0.03-0.29,0.34-1.16,0.5-1.39c0.04-0.05,0.07-0.11,0.09-0.17l0.17-0.4
			c0.73-1.71,0.87-2.07,0.92-2.24c0-0.04,0.02-0.07,0.02-0.11c0.02-0.07,0.08-0.22,0.16-0.35c0.23-0.36,0.37-0.6,0.43-0.83
			c0.16-0.36,0.71-1.6,0.88-1.91c0.22-0.34,0.49-0.9,1.48-3.12l0.24-0.43c0.17-0.32,0.35-0.63,0.47-0.82
			c0.03-0.05,0.06-0.1,0.08-0.15c0.04-0.1,0.11-0.22,0.18-0.36c0.13-0.26,0.28-0.54,0.38-0.82c0.2-0.39,0.67-1.21,1.09-1.9
			c0.01-0.02,0.02-0.04,0.03-0.06c0.14-0.28,0.31-0.57,0.46-0.85c0.29-0.52,0.48-0.86,0.58-1.15c0.58-1.17,0.8-1.42,0.84-1.45
			c0.07-0.06,0.12-0.12,0.17-0.2l0.08-0.13c0.29-0.45,1.08-1.65,2.07-3.28c0.22-0.38,0.7-1.08,1.04-1.56
			c0.4-0.54,0.67-0.93,0.67-0.93c0.04-0.06,0.07-0.12,0.1-0.19c0.12-0.21,0.62-0.95,0.92-1.37c0.02-0.03,0.04-0.05,0.05-0.08
			c0.12-0.21,0.56-0.88,0.89-1.4c0.34-0.56,0.75-1.15,0.88-1.3c0.23-0.26,0.56-0.72,0.79-1.14c0.17-0.21,0.36-0.49,0.57-0.81
			c0.17-0.25,0.34-0.51,0.54-0.79c0.15-0.24,0.34-0.51,0.52-0.76c0.27-0.38,0.51-0.72,0.66-0.99c0.12-0.17,0.28-0.39,0.43-0.6
			c0.19-0.26,0.38-0.51,0.49-0.68c1.26-1.68,1.86-2.53,2.37-3.34C354.44,17.88,355.75,17.04,357.34,16.88L357.34,16.88z"/>
		<path class="st0" d="M363.57,25.07c-0.06,0.71,0.07,2.29,0.84,3.1c0.32,0.33,0.73,0.51,1.16,0.51c0.04,0,0.07,0,0.11,0
			c0.57-0.04,1.12-0.55,1.29-1.16c0.06-0.14,0.2-0.4,0.3-0.58c0.18-0.32,0.31-0.6,0.31-0.9c0.02-0.81-0.6-1.5-0.87-1.76
			c-0.55-0.53-1.18-0.82-1.75-0.78c-0.84,0.06-1.39,0.86-1.39,1.58L363.57,25.07z"/>
		<path class="st0" d="M490.82,22.61c-0.46-0.45-1.26-0.96-1.99-0.91c-1.05,0.07-3.49,1.66-3.73,1.83
			c-0.02,0.01-0.04,0.03-0.06,0.05c-0.08,0.07-0.19,0.15-0.31,0.25c0.22-0.32,0.45-0.67,0.6-0.93c0.14-0.24,0.32-0.51,0.47-0.73
			c0.11-0.16,0.2-0.3,0.27-0.41c0.47-0.62,0.73-1.09,0.83-1.48c0.02-0.1,0.03-0.2,0.03-0.3c-0.03-0.43-0.29-0.76-0.52-1.06
			c-0.04-0.05-0.08-0.09-0.12-0.13c-0.04-0.03-0.08-0.08-0.13-0.13c-0.25-0.24-0.44-0.42-0.66-0.53c-0.32-0.18-0.68-0.38-1.09-0.35
			c-0.79,0.06-1.31,0.78-1.86,1.66c-0.01,0.02-0.02,0.04-0.03,0.06c-0.2,0.38-0.48,0.78-0.69,1.08c-0.09,0.14-0.18,0.25-0.24,0.35
			c-0.19,0.3-0.59,0.92-0.86,1.39c-0.01,0.02-0.02,0.04-0.03,0.06c-0.22,0.45-0.83,1.46-1.34,2.19c-0.03,0.04-0.05,0.08-0.07,0.13
			l-0.22,0.47c-0.11,0.17-0.22,0.33-0.31,0.47c-0.19,0.29-0.32,0.48-0.41,0.65c-0.14,0.2-0.34,0.51-0.5,0.82l-0.2,0.31
			c-0.08,0.14-0.16,0.29-0.24,0.43c-0.06-0.19-0.14-0.38-0.22-0.52c-0.05-0.08-0.11-0.16-0.19-0.22c-0.27-0.24-0.53-0.34-0.71-0.42
			c-0.14-0.06-0.28-0.08-0.43-0.07h-0.06c-0.81,0.06-3.53,1.5-3.87,1.73c-0.21,0.12-0.56,0.27-0.79,0.34
			c-0.05,0.02-0.09,0.03-0.14,0.06l-0.4,0.2c-0.83,0.42-2.56,1.28-3.72,1.97c-0.48,0.28-0.83,0.46-0.91,0.49
			c0,0,0.09-0.04,0.21-0.05c-0.49,0.04-3.11,1.43-3.12,1.44c-3.76,1.93-5.96,2.96-6.71,3.3c-0.46,0.19-1.22,0.53-1.84,0.86h-0.02
			c-0.4,0.17-0.94,0.4-1.11,0.45c-0.14,0.03-0.29,0.09-0.61,0.21c-0.14,0.05-0.31,0.12-0.48,0.18c-0.04,0.01-0.07,0.03-0.11,0.05
			c-0.39,0.2-1.04,0.38-1.35,0.47c-0.05,0.01-0.11,0.03-0.16,0.06c-0.13,0.06-0.28,0.11-0.43,0.16c-0.23,0.08-0.47,0.16-0.68,0.27
			c-0.97,0.37-2.14,0.59-3.76,0.7c-1.33,0.09-1.66,0.11-1.99,0.04c-0.5-0.13-0.7-0.32-0.71-0.33c-0.02-0.07-0.05-0.36,0.03-0.7
			c0-0.04,0.01-0.08,0.02-0.13c0.04-0.53,0.13-1.03,0.25-1.3l0.07-0.18c0.59-1.58,1.11-2.62,1.54-3.08
			c0.02-0.02,0.05-0.03,0.07-0.05c0.11,0.02,0.27,0.04,0.47,0.02l0.42-0.03c2.42-0.17,8.03-4.18,8.43-7.05c0-0.07,0.01-0.13,0-0.2
			v-0.14c-0.04-0.46-0.19-0.94-0.42-1.32c-0.02-0.03-0.04-0.06-0.06-0.09c-0.07-0.09-0.17-0.21-0.27-0.33
			c-0.09-0.11-0.18-0.21-0.22-0.26c-0.08-0.14-0.2-0.25-0.34-0.33c-0.4-0.23-0.79-0.32-1.26-0.29c-2.71,0.19-6.41,3.8-8.74,6.64
			c0.03-0.1,0.04-0.2,0.04-0.31c-0.04-0.55-0.46-0.97-0.64-1.12c-0.19-0.16-0.42-0.24-0.67-0.22h-0.14
			c-0.21,0.02-0.36,0.09-0.56,0.18c-0.09,0.04-0.2,0.09-0.36,0.16c-0.03,0.01-0.05,0.02-0.08,0.04c-2.09,1.1-4.78,2.02-7.61,2.61
			l-1.13,0.28c-0.11,0.01-0.23,0.03-0.38,0.06c-0.16,0.03-0.35,0.06-0.52,0.07c-0.05,0-0.1,0.01-0.15,0.02
			c-0.86,0.21-2.32,0.52-2.89,0.63c-0.71,0.17-1.37,0.31-1.87,0.4c2.51-4.24,3.74-7.29,3.76-9.33c0-0.02,0-0.05,0-0.07v-0.14
			c0,0-0.01-0.05-0.02-0.07c-0.16-1.05-0.89-2.46-1.86-2.92c-0.3-0.12-0.73-0.19-1.08-0.17c-0.68,0.05-1.54,0.37-2.87,1.06
			c-5.64,2.95-10.71,7.16-15.33,11.25c-0.24,0.2-0.51,0.43-0.75,0.64c-0.2,0.17-0.37,0.32-0.48,0.41c-0.3,0.19-0.65,0.52-1.13,0.98
			l-0.07,0.07c-0.38,0.26-0.85,0.65-1.42,1.17c-0.41,0.3-1.21,1-1.87,1.68l-1.41,1.26c-0.79,0.71-1.33,1.19-1.5,1.32
			c-0.06,0.04-0.12,0.08-0.18,0.13c-0.02,0.01-0.38,0.35-0.74,0.76c-0.39,0.45-1.29,1.25-1.92,1.78c-0.63-1.6-2.08-2.22-3.44-2.62
			c-0.03,0-0.05-0.01-0.08-0.02c-0.22-0.04-0.42-0.09-0.63-0.14c-0.54-0.12-1.16-0.26-2.19-0.4c-0.68-0.09-1.25-0.26-1.59-0.39
			c0.29-0.92,2.53-3.56,7-7.02c3.51-2.72,6.95-4.82,8.97-5.51c-0.13,0.26-0.2,0.53-0.18,0.84c0.01,0.16,0.05,0.31,0.08,0.43
			c0,0.03,0.02,0.07,0.02,0.07c0.01,0.14,0.05,0.28,0.13,0.41c0.16,0.27,0.56,0.99,1.4,0.92c1.46-0.1,3.78-2.83,3.77-4.49v-0.07
			c-0.01-0.12-0.04-0.3-0.08-0.49c-0.03-0.15-0.06-0.3-0.06-0.43c0-0.07-0.02-0.14-0.04-0.21l-0.28-0.9
			c-0.41-1.38-1.49-1.49-2.37-1.42c-4.85,0.34-15.36,8.56-18.68,12.61c-0.02,0.03-0.04,0.05-0.06,0.08l0,0
			c-0.11-0.32-0.33-0.61-0.64-0.81c-0.33-0.22-0.73-0.33-1.12-0.3c-0.23,0.02-0.61,0.09-1.46,0.53c-0.3,0.15-0.58,0.28-0.85,0.42
			c-0.66,0.33-1.23,0.61-1.9,0.89c-0.35,0.13-1,0.43-1.83,0.81c-0.45,0.21-0.94,0.44-1.41,0.65c-0.76,0.33-1.5,0.67-2.06,0.94
			c-0.35,0.16-0.75,0.35-0.84,0.39c-0.02,0-0.04,0.02-0.07,0.02c-0.22,0.09-0.58,0.26-0.89,0.44l-0.6,0.25
			c-0.56,0.26-1.14,0.53-1.72,0.81c-0.56,0.27-1.13,0.54-1.64,0.77c-0.31,0.13-0.66,0.29-0.98,0.44c-0.25,0.12-0.59,0.27-0.69,0.3
			c-0.04,0.01-0.08,0.03-0.11,0.05c-0.13,0.06-0.34,0.16-0.59,0.27c-0.39,0.17-0.86,0.38-1.31,0.6c-0.6,0.32-1.31,0.63-1.52,0.7
			c-0.02,0-0.1,0.04-0.12,0.05c-0.22,0.09-0.59,0.25-0.91,0.4c-0.11,0.04-0.23,0.08-0.34,0.13c-0.08,0.03-0.15,0.06-0.21,0.08
			c-0.16,0.02-0.35,0.08-0.78,0.22c-0.22,0.07-0.57,0.21-0.83,0.33c-0.21,0.04-0.58,0.14-1.26,0.39c-1.03,0.33-2.07,0.55-3.02,0.61
			c-0.58,0.04-1.3,0.09-1.59-0.18l0.08-0.66c0.34-2.54,2.48-6.23,4.21-8.61l0.32-0.45c0.47-0.64,0.72-1,0.69-1.5l-0.02-0.28
			c0-0.15-0.05-0.29-0.13-0.41c-0.12-0.2-0.32-0.41-0.73-0.76c-0.07-0.06-0.16-0.12-0.25-0.15c-0.49-0.21-0.82-0.33-1.16-0.31
			c-2.55,0.18-6.26,9.68-6.45,10.82c0,0.02,0,0.04,0,0.06c-0.08,0.88-0.09,1.24,0.06,1.76c0.01,0.04,0.02,0.08,0.04,0.11
			c0.05,0.12,0.1,0.29,0.15,0.46l0.07,0.24c0.4,2.14,3.29,2.92,5.06,2.92c0.13,0,0.25,0,0.36-0.01c2.1-0.15,4.86-1,8.19-2.55
			c0.48-0.17,0.91-0.36,1.21-0.48c0.1-0.04,0.17-0.07,0.22-0.09c0.04-0.01,0.07-0.02,0.11-0.04c0,0,0.4-0.17,0.87-0.34
			c0.04-0.01,0.07-0.03,0.11-0.05c0.45-0.23,1.03-0.47,1.25-0.54c0.03,0,0.06-0.02,0.09-0.03l0.48-0.21
			c0.64-0.28,1.3-0.57,1.89-0.89l0.24-0.12c0.32-0.15,0.67-0.32,0.92-0.46c0.47-0.17,0.86-0.32,3.02-1.38
			c0.32-0.17,0.65-0.32,0.93-0.44c0.26-0.11,0.47-0.21,0.63-0.3c0.2-0.09,0.5-0.23,0.69-0.33c0.24-0.1,0.59-0.27,0.84-0.42
			c0.16-0.08,0.4-0.2,0.74-0.36c0.68-0.34,1.75-0.86,3.3-1.65c1.14-0.63,1.34-0.65,1.49-0.66c0.09,0,0.18-0.03,0.26-0.05
			c-0.6,0.9-1.07,1.95-1.05,3.17c0,1.35,0.7,3.05,4.1,3.48l0.46,0.08c0.3,0.05,0.81,0.13,0.94,0.18c0.06,0.03,0.13,0.05,0.2,0.06
			c0.24,0.04,0.68,0.1,0.97,0.1c0.49,0.08,1.36,0.62,1.61,0.91l0,0c0,0.71-0.74,1.61-1.49,2.15c-0.04,0.03-3.8,3.03-3.81,4.83
			c-0.04,0.61,0.18,1.67,0.78,2.2c0.18,0.16,0.49,0.42,0.91,0.42c0.02,0,0.05,0,0.07,0c1.7-0.12,5.63-4.43,5.97-6.15
			c0.04-0.09,0.14-0.28,0.28-0.49c0.19-0.33,0.8-0.92,3.12-3.11c0.84-0.84,1.7-1.65,2.32-2.24c0.56-0.53,0.87-0.82,1.02-0.99
			c0.92-0.81,3.61-3.24,4.53-4.07l0.59-0.51c0.41-0.35,0.82-0.7,1.05-0.91c0.3-0.27,1.02-0.88,1.54-1.26
			c0.02-0.02,0.04-0.03,0.06-0.05l0.79-0.69c0.38-0.32,0.71-0.6,1.01-0.85c0.42-0.36,0.77-0.66,1.13-0.93
			c0.02-0.02,0.04-0.03,0.06-0.05c0.29-0.27,0.86-0.71,1.23-0.97c0.2-0.15,0.38-0.31,0.54-0.43c0.11-0.1,0.21-0.18,0.25-0.21
			c0.03-0.02,0.07-0.04,0.1-0.07l0.16-0.13c0.16-0.13,0.34-0.27,0.49-0.36c0.03-0.02,0.07-0.04,0.1-0.06l0.36-0.28
			c0.45-0.34,1.11-0.84,2.04-1.58l0.28-0.2c0.16-0.11,0.43-0.31,0.5-0.34c0.08-0.03,0.15-0.07,0.21-0.12
			c0.24-0.18,0.47-0.33,0.54-0.36c0.06-0.03,0.12-0.06,0.18-0.1c1.02-0.71,3.85-2.25,5.13-2.61c-0.08,0.35-0.26,0.9-0.56,1.53
			c-1.35,2.87-3.01,5.67-5.2,8.78l-0.39,0.51l-0.61,0.3c-0.23,0.09-0.49,0.18-0.71,0.26c-0.19,0.07-0.35,0.12-0.42,0.15
			c-2.32,0.88-6.87,4.04-8.41,6.61c-0.12,0.22-0.28,0.45-0.35,0.52c-0.02,0.02-0.03,0.04-0.04,0.06c-0.48,0.65-1.15,2.19-1.08,3.11
			c0.01,0.19,0.03,0.5,0.21,0.8c0.58,1.1,1.59,1.74,2.62,1.66c4.1-0.29,11.07-9.95,11.35-10.34c0.47-0.63,1.17-1.05,2.08-1.27
			l0.23-0.05c1.08-0.26,1.62-0.39,5.41-1.13l0.82-0.2c1.41-0.33,1.92-0.46,2.13-0.55c0.1-0.04,0.49-0.13,0.72-0.18l0.22-0.05
			c0.06-0.01,5.69-1.59,7.64-2.94c-0.47,0.62-0.86,1.18-1.12,1.61c-0.76,1.34-1.24,2.71-1.37,3.94c-0.26,2.14,0.53,3.47,1.23,4.21
			c1.01,1.06,2.56,1.64,4.32,1.64c0.19,0,0.38,0,0.57-0.02c0.98-0.07,2.44-0.23,3.35-0.46c0.03,0,0.06-0.02,0.09-0.03
			c0.46-0.17,1.03-0.32,1.15-0.33c0.04,0,0.09,0,0.13-0.02c0.62-0.13,3.64-1.37,4.5-1.79c0.17-0.07,0.36-0.16,0.53-0.24
			c0.18-0.08,0.36-0.17,0.49-0.22c0.24-0.05,0.52-0.18,1.01-0.41c0.23-0.11,0.48-0.23,0.71-0.32c0.03-0.01,0.05-0.02,0.08-0.04
			c0.33-0.17,0.67-0.35,0.94-0.48c0.17-0.09,0.31-0.16,0.41-0.21c0.38-0.12,0.84-0.39,1.21-0.63c0.44-0.21,1.09-0.55,1.66-0.86
			l0.5-0.27c0.66-0.32,1.56-0.78,2.07-1.04l0.09-0.05c0.19-0.1,0.37-0.2,0.52-0.28c0.12-0.06,0.22-0.12,0.29-0.15
			c0.2-0.06,0.42-0.18,0.83-0.42c0.02-0.01,0.04-0.03,0.06-0.04c0.13-0.09,0.45-0.26,0.73-0.4c0.29-0.15,0.6-0.31,0.86-0.46
			c0.52-0.31,1.62-0.88,2.45-1.3c0.58-0.32,1.17-0.59,1.38-0.68c0.2-0.06,0.43-0.2,0.89-0.47c1.48-0.79,2.57-1.33,3.07-1.43
			c0.04,0,0.08-0.02,0.12-0.03c0.08-0.03,0.17-0.06,0.26-0.09c-1.31,2.34-2.63,4.73-3.89,7.2l-0.25,0.51
			c-0.27,0.47-0.56,1.01-0.52,1.58l0,0c0.06,0.89,1.41,1.59,1.41,1.6c0.03,0.01,0.05,0.02,0.07,0.03c0.11,0.06,0.31,0.16,0.58,0.16
			c0.03,0,0.05,0,0.08,0c0.32-0.02,0.62-0.2,0.81-0.38c0.44-0.32,0.67-0.62,1.49-1.7c1.81-2.58,3.1-4.34,3.93-5.36
			c0.45-0.52,0.88-1.02,1.11-1.44c1.16-1.4,2.58-3.12,4-4.23c0.02-0.01,0.04-0.03,0.05-0.05c0.23-0.21,0.52-0.46,0.77-0.67
			l0.29-0.25c0.12-0.1,0.23-0.18,0.29-0.22c0.18-0.06,0.33-0.16,0.5-0.28c0.11-0.08,0.26-0.18,0.46-0.3
			c0.12-0.07,0.28-0.16,0.41-0.24c0.08,0.07,0.17,0.15,0.25,0.22c0.49,0.49,0.82,0.82,1.46,0.77c1.01-0.07,1.63-1.12,1.77-2.07
			c0.01-0.07,0.01-0.14,0-0.2l-0.02-0.24c0-0.47-0.23-0.94-0.68-1.38L490.82,22.61z M413.42,43.13c0.8-0.94,1.86-2,2.86-2.85
			C415.39,41.24,414.33,42.3,413.42,43.13z"/>
		<path class="st0" d="M509.45,18.63c0,0,0.07,0,0.11,0c0.57-0.04,1.12-0.55,1.29-1.16c0.06-0.14,0.2-0.4,0.3-0.58
			c0.18-0.32,0.31-0.6,0.31-0.9c0.02-0.81-0.6-1.5-0.87-1.76c-0.55-0.53-1.18-0.82-1.75-0.78c-0.84,0.06-1.39,0.86-1.39,1.58
			c-0.06,0.71,0.07,2.29,0.84,3.1c0.32,0.33,0.73,0.51,1.16,0.51L509.45,18.63z"/>
		<path class="st0" d="M566.99,21.05c-0.05-0.08-0.11-0.16-0.19-0.23c-0.27-0.24-0.53-0.34-0.7-0.41c-0.14-0.06-0.28-0.08-0.43-0.07
			h-0.06c-0.81,0.06-3.53,1.5-3.87,1.73c-0.21,0.12-0.56,0.27-0.79,0.34c-0.05,0.02-0.09,0.03-0.14,0.06l-0.4,0.2
			c-0.83,0.42-2.56,1.28-3.72,1.97c-0.48,0.28-0.83,0.46-0.92,0.5c0,0,0.09-0.03,0.22-0.05c-0.51,0.05-3.11,1.43-3.12,1.44
			c-3.75,1.93-5.96,2.96-6.71,3.3c-0.47,0.19-1.24,0.54-1.83,0.85c-0.41,0.17-0.97,0.4-1.14,0.46c-0.13,0.03-0.29,0.09-0.61,0.21
			c-0.14,0.05-0.31,0.12-0.48,0.18c-0.04,0.01-0.07,0.03-0.11,0.05c-0.39,0.2-1.03,0.38-1.35,0.47c-0.05,0.01-0.11,0.03-0.16,0.06
			c-0.13,0.06-0.28,0.11-0.43,0.16c-0.23,0.08-0.47,0.16-0.68,0.27c-0.97,0.37-2.14,0.59-3.76,0.7c-1.33,0.09-1.66,0.11-1.99,0.04
			c-0.5-0.13-0.7-0.32-0.71-0.33c-0.02-0.07-0.05-0.36,0.03-0.69c0-0.04,0.01-0.08,0.02-0.12c0.04-0.53,0.13-1.03,0.25-1.3
			l0.07-0.18c0.59-1.58,1.11-2.62,1.54-3.08c0.02-0.02,0.05-0.03,0.07-0.04c0.11,0.02,0.27,0.04,0.47,0.02l0.43-0.03
			c2.42-0.17,8.03-4.18,8.43-7.05c0-0.07,0.01-0.13,0-0.2v-0.14c-0.04-0.46-0.19-0.94-0.42-1.32c-0.02-0.03-0.04-0.06-0.06-0.09
			c-0.07-0.09-0.17-0.21-0.27-0.33c-0.09-0.11-0.18-0.21-0.22-0.26c-0.08-0.14-0.2-0.25-0.34-0.33c-0.4-0.23-0.79-0.32-1.26-0.28
			c-2.73,0.19-6.47,3.85-8.79,6.71c-0.11-0.32-0.33-0.6-0.64-0.81c-0.33-0.22-0.74-0.33-1.12-0.3c-0.23,0.02-0.61,0.09-1.45,0.53
			c-0.3,0.15-0.58,0.28-0.85,0.42c-0.66,0.33-1.23,0.61-1.9,0.89c-0.35,0.13-1,0.43-1.83,0.81c-0.45,0.21-0.94,0.44-1.41,0.65
			c-0.76,0.33-1.5,0.67-2.06,0.94c-0.35,0.16-0.75,0.35-0.84,0.38c-0.02,0-0.05,0.02-0.07,0.02c-0.22,0.09-0.58,0.26-0.89,0.44
			l-0.6,0.25c-0.56,0.26-1.14,0.53-1.72,0.81c-0.56,0.27-1.13,0.54-1.65,0.78c-0.3,0.13-0.66,0.29-0.97,0.43
			c-0.25,0.12-0.6,0.28-0.69,0.31c-0.04,0.01-0.08,0.03-0.11,0.05c-0.13,0.06-0.35,0.16-0.59,0.26c-0.39,0.17-0.86,0.38-1.31,0.6
			c-0.6,0.32-1.31,0.63-1.51,0.7c-0.02,0-0.05,0.02-0.07,0.03l-0.06,0.03c-0.22,0.09-0.58,0.24-0.9,0.39
			c-0.11,0.04-0.23,0.09-0.34,0.13c-0.08,0.03-0.15,0.06-0.21,0.08c-0.16,0.02-0.35,0.08-0.78,0.22c-0.22,0.07-0.57,0.21-0.83,0.33
			c-0.21,0.04-0.58,0.14-1.26,0.39c-1.03,0.33-2.07,0.55-3.02,0.61c-0.58,0.04-1.29,0.09-1.59-0.18l0.08-0.66
			c0.34-2.55,2.48-6.23,4.21-8.61l0.32-0.45c0.46-0.64,0.72-0.99,0.68-1.5l-0.02-0.28c0-0.14-0.05-0.28-0.13-0.41
			c-0.13-0.23-0.37-0.45-0.73-0.77c-0.07-0.06-0.16-0.12-0.25-0.15c-0.49-0.21-0.81-0.33-1.16-0.31c-2.55,0.18-6.26,9.68-6.45,10.82
			c0,0.02,0,0.04,0,0.06c-0.08,0.88-0.09,1.24,0.06,1.76c0.01,0.04,0.02,0.08,0.04,0.11c0.05,0.12,0.1,0.29,0.15,0.47l0.07,0.23
			c0.4,2.14,3.29,2.92,5.05,2.92c0.13,0,0.25,0,0.36-0.01c2.1-0.15,4.86-1,8.19-2.55c0.48-0.17,0.91-0.35,1.2-0.48
			c0.1-0.04,0.17-0.07,0.22-0.09c0.04,0,0.07-0.02,0.11-0.04c0,0,0.4-0.17,0.87-0.34c0.04-0.01,0.07-0.03,0.11-0.05
			c0.45-0.23,1.03-0.47,1.25-0.54c0.03,0,0.06-0.02,0.09-0.03l0.48-0.21c0.64-0.28,1.3-0.57,1.89-0.89l0.24-0.11
			c0.32-0.15,0.67-0.32,0.92-0.46c0.47-0.17,0.86-0.32,3.02-1.38c0.31-0.17,0.65-0.32,0.93-0.44c0.26-0.12,0.47-0.21,0.64-0.3
			c0.21-0.09,0.5-0.23,0.69-0.33c0.24-0.1,0.59-0.27,0.84-0.42c0.16-0.08,0.4-0.2,0.74-0.36c0.68-0.34,1.75-0.86,3.3-1.65
			c1.14-0.63,1.34-0.65,1.49-0.66c0.09,0,0.17-0.03,0.25-0.05c-0.11,0.16-0.2,0.31-0.29,0.45c-0.76,1.34-1.24,2.71-1.37,3.94
			c-0.26,2.14,0.53,3.47,1.23,4.21c1.01,1.06,2.56,1.64,4.32,1.64c0.19,0,0.38,0,0.57-0.02c0.98-0.07,2.44-0.23,3.35-0.46
			c0.03,0,0.06-0.02,0.09-0.03c0.46-0.17,1.03-0.32,1.15-0.33c0.04,0,0.09,0,0.13-0.02c0.62-0.13,3.64-1.37,4.5-1.79
			c0.17-0.07,0.36-0.16,0.53-0.24c0.18-0.08,0.36-0.17,0.49-0.22c0.24-0.05,0.52-0.18,1.01-0.41c0.23-0.11,0.48-0.23,0.71-0.32
			c0.03-0.01,0.05-0.02,0.08-0.04c0.33-0.17,0.68-0.35,0.95-0.49c0.17-0.08,0.31-0.16,0.41-0.21c0.38-0.12,0.84-0.39,1.22-0.63
			c0.44-0.21,1.08-0.55,1.65-0.86l0.51-0.27c0.67-0.32,1.6-0.8,2.16-1.09c0.19-0.1,0.37-0.2,0.53-0.28
			c0.12-0.06,0.21-0.12,0.28-0.15c0.2-0.06,0.42-0.18,0.83-0.42c0.02-0.01,0.04-0.03,0.06-0.04c0.13-0.09,0.45-0.26,0.73-0.4
			c0.29-0.15,0.6-0.31,0.86-0.46c0.53-0.31,1.62-0.88,2.45-1.3c0.59-0.32,1.19-0.6,1.39-0.69c0.2-0.06,0.43-0.2,0.89-0.47
			c1.48-0.79,2.57-1.33,3.07-1.43c0.04,0,0.09-0.02,0.12-0.03c0.31-0.1,0.72-0.24,0.97-0.52c0.33-0.29,0.36-0.64,0.35-0.83l0,0
			c-0.02-0.29-0.16-0.71-0.31-0.97L566.99,21.05z"/>
	</g>
</g>
</svg>
