<?xml version="1.0" encoding="UTF-8" standalone="no"?>
<!-- Created with Inkscape (http://www.inkscape.org/) -->

<svg
   width="380"
   height="140"
   viewBox="0 0 380 140"
   version="1.1"
   id="svg1"
   xml:space="preserve"
   xmlns="http://www.w3.org/2000/svg"
   xmlns:svg="http://www.w3.org/2000/svg"><defs
     id="defs1"><style
       id="style1">.cls-1{fill:#481a01;stroke-width:0}</style></defs><g
     id="layer1"><path
       id="text1-6"
       style="font-style:italic;font-weight:bold;font-size:123.557px;font-family:Friendlist;-inkscape-font-specification:'Friendlist, Bold Italic';fill:#481a01"
       d="m 99.240234,14 c -0.778427,0 -0.972629,0.307154 -1.251953,0.539063 -0.279323,0.231908 -0.549691,0.509333 -0.853515,0.847656 -0.607648,0.676646 -1.330189,1.590938 -2.150391,2.693359 -1.640405,2.204842 -3.659303,5.146287 -5.681641,8.191406 -4.044676,6.090239 -8.047186,12.495093 -9.054687,14.308594 -4.658973,8.213217 -10.571691,16.960719 -16.375,25.480469 a 1.2308509,1.2308509 0 0 0 -0.01172,0.01953 c -2.092586,3.200427 -4.196117,6.291906 -6.185547,9.400391 C 48.540569,89.183044 39.172555,102.98296 28.71875,115.89648 l 0.04297,-0.0508 c -0.403197,0.448 -1.023231,1.28612 -1.884766,2.4668 -0.861535,1.18068 -1.904297,2.64173 -2.919922,4.0918 -1.015625,1.45006 -2.003305,2.88755 -2.759765,4.02734 -0.37823,0.5699 -0.697636,1.06491 -0.939454,1.45899 -0.120908,0.19703 -0.222335,0.36714 -0.30664,0.52148 -0.08431,0.15434 -0.148591,0.23687 -0.230469,0.52344 l 0.109375,-0.26368 c -1.69987,3.03549 -3.751789,6.14968 -6.201172,8.48243 l 0.08008,-0.0703 c -0.395413,0.31634 -0.783882,0.70752 -1.126953,1.14649 -0.34307,0.43897 -0.66009,0.8864 -0.792968,1.55078 a 1.2308509,1.2308509 0 0 0 -0.02344,0.24219 v 0.24609 c 0,1.35619 0.990367,2.13494 1.865234,2.64063 0.874868,0.50568 1.780291,0.81445 2.701172,0.81445 0.638326,0 1.034491,-0.26519 1.390625,-0.5293 0.356134,-0.26411 0.679069,-0.58364 1.011719,-0.95508 0.665299,-0.74286 1.359353,-1.70013 2.064453,-2.7539 1.40227,-2.09569 2.81823,-4.56088 3.753906,-6.24414 0.216251,-0.36042 0.383039,-0.69465 0.511719,-0.9375 0.12868,-0.24286 0.26359,-0.40031 0.169922,-0.30664 a 1.2308509,1.2308509 0 0 0 0.175781,-0.22461 c 5.154339,-8.34513 10.944068,-16.22882 16.753906,-24.26367 l 0.002,-0.004 c 2.956785,-4.06551 5.897762,-7.985387 9.193359,-11.769532 l 0.002,-0.0039 C 66.418192,78.577581 90.565263,52.079888 110.04492,42.03125 l 0.004,-0.002 c 0.003,-0.0016 0.007,-0.0042 0.01,-0.0059 l 0.72852,-0.363281 a 1.2308509,1.2308509 0 0 0 0.0156,-0.0098 c 3.30894,-1.715744 8.44319,-4.060547 11.17188,-4.060547 0.58231,0 0.61444,0.11107 0.60547,0.09961 -0.009,-0.01146 0.0684,0.122863 0.0254,0.509766 a 1.2308509,1.2308509 0 0 0 -0.008,0.136718 c 0,0.367484 -0.0178,0.357865 0.004,0.314454 a 1.2308509,1.2308509 0 0 0 -0.10742,0.324218 c -0.85604,4.565577 -4.56553,11.926665 -9.48242,20.085938 -4.91689,8.159272 -11.02407,17.198123 -16.646486,25.539062 -4.200967,6.177913 -8.128691,11.989998 -11.113281,16.777341 -2.917246,4.67933 -4.898241,8.17032 -5.425781,10.65625 -0.149152,0.36528 -0.215969,0.79352 -0.21875,1.02149 -0.0689,1.20792 0.276002,2.38891 0.982422,3.32422 0.716194,0.94825 1.868087,1.64648 3.205078,1.64648 0.596517,0 0.962293,-0.2213 1.283203,-0.42773 0.292866,-0.1884 0.533111,-0.40203 0.751953,-0.61524 -0.0049,0.002 0.04684,0.0527 -0.304687,0.0527 a 1.2308509,1.2308509 0 0 0 0.871093,-0.35938 c 0.341041,-0.34104 0.532479,-0.64588 0.941407,-1.2207 0.408927,-0.57483 0.924966,-1.3269 1.507812,-2.18945 1.159206,-1.71551 2.576664,-3.8707 3.875,-5.91016 l 0.02148,-0.0332 c 1.843568,-2.70512 3.46367,-5.19056 4.025391,-5.97852 6.594042,-8.422389 24.971022,-28.877443 43.898442,-47.142578 9.46891,-9.137597 19.08742,-17.738108 27.42382,-24.023438 7.99298,-6.026395 14.88024,-9.717739 18.79883,-10.019531 -0.35339,1.483587 -1.62826,4.242536 -3.3457,7.322266 -1.77282,3.179039 -3.92726,6.690567 -5.78125,9.71875 -1.22759,1.963938 -2.33686,3.686421 -3.0957,4.951172 a 1.2308509,1.2308509 0 0 0 -0.0137,0.02148 c -4.93101,8.629278 -10.11336,17.14452 -15.30273,25.669922 -10.50018,17.04732 -21.03196,34.014293 -29.23047,52.150393 -2.34269,5.05502 -4.86441,10.31451 -5.89453,15.72265 a 1.2308509,1.2308509 0 0 0 -0.0215,0.23047 v 0.17969 c -0.23534,1.17414 -0.48607,2.39427 -0.49024,3.61914 -0.0651,1.30864 0.087,2.67511 1,3.74805 0.92071,1.08201 2.43802,1.59179 4.42773,1.59179 0.63698,0 1.20937,-0.29457 1.57227,-0.60546 0.3629,-0.3109 0.58603,-0.62773 0.77148,-0.875 a 1.2308509,1.2308509 0 0 0 0.2461,-0.73829 c 0,-0.78379 -0.125,-1.38844 -0.125,-1.48242 a 1.2308509,1.2308509 0 0 0 -0.0137,-0.1875 c -0.25132,-1.63351 -0.46967,-2.73424 -0.35938,-4.16797 a 1.2308509,1.2308509 0 0 0 0.002,-0.0312 c 0.19863,-3.94416 2.30253,-10.40705 5.56836,-17.92382 3.26584,-7.51678 7.66811,-16.14894 12.38282,-24.761723 9.42942,-17.225565 20.11104,-34.389679 25.46484,-42.574219 a 1.2308509,1.2308509 0 0 0 0.002,-0.002 c 2.65672,-4.077756 6.52523,-10.019518 9.89453,-15.671875 3.36931,-5.652357 6.24048,-10.850308 6.95704,-14.146484 a 1.2308509,1.2308509 0 0 0 0.0273,-0.261719 v -0.494141 l -0.002,0.07227 c 0.0816,-1.387905 -0.38787,-2.734111 -1.22266,-3.78711 -0.83479,-1.052998 -2.10529,-1.839843 -3.58984,-1.839843 -2.90946,0 -6.00866,1.7489 -8.5,3.11914 l 0.043,-0.02344 c -0.78969,0.394845 -1.63814,0.86245 -2.18555,1.044922 a 1.2308509,1.2308509 0 0 0 -0.15235,0.0625 c -9.48486,4.646945 -22.86705,15.580611 -35.8457,27.505859 -12.97865,11.925248 -25.47268,24.818435 -32.87109,33.335938 -0.84276,0.948152 -1.80452,2.011212 -2.7461,3.072265 0.15939,-0.225304 0.31245,-0.452878 0.47071,-0.677734 l 0.01,-0.01367 c 3.12986,-4.320329 8.74689,-12.811923 13.66407,-21.25 2.46046,-4.222269 4.74374,-8.424159 6.44726,-12.09375 1.70187,-3.666018 2.85528,-6.720845 2.96875,-9.0625 0.13877,-2.212694 -0.63043,-4.151093 -2.09375,-5.402344 -1.46659,-1.254042 -3.4992,-1.824219 -5.80469,-1.824219 -3.30682,0 -7.38024,1.823092 -12.02539,4.53711 -4.64515,2.714018 -9.792705,6.379689 -14.816403,10.285156 C 83.2319,56.031637 73.727028,64.758887 69.929687,68.746094 a 1.2308509,1.2308509 0 0 0 -0.05469,0.0625 l -1.197266,1.4375 c -1.671566,1.800179 -3.502849,3.764876 -5.359375,5.625 2.231755,-3.423166 4.618027,-6.813724 7.123047,-10.101563 a 1.2308509,1.2308509 0 0 0 0.01953,-0.02539 c 3.221346,-4.460324 6.31352,-8.915376 9.402344,-13.363282 a 1.2308509,1.2308509 0 0 0 0.002,-0.0039 c 3.830202,-5.559969 7.645958,-11.094708 11.806641,-16.234375 4.222164,-5.215614 8.696355,-11.177514 12.082035,-16.820312 a 1.2308509,1.2308509 0 0 0 0.13867,-0.931641 c -0.24774,-0.990949 -0.78757,-1.977047 -1.54883,-2.814453 C 101.58249,14.738766 100.54811,14 99.240234,14 Z M 261.83984,58.357422 c -0.55412,0 -1.30164,0.320122 -1.75586,0.796875 -0.45421,0.476753 -0.83002,1.076073 -1.39843,2.023437 l 0.0488,-0.07617 c -1.50681,2.134647 -2.72572,4.08341 -4.27343,5.988282 -0.55633,0.667006 -1.14213,1.340291 -1.53907,1.898437 -0.26066,0.263488 -0.45263,0.52668 -0.74218,0.892578 -0.28704,0.362727 -0.61085,0.773118 -0.89649,1.117188 l -3.68554,3.933594 c -1.37618,1.378265 -2.91355,3.034638 -3.18555,3.30664 L 244.54492,78.125 c -0.75683,0.567619 -1.42656,1.407038 -1.98633,1.966797 -0.55999,0.560001 -1.53315,1.410113 -2.09961,1.976562 a 1.2308509,1.2308509 0 0 0 -0.0742,0.08398 l -0.57227,0.689453 c -0.27798,0.269209 -0.78852,0.595855 -1.23633,1.267578 l 0.15235,-0.1875 c -0.37111,0.371093 -1.2439,1.234185 -1.75196,1.640625 a 1.2308509,1.2308509 0 0 0 -0.10156,0.08984 c -0.42086,0.42086 -1.08856,0.963555 -1.48242,1.357422 -0.37259,0.372591 -0.96572,0.963973 -1.50391,1.394531 a 1.2308509,1.2308509 0 0 0 -0.10156,0.08984 c -0.42087,0.420867 -1.28593,1.160928 -1.85352,1.728515 -0.65802,0.658024 -3.41162,3.017425 -6.07226,5.201172 -1.33032,1.091873 -2.65703,2.161571 -3.73633,3.005859 -1.0793,0.844289 -1.99957,1.507726 -2.17383,1.609373 a 1.2308509,1.2308509 0 0 0 -0.0625,0.0391 c -0.37092,0.24728 -0.73959,0.49264 -1.03906,0.6875 -0.29947,0.19485 -0.58289,0.3598 -0.55859,0.34765 a 1.2308509,1.2308509 0 0 0 -0.13282,0.0781 c -0.18649,0.12433 -1.08937,0.59482 -1.87695,0.95117 -0.31426,0.14219 -0.59292,0.25726 -0.84961,0.36133 0.28876,-1.05418 1.35855,-3.4491 2.70508,-5.830082 1.44485,-2.554824 3.09307,-5.093069 3.76172,-5.916016 a 1.2308509,1.2308509 0 0 0 0.0684,-0.0918 c 0.0714,-0.10708 0.20385,-0.271119 0.33984,-0.441407 0.068,-0.08514 0.13631,-0.170052 0.2168,-0.291015 0.0805,-0.120963 0.26758,-0.171135 0.26758,-0.816407 l -0.12891,0.550782 c -0.0228,0.04566 0.52652,-0.831499 0.9707,-1.386719 a 1.2308509,1.2308509 0 0 0 0.0234,-0.03125 c 0.44939,-0.599206 1.39959,-2.030848 2.10156,-2.966797 a 1.2308509,1.2308509 0 0 0 0.0391,-0.05469 c 0.70611,-1.05916 1.5007,-2.064509 1.85352,-2.59375 l -0.15234,0.1875 c 0.4677,-0.467701 0.89842,-1.039059 1.21875,-1.679688 l -0.11719,0.1875 c 0.39036,-0.520476 1.00225,-1.374394 1.45898,-1.945312 0.45668,-0.570849 1.33422,-1.560904 1.91602,-2.433594 l -0.0625,0.08594 c 0.53196,-0.664964 1.16668,-1.526059 1.51562,-1.875 a 1.2308509,1.2308509 0 0 0 0.0547,-0.06055 c 0.46103,-0.526885 0.96647,-1.158221 1.36914,-1.689453 0.20134,-0.265616 0.37564,-0.502779 0.51172,-0.701172 0.068,-0.0992 0.12495,-0.187376 0.18164,-0.283203 0.0128,-0.0217 0.0276,-0.0537 0.041,-0.07813 0.10657,-0.123702 0.20287,-0.230009 0.35351,-0.423828 0.22273,-0.286562 0.50403,-0.663825 0.81446,-1.097656 l 0.0176,-0.02344 c 0.35984,-0.479685 0.63926,-0.851824 0.85547,-1.175781 0.22057,-0.330483 0.48633,-0.528504 0.48633,-1.269531 0,-0.802354 -0.46478,-1.354591 -0.88672,-1.714844 -0.42193,-0.360253 -0.88739,-0.607751 -1.35937,-0.816406 -0.94396,-0.41731 -1.71927,-0.675781 -2.56836,-0.675781 -0.50761,0 -1.06465,0.116361 -1.5,0.396484 -0.43535,0.280124 -0.68388,0.605338 -0.94336,0.929688 a 1.2308509,1.2308509 0 0 0 -0.14063,0.21875 l -0.0684,0.136718 c -0.46216,0.513673 -0.90779,1.118736 -1.06054,1.271485 a 1.2308509,1.2308509 0 0 0 -0.11328,0.132812 c -0.19556,0.260746 -0.45144,0.614198 -0.6875,0.96875 -0.23606,0.354552 -0.44215,0.615508 -0.60743,1.111328 l 0.14454,-0.294922 c -0.14212,0.21317 -0.78731,1.006129 -1.19727,1.552735 l 0.11328,-0.132813 c -0.69748,0.697476 -1.61535,1.903607 -2.7207,3.417969 -1.02733,1.407478 -2.17073,3.054438 -3.24414,4.626953 -2.05395,0.762406 -4.4754,1.657357 -5.72266,1.865235 a 1.2308509,1.2308509 0 0 0 -0.082,0.01758 c -2.50397,0.596183 -4.73993,0.832031 -7.12891,0.832031 -2.64341,0 -5.02475,-0.239183 -7.55273,-0.720703 a 1.2308509,1.2308509 0 0 0 -0.0293,-0.0059 l -0.74219,-0.123046 a 1.2308509,1.2308509 0 0 0 -0.20117,-0.01563 c -0.2897,0 -0.99194,-0.25049 -1.04687,-0.28711 -0.47544,-0.316956 -1.00331,-0.586392 -1.5293,-0.761719 -0.60762,-0.202539 -1.77661,-0.954445 -2.57812,-1.847656 -0.80152,-0.893211 -1.17555,-1.839966 -1.05469,-2.414062 l -0.002,0.0039 c 0.47116,-2.198789 -0.64977,-4.350795 -2.79297,-5.636719 a 1.2308509,1.2308509 0 0 0 -0.082,-0.04687 c -0.12505,-0.06252 -0.78007,-0.636508 -1.39649,-1.101562 -0.15242,-0.174364 -0.30333,-0.366293 -0.45898,-0.494141 -0.12233,-0.100474 -0.24045,-0.188058 -0.37891,-0.271484 -0.13846,-0.08343 -0.13942,-0.240235 -0.78711,-0.240235 l 0.54688,0.128907 -0.24805,-0.123047 a 1.2308509,1.2308509 0 0 0 -0.54688,-0.128907 c -1.42279,0 -2.5245,0.89353 -3.63086,2.136719 -0.002,0.0026 -0.005,0.0032 -0.008,0.0059 -3.77531,4.029549 -9.93576,11.433393 -12.08008,16.660156 l 0.0371,-0.08398 c -0.12393,0.247853 -0.24405,0.489281 -0.33789,0.664063 -0.0938,0.174782 -0.27934,0.359414 -0.0488,0.128906 A 1.2308509,1.2308509 0 0 0 171.03125,88.5 c 0,-0.38006 0.0424,-0.289038 0.0293,-0.251953 -0.0131,0.03708 -0.0457,0.122245 -0.0859,0.226562 -0.0804,0.208635 -0.19204,0.496682 -0.27734,0.837891 a 1.2308509,1.2308509 0 0 0 -0.0371,0.298828 c 0,-0.346747 0.0236,-0.211928 -0.0156,-0.07422 -0.0315,0.110472 -0.067,0.323436 -0.0859,0.554688 -0.2785,1.311569 -0.45163,2.983613 -0.2539,4.169922 a 1.2308509,1.2308509 0 0 0 0.0215,0.0957 c 0.15583,0.623303 0.41821,1.308954 0.9336,1.917969 0.51538,0.609014 1.37396,1.115234 2.36132,1.115234 1.33373,0 2.57555,-0.610393 3.77344,-1.335938 1.19789,-0.725544 2.27605,-1.583057 2.98633,-2.451171 l -0.082,0.0918 c 0.46776,-0.467765 1.05996,-1.114495 1.36719,-1.298828 a 1.2308509,1.2308509 0 0 0 0.23828,-0.183593 c 0.49423,-0.494231 1.11227,-1.112283 1.35937,-1.359375 a 1.2308509,1.2308509 0 0 0 0.1836,-0.238282 c 0.22155,-0.369256 0.97112,-1.166797 2.59375,-3.039062 l -0.0586,0.06445 c 0.63983,-0.639821 1.30588,-1.55392 1.48242,-1.730469 a 1.2308509,1.2308509 0 0 0 0.15235,-0.1875 c 0.72964,-1.094455 1.87836,-2.74151 2.28515,-3.25 l -0.0898,0.101563 c 0.53829,-0.538297 0.76269,-1.010742 1.11133,-1.359375 a 1.2308509,1.2308509 0 0 0 0.15234,-0.1875 c 0.19542,-0.293126 0.32746,-0.439404 0.4043,-0.515625 0.0169,0.008 -0.0344,-0.01734 0.0644,0.04687 0.20298,0.131892 0.55197,0.41315 1.03516,0.835937 a 1.2308509,1.2308509 0 0 0 0.0312,0.02734 c 4.3142,3.529791 9.69452,5.21875 15.72851,5.21875 0.74078,0 1.45325,0.0032 2.30469,-0.138672 l -0.20312,0.01563 c 0.77579,0 1.54111,-0.03242 2.16601,-0.08203 0.31245,-0.02481 0.58919,-0.05262 0.82813,-0.08789 0.23893,-0.03527 0.33989,0.0068 0.76757,-0.207031 l -0.1621,0.06641 c 0.13479,-0.04493 0.88676,-0.183594 1.34179,-0.183594 A 1.2308509,1.2308509 0 0 0 215.625,86 c 0.39317,-0.07863 1.03588,-0.236115 1.63672,-0.394531 -0.40458,0.671464 -0.67467,1.177135 -1.64844,2.55664 a 1.2308509,1.2308509 0 0 0 -0.0371,0.05664 c -0.95104,1.521675 -2.35765,3.956122 -3.56055,6.503906 -1.19989,2.541417 -2.22658,5.121214 -2.30664,7.306644 -0.0785,1.46107 0.54305,2.7473 1.47266,3.57422 0.93143,0.82853 2.11455,1.26504 3.30664,1.41406 a 1.2308509,1.2308509 0 0 0 0.15234,0.01 h 0.99024 0.49414 A 1.2308509,1.2308509 0 0 0 216.38281,107 c 2.05408,-0.44017 4.44769,-1.74839 6.99219,-3.5293 l 0.002,-0.002 c 3.01125,-2.09514 10.27309,-8.286947 15.13867,-12.896484 l 0.0781,-0.06836 c 0.63917,-0.514537 1.45596,-1.205966 2.00195,-1.751953 0.49423,-0.494229 1.35878,-1.358774 1.97657,-1.976562 1.48279,-1.482785 2.44973,-2.450675 3.91406,-3.792969 l -0.0449,0.03711 c 0.8036,-0.669674 1.56723,-1.434417 1.9375,-1.804687 0.46696,-0.466968 1.06041,-1.183466 1.48242,-1.605469 0.42171,-0.421706 1.42219,-1.272866 2.0664,-2.078125 l -0.0898,0.101562 c 0.61778,-0.61778 1.60682,-1.606828 2.22461,-2.224609 a 1.2308509,1.2308509 0 0 0 0.0898,-0.101562 c 0.39398,-0.492481 1.3926,-1.503925 1.76368,-1.875 0.48812,-0.488125 1.33509,-1.337041 1.95117,-1.953125 l 0.0254,-0.02344 2.19922,-2.078125 -0.0586,0.05078 c 0.84118,-0.700983 2.13633,-2.007059 3.11914,-2.990234 l 0.0527,-0.04883 c 1.12467,-1.004664 2.22896,-2.103963 2.47265,-2.347656 a 1.2308509,1.2308509 0 0 0 0.15235,-0.1875 c 0.35185,-0.527759 0.51503,-1.035337 0.63867,-1.40625 a 1.2308509,1.2308509 0 0 0 0.0625,-0.388672 c 0,-0.475152 -0.11338,-0.608628 -0.20898,-0.798828 -0.065,-0.129335 -0.17104,-0.256931 -0.27149,-0.384766 -0.26688,-0.412785 -0.52887,-0.619435 -0.83984,-0.857422 -0.33173,-0.253869 -0.70619,-0.500749 -1.08594,-0.728516 -0.37975,-0.227766 -0.75977,-0.433526 -1.10938,-0.595703 -0.3496,-0.162176 -0.48827,-0.335937 -1.17578,-0.335937 z m 20.14063,0.740234 c -0.80202,0 -1.39772,0.483396 -1.71875,0.921875 -0.30511,0.416732 -0.45781,0.804588 -0.47461,1.351563 -0.14524,0.907904 -0.15296,2.048971 0.11328,3.203125 0.13937,0.604174 0.3425,1.201748 0.74219,1.746093 0.39969,0.544346 1.12773,1.044922 1.95508,1.044922 0.73622,0 0.9859,-0.275546 1.30468,-0.564453 0.31879,-0.288906 0.6159,-0.678459 0.75391,-1.230469 l -0.0918,0.251954 c 0.0496,-0.09924 0.45167,-0.784914 0.66407,-1.103516 0.14195,-0.212933 0.25727,-0.401647 0.35546,-0.599609 0.0898,-0.18107 0.18312,-0.374334 0.20118,-0.75586 0.10214,-1.172734 -0.466,-2.032171 -1.11719,-2.779297 -0.66509,-0.76307 -1.44795,-1.486328 -2.6875,-1.486328 z m 48.80469,10.996094 c -2.40558,0 -4.93627,1.371339 -7.53907,3.197266 -2.51579,1.764888 -5.02365,4.035545 -7.16797,6.216796 -1.47681,0.605286 -2.70411,1.14291 -4.21484,1.646485 l 0.0508,-0.01563 c -1.10234,0.314955 -3.44619,1.272219 -5.77148,2.128906 -1.25112,0.438373 -2.462,0.904183 -3.41602,1.273438 -0.95952,0.371384 -1.82658,0.678325 -1.76953,0.664062 a 1.2308509,1.2308509 0 0 0 -0.0898,0.02539 c -0.4058,0.135267 -0.96424,0.369612 -1.48438,0.61914 -0.005,0.0022 -0.009,0.0017 -0.0137,0.0039 l -1.09766,0.365234 a 1.2308509,1.2308509 0 0 0 -0.043,0.01563 c -2.0032,0.751197 -4.10407,1.616171 -6.05469,2.347656 -0.5842,0.196205 -1.22342,0.439654 -1.7793,0.650391 -0.5693,0.215823 -1.11711,0.407208 -1.17578,0.421875 a 1.2308509,1.2308509 0 0 0 -0.1582,0.05078 c -0.51147,0.204589 -2.04722,0.718886 -3.33594,1.234375 a 1.2308509,1.2308509 0 0 0 -0.043,0.01758 c -1.05052,0.466901 -2.50689,0.980239 -2.76562,1.044922 a 1.2308509,1.2308509 0 0 0 -0.0899,0.02539 c -0.35752,0.119173 -1.08202,0.363525 -1.73437,0.621093 -0.27606,0.07391 -0.54187,0.156812 -0.7461,0.220704 -0.23049,0.07211 -0.50612,0.08398 -0.21875,0.08398 -0.46862,0 -0.47261,0.05717 -0.6914,0.107422 -0.21879,0.05026 -0.47099,0.113842 -0.71875,0.175781 -0.50598,0.126494 -1.01451,0.294997 -1.4961,0.505859 -0.29714,0.02939 -0.57164,0.06261 -0.89258,0.136719 -0.42025,0.09704 -0.88232,0.221614 -1.31835,0.345703 -0.001,3.36e-4 -0.003,-3.35e-4 -0.004,0 -1.88225,0.470224 -3.76983,0.705078 -5.38086,0.705078 -0.74113,0 -1.46827,-0.01275 -2.01367,-0.128906 -0.5454,-0.116155 -0.84527,-0.280072 -1.05664,-0.582031 a 1.2308509,1.2308509 0 0 0 -0.0234,-0.0332 l -0.041,-0.05469 0.26172,-1.30664 0.002,-0.0059 c 0.88817,-4.317799 5.24963,-10.787362 8.38476,-14.52539 a 1.2308509,1.2308509 0 0 0 0.01,-0.01172 c 0.54545,-0.666666 0.9373,-1.116616 1.24023,-1.507813 0.30294,-0.391196 0.64453,-0.760507 0.64453,-1.49414 v -0.494141 a 1.2308509,1.2308509 0 0 0 -0.1289,-0.550781 c -0.2088,-0.417589 -0.385,-0.562733 -0.58008,-0.775391 -0.19508,-0.212657 -0.39237,-0.409948 -0.51563,-0.533203 a 1.2308509,1.2308509 0 0 0 -0.32031,-0.230469 c -0.24739,-0.123695 -0.50889,-0.254219 -0.77734,-0.36914 -0.26845,-0.114921 -0.47611,-0.253906 -1.00977,-0.253906 -0.86355,0 -1.45972,0.413644 -2.03906,0.888671 -0.57934,0.475028 -1.14408,1.088299 -1.72852,1.808594 -1.16886,1.440592 -2.39868,3.316793 -3.56054,5.271485 -1.16187,1.954691 -2.24784,3.981823 -3.08985,5.699218 -0.842,1.717396 -1.42754,3.012894 -1.65234,3.957032 a 1.2308509,1.2308509 0 0 0 -0.0176,0.08203 c -0.25262,1.51573 -0.2572,2.206164 -0.11523,2.916015 a 1.2308509,1.2308509 0 0 0 0.0391,0.146485 c 0.072,0.215932 0.21062,0.852248 0.3457,1.392578 l -0.0332,-0.191406 c 0.1787,2.055136 1.82076,3.40651 3.51758,4.228515 1.69682,0.822005 3.59132,1.21875 5.12304,1.21875 4.61472,0 10.04361,-1.76223 14.28516,-3.378906 0.02,-0.0054 0.0328,-0.01014 0.0527,-0.01563 0.019,-0.0073 0.0436,-0.01424 0.0625,-0.02148 0.67225,-0.187906 1.31001,-0.395893 1.78321,-0.558594 0.25192,-0.08662 0.46254,-0.159437 0.60351,-0.207031 0.0705,-0.0238 0.12565,-0.0413 0.14453,-0.04687 0.0189,-0.0056 0.14312,0.02734 -0.25195,0.02734 a 1.2308509,1.2308509 0 0 0 0.38867,-0.0625 c 0,0 0.71968,-0.239939 1.55469,-0.478515 a 1.2308509,1.2308509 0 0 0 0.14649,-0.05273 c 0.78583,-0.336785 1.92911,-0.71177 2.28515,-0.800781 a 1.2308509,1.2308509 0 0 0 0.1211,-0.03711 c 1.32059,-0.480216 2.81391,-0.978141 4.23828,-1.621094 l 0.043,-0.01758 c 0.5739,-0.228319 1.45315,-0.553866 2.08007,-0.859375 0.81863,-0.233614 1.433,-0.397093 5.29688,-1.966797 a 1.2308509,1.2308509 0 0 0 0.0371,-0.01563 c 1.01114,-0.449398 2.104,-0.74048 2.89258,-1.134766 l -0.16211,0.06641 c 0.4247,-0.141565 0.93662,-0.342545 1.32617,-0.53125 0.44403,-0.152542 1.0197,-0.380948 1.55469,-0.648438 l -0.0664,0.0293 c 0.194,-0.08314 1.23799,-0.512379 1.72852,-0.714844 -0.76178,1.444863 -1.4105,2.952994 -1.69336,4.546875 -0.61516,3.221783 0.2813,5.962225 2.13281,7.740235 1.85266,1.779121 4.51655,2.613281 7.35547,2.613281 1.90823,0 4.24795,-0.11184 5.78125,-0.39062 a 1.2308509,1.2308509 0 0 0 0.11718,-0.0273 c 0.38781,-0.1108 0.89194,-0.22995 1.32422,-0.3164 0.43228,-0.0865 0.89666,-0.13086 0.8086,-0.13086 a 1.2308509,1.2308509 0 0 0 0.17383,-0.0117 c 0.4395,-0.0628 0.86853,-0.19482 1.52734,-0.38867 0.65881,-0.193858 1.45658,-0.443892 2.27539,-0.708989 1.63761,-0.530196 3.30953,-1.102279 4.15625,-1.455079 l -0.084,0.03125 c 0.81779,-0.272595 1.74951,-0.649291 2.01171,-0.714843 l -0.29882,0.03711 c 0.43444,0 0.58459,-0.08524 0.82226,-0.162109 0.23767,-0.07687 0.49027,-0.170414 0.75977,-0.273438 0.539,-0.206047 1.14427,-0.447178 1.64843,-0.615234 a 1.2308509,1.2308509 0 0 0 0.11133,-0.04297 c 0.54103,-0.240455 1.12033,-0.484959 1.59766,-0.685547 0.42933,-0.180416 0.69296,-0.287828 0.94141,-0.40625 0.0606,-0.01919 0.16819,-0.0225 0.23046,-0.04297 0.18264,-0.06003 0.36961,-0.134471 0.57227,-0.222656 0.38104,-0.1658 0.8183,-0.388057 1.25977,-0.636719 1.0979,-0.419755 2.81451,-1.220487 3.88085,-1.695312 l 0.043,-0.01758 c 1.25862,-0.50456 2.96008,-1.235395 3.81446,-1.601563 0.45174,-0.193605 0.86296,-0.383092 1.16211,-0.517578 0.14957,-0.06724 0.2735,-0.120895 0.34179,-0.148437 0.0341,-0.01377 0.0549,-0.0201 0.041,-0.01563 -0.0139,0.0045 -0.009,0.04102 -0.30078,0.04102 0.44098,0 0.47326,-0.07633 0.59179,-0.121093 0.11854,-0.04476 0.22667,-0.09344 0.3418,-0.146485 0.23027,-0.106085 0.48293,-0.231699 0.73047,-0.355469 a 1.2308509,1.2308509 0 0 0 0.082,-0.04687 c 0.34923,-0.209541 1.78458,-0.763381 2.88281,-1.3125 0.91511,-0.457549 2.90437,-1.331088 4.36914,-1.941406 a 1.2308509,1.2308509 0 0 0 0.0371,-0.01563 c 1.30332,-0.592418 2.63086,-1.078125 2.63086,-1.078125 l -0.42187,0.07422 c 0.44013,0 0.47888,-0.07792 0.60156,-0.125 0.12268,-0.04708 0.23572,-0.09981 0.36523,-0.160156 0.24525,-0.114258 0.54731,-0.264868 0.89258,-0.4375 0.008,-0.0035 0.006,-4.21e-4 0.0137,-0.0039 3.30213,-1.466919 4.92198,-2.043956 5.57032,-2.125 a 1.2308509,1.2308509 0 0 0 0.14648,-0.02734 c 0.24599,-0.0615 0.50476,-0.1219 0.76758,-0.208985 0.13141,-0.04354 0.25942,-0.08564 0.44531,-0.191406 0.0929,-0.05288 0.20591,-0.118442 0.35156,-0.273437 0.003,-0.0027 0.003,-0.01283 0.006,-0.01563 0.0799,-0.05419 0.21452,-0.143946 0.35547,-0.347657 0.15035,-0.217289 0.24024,-0.539115 0.24024,-0.773437 0,-0.653979 -0.1036,-0.996218 -0.375,-1.539063 a 1.2308509,1.2308509 0 0 0 -0.23047,-0.320312 c -0.39325,-0.393243 -0.81661,-0.601661 -1.0625,-0.72461 a 1.2308509,1.2308509 0 0 0 -0.55078,-0.128906 h -0.12305 c -0.65579,0 -1.00487,0.165817 -1.59375,0.359375 -0.58888,0.193558 -1.26782,0.446209 -1.94727,0.714844 -1.35889,0.53727 -2.60192,1.066337 -3.24804,1.435547 l 0.0605,-0.0332 c -0.34635,0.173175 -1.07677,0.424955 -1.47851,0.52539 a 1.2308509,1.2308509 0 0 0 -0.18555,0.0625 c -0.80044,0.343047 -4.79646,1.962684 -7.35547,3.242188 -0.47574,0.237871 -0.92462,0.44676 -1.2539,0.589844 -0.16465,0.07154 -0.30012,0.128112 -0.38086,0.158203 -0.0404,0.01505 -0.0681,0.02314 -0.0625,0.02148 0.006,-0.0017 -0.023,-0.0332 0.26953,-0.0332 -0.36653,0 -0.31161,0.0378 -0.36719,0.05273 -0.0556,0.01493 -0.10284,0.02849 -0.1543,0.04492 -0.10291,0.03287 -0.22302,0.07485 -0.36914,0.126953 -0.29222,0.104216 -0.68201,0.248625 -1.14648,0.429688 -0.92894,0.362126 -2.15048,0.862834 -3.41016,1.429687 -6.0218,2.580272 -10.08758,4.181769 -12.03515,4.91211 -0.75945,0.254179 -2.03775,0.725282 -3.16797,1.220703 -0.55626,0.185421 -1.11147,0.370102 -1.5332,0.505859 -0.21087,0.06788 -0.38896,0.123471 -0.50782,0.158203 -0.0594,0.01737 -0.10657,0.02965 -0.12109,0.0332 -0.0145,0.0036 -0.0898,-0.01758 0.20312,-0.01758 -0.44097,0 -0.397,0.0505 -0.52148,0.08398 -0.12448,0.03348 -0.26176,0.07368 -0.41992,0.121093 -0.31632,0.09482 -0.70927,0.216601 -1.12696,0.335938 a 1.2308509,1.2308509 0 0 0 -0.14648,0.05273 c -0.65589,0.281095 -1.85726,0.540204 -2.47656,0.664063 a 1.2308509,1.2308509 0 0 0 -0.21485,0.06445 c -0.38086,0.152347 -1.20864,0.227372 -2.07031,0.658203 l 0.1836,-0.07227 c -1.81542,0.567319 -3.90194,0.808594 -6.79883,0.808594 -2.32891,0 -2.90747,-0.0061 -3.58594,-0.197265 -0.87918,-0.303509 -1.38498,-0.820956 -1.42383,-0.9375 0.0576,0.172717 -0.0488,-0.716754 0.13867,-1.373047 a 1.2308509,1.2308509 0 0 0 0.0352,-0.164063 c 0.11185,-0.782964 0.3764,-1.844602 0.625,-2.341797 a 1.2308509,1.2308509 0 0 0 0.002,-0.0039 l 0.1211,-0.248047 a 1.2308509,1.2308509 0 0 0 0.0195,-0.03711 c 0.30646,-0.674203 0.81813,-1.786422 1.41992,-2.857422 0.58311,-1.037761 1.28102,-2.000257 1.77344,-2.435547 0.15402,-0.07479 0.32429,-0.164062 0.38086,-0.164062 -0.35329,0 -0.19614,-0.01789 -0.0254,0.02539 0.17074,0.04328 0.44194,0.09961 0.76562,0.09961 h 0.74219 c 1.22824,0 2.56168,-0.427739 4.04297,-1.072266 1.48129,-0.644527 3.07282,-1.529876 4.58398,-2.550781 3.02232,-2.041811 5.81863,-4.429272 6.41406,-7.236328 a 1.2308509,1.2308509 0 0 0 0.0274,-0.25586 v -0.248047 c 0,-0.696797 -0.14016,-1.440491 -0.49805,-2.15625 a 1.2308509,1.2308509 0 0 0 -0.0781,-0.132812 c -0.15851,-0.237756 -0.3454,-0.484778 -0.50977,-0.708985 -0.16437,-0.224206 -0.32564,-0.491129 -0.27734,-0.394531 a 1.2308509,1.2308509 0 0 0 -0.41797,-0.472656 c -0.52831,-0.352197 -1.21988,-0.578125 -1.91992,-0.578125 z m -143.14063,5.691406 c 0.14651,1.024669 0.11914,0.455663 0.0742,1.222656 -0.0886,0.349727 -0.22302,0.753698 -2.0332,3.529297 a 1.2308509,1.2308509 0 0 0 -0.0703,0.123047 l -0.21875,0.441406 c -0.42519,0.739984 -1.05465,1.482392 -1.15625,1.583985 -0.24878,0.24879 -0.77596,0.770949 -1.22461,1.36914 a 1.2308509,1.2308509 0 0 0 -0.0391,0.05469 c -0.62434,0.936508 -2.07207,2.52802 -3.73242,3.951172 a 1.2308509,1.2308509 0 0 0 -0.0703,0.0625 c -0.61778,0.617781 -1.35837,1.358375 -1.60547,1.605469 a 1.2308509,1.2308509 0 0 0 -0.0898,0.101562 c -0.11981,0.149757 -0.82893,0.60635 -1.40625,1.023438 0.29099,-0.528717 0.5806,-1.059195 0.98828,-1.716797 1.10381,-1.780522 2.57211,-3.930707 4.09765,-5.990235 1.52554,-2.059528 3.11422,-4.035313 4.4375,-5.458984 0.66165,-0.711836 1.2611,-1.286511 1.71485,-1.646484 0.29211,-0.231738 0.26836,-0.215499 0.33398,-0.25586 z"
       transform="translate(-4.9436134,-8.451093)" /></g></svg>
