<svg xmlns="http://www.w3.org/2000/svg" id="_レイヤー_1" data-name="レイヤー 1" viewBox="0 0 930.34 189.3"><defs><filter id="drop-shadow-1" filterUnits="userSpaceOnUse"><feOffset dx="2" dy="2"/><feGaussianBlur result="blur" stdDeviation="5"/><feFlood flood-color="#2d0e04" flood-opacity=".55"/><feComposite in2="blur" operator="in"/><feComposite in="SourceGraphic"/></filter><style>.cls-2{fill:#fff;stroke-width:0}</style></defs><g style="filter:url(#drop-shadow-1)"><path d="M165.11 50.7c.02-.11.02-.21.01-.32l-.03-.37c-.02-1.48-.69-2.97-1.79-3.99-.97-.9-2.18-1.35-3.4-1.26-2.5.17-5.35 1.89-7.78 3.46l-.51.31c-.49.3-1 .61-1.4.78-.06.03-.12.05-.18.09-16.67 9.66-45.8 42.71-58.42 59.09 5.77-10.02 16.16-29.66 16.01-36.42 0-1.94-.68-3.58-1.93-4.74-1.47-1.36-3.63-1.99-6.23-1.8-11.41.8-38.49 28.94-44.45 36.14l-1 1.39-.48.6c-.6.74-1.22 1.51-1.85 2.28 1.38-2.29 2.83-4.55 4.27-6.74 2.65-4.27 5.24-8.6 7.73-12.79l.11-.19c3.11-5.27 6.33-10.73 9.85-15.75 4.32-6.17 7.72-11.68 10.12-16.38.18-.35.21-.77.09-1.14-.56-1.72-2.53-4.17-4.95-4.01-.99.07-1.84.13-8.68 12.17-3.42 6.03-6.71 12.23-7.46 13.83-3.67 7.67-8.28 15.68-13.5 24.63-.69 1.24-1.38 2.46-2.07 3.67-1.04 1.83-2.06 3.63-3.03 5.4-7.36 12.9-15.28 26.56-24.11 39.18-.63.8-6.54 10.29-7.47 12.51-1.66 3.51-3.32 6.17-5.09 8.12-.3.29-1.5 1.5-1.66 2.79-.01.1-.01.19 0 .29l.02.23c.07 1.07.82 2 2.1 2.62.8.39 1.73.62 2.49.62h.24c.91-.06 2.43-.17 7.22-10.42.13-.26.25-.52.35-.76.07-.17.13-.32.15-.36.08-.09.14-.18.2-.29 3.88-7.38 8.36-14.59 12.7-21.56l1.21-1.94c2.32-3.71 4.87-7.67 7.73-11.46 14.88-19.55 34.1-43.28 50.71-53.37l.68-.4c1.89-1.15 6.92-4.22 9.91-4.43h.24v.33c0 .08.01.16.01.22-.03.1-.06.2-.07.3-1.03 8.84-12 27.86-20.83 43.15l-.34.59c-7.58 13.01-13.01 22.57-13.61 26.59-.15.45-.12.78-.11.95 0 1.38.58 2.74 1.55 3.63.84.79 1.93 1.18 3.03 1.09.67-.05 1.34-.43 1.99-1.13.22-.09.42-.23.58-.41.67-.77 3.84-6.42 5.29-9.08.77-1.31 1.48-2.56 2.07-3.59.58-1.02 1.04-1.83 1.26-2.19 11.24-16.63 60.64-77.44 77.43-80.78-.78 3.37-4.43 10.37-7.13 15.57l-1.19 2.22c-.59 1.1-1.11 2.06-1.51 2.85-4 8.29-8.3 16.62-12.49 24.71l-.63 1.2c-8.26 15.78-16.8 32.09-23.05 48.96l-.23.59c-1.8 4.71-3.66 9.58-4.23 14.42-.01.09-.01.19 0 .28v.08c-.14 1.17-.29 2.36-.21 3.42.03 1.72.5 2.97 1.42 3.82.99.91 2.4 1.28 4.33 1.15 1.31-.09 1.96-1.08 2.35-1.68.18-.27.26-.6.24-.92-.03-.42-.1-.77-.15-1.04-.02-.12-.05-.23-.06-.32 0-.08-.02-.15-.03-.22l-.12-.52c-.27-1.17-.48-2.09-.47-3.27-.3-15.42 25.53-65.24 34.6-81.48 4.5-8.09 12.88-23.15 13.7-28.79ZM319.99 92.36c-.44-.39-.86-.56-1.14-.67-.21-.09-.44-.13-.67-.11h-.12c-1.3.1-5.67 2.41-6.22 2.78-.33.2-.9.43-1.26.55-.07.02-.15.05-.22.09l-.64.32c-1.34.67-4.12 2.06-5.98 3.16-.77.45-1.34.74-1.47.8.01 0 .14-.05.35-.07-.83.08-5 2.3-5.01 2.31-6.25 3.21-9.86 4.88-10.77 5.3-.74.31-1.95.85-2.95 1.38h-.03c-.64.28-1.51.63-1.78.73-.22.05-.48.14-.99.34-.23.09-.49.19-.77.29-.06.02-.12.05-.17.07-.63.33-1.67.61-2.18.75-.09.02-.17.06-.25.09-.2.1-.45.18-.68.25-.37.12-.75.25-1.09.43-1.56.6-3.43.95-6.04 1.13-2.14.15-2.67.18-3.19.07-.81-.21-1.12-.52-1.14-.53-.03-.11-.07-.57.04-1.12l.03-.2c.06-.85.21-1.65.4-2.09l.12-.29c.95-2.54 1.78-4.2 2.47-4.94.04-.02.08-.05.12-.07.18.03.44.06.75.04l.68-.05c3.89-.27 12.89-6.71 13.54-11.32.01-.11.02-.21.01-.32l-.02-.22c-.05-.73-.29-1.5-.65-2.12-.03-.05-.07-.1-.1-.15-.11-.15-.27-.34-.43-.52-.14-.17-.29-.33-.35-.42-.13-.22-.32-.41-.54-.53-.64-.36-1.27-.5-2.02-.46-4.61.32-11.02 6.82-14.69 11.48a1.41 1.41 0 0 0-.11-.46c-.42-1.03-1.27-1.61-2.23-1.56l-.46.03c-.06 0-.12.01-.18.02-5 .98-21.11 10.85-25.04 13.44-1.42 1.01-2.51 1.78-6.91 4.85-.84.61-1.75 1.31-2.26 1.74-.78-1.74-2.55-4.12-4.74-4.43-.11-.01-.15-.02-.25-.01-.07 0-.35-.07-.73-.23-.44-.22-1.09-.35-2.53-.62-.32-.06-.65-.12-.94-.18-2.09-.44-2.94-.76-3.28-.95.61-1.79 5.36-6.79 8.34-9.27l.38-.33c4.65-3.68 12.01-8.66 15.98-10.17-.21.5-.25.81-.26 1-.08 1.03.53 2.28 1.21 2.87.16.13.34.24.53.3.32.17.7.21 1.05.12 2.63-.66 5.31-4.2 5.58-6.48.28-1.88-.26-3.86-1.37-5.07-.83-.9-1.97-1.35-3.18-1.27-7.61.53-24.19 13.89-28.79 19.98l-.06.09-.22.34s-.06.07-.09.1c-.06-.19-.15-.36-.28-.51-.72-.83-1.58-1.18-2.66-1.11-.72.05-1.52.24-2.44.57-.05.02-.09.04-.14.06-.45.22-1.14.47-1.55.61-1.53.44-5.51 2.01-6.16 2.39-.1.06-.2.13-.28.22-.11.07-.42.2-.79.3-1.03.28-1.89.59-2.55.92-.32.12-.65.23-.96.33-.45.16-.84.29-1.04.38-.3.12-.91.38-1.39.51-.07.02-.14.04-.21.08-1 .44-2.89 1.14-5.23 1.79-.71.14-1.6.41-2.25.6-.25.07-.46.14-.71.21-1.7.58-3.59 1-4.93 1.1-.83.06-1.27-.01-1.49-.07.31-1.69 2.54-5.63 4.54-8.69.54-.67.78-1.41.85-1.71.04-.15.05-.31.04-.47-.02-.3-.05-.81-.36-1.33-.06-.1-.12-.19-.2-.27-.03-.06-.06-.13-.09-.19a4.36 4.36 0 0 0-.32-.59c-.55-1.3-1.66-2.16-2.79-2.07l-.23.02c-.1 0-.2.02-.29.05-.83.23-1.79.97-4.17 4.03l-1.22 1.4c-.59.56-1.32 1.4-1.87 2.02-.17.2-.37.41-.56.61-.37.4-.65.71-.86.98-.6.44-1.17 1.17-1.51 1.65-.55.63-1.88 2.04-2.89 3.08-1.12 1.16-2.32 2.54-2.72 3-.04.04-.07.09-.1.13-.29.41-.82.83-1.08 1.02-.08.06-.12.1-.19.17-.1.09-.26.22-.45.36-.09.07-.19.15-.29.23 1.79-4.34 6.59-11.79 9.15-14.21 1.11-1.07 1.52-1.48 1.72-1.96.07-.16.11-.34.12-.52.05-1.2-.76-2.44-1.54-3.19-.84-.82-1.8-1.24-2.67-1.17-3.18.22-8.64 12.19-9.2 13.43-.07.12-.14.25-.2.39-.08.15-.14.3-.2.38-.07.07-.12.16-.17.24-1.43 2.51-2.58 5.6-2.98 8.04 0 .03-.01.07-.01.1-.18 1.84.56 4.12 2.67 5.08.38.15.73.19 1.01.19.14 0 .26 0 .36-.02.6-.04 1.27-.27 1.94-.67 2.21-1.42 5.42-4.7 7.76-7.23l.47-.54c.26-.24.49-.5.69-.73.12-.14.24-.28.33-.37.08-.06.15-.13.21-.2l1.28-1.47.09-.12c.17-.24.4-.51.66-.78-.05 2.11 1.09 3.86 1.82 4.76.05.07.11.13.18.19.56.49 1.21 1.03 1.79 1.27l.83.4c.24.11.5.17.75.14l1.71-.12c2.12-.15 4.1-.54 5.11-1 .12-.04.31-.09.54-.15.39-.1.87-.23 1.34-.39.93-.21 2.21-.67 2.74-.93.46-.19 1.17-.41 1.64-.56l.43-.14c1.68-.61 4.52-1.75 5.51-2.16.33-.16.67-.27.79-.3.29-.04.51-.15.84-.31.25-.12.62-.3 1.02-.45.06-.02.12-.05.17-.07.56-.29 1.33-.54 1.8-.68l.22-.07s.07-.02.1-.04c.1-.04.24-.09.42-.16.43-.16.97-.35 1.41-.56 3.06-1.22 4.47-1.77 6.17-2.32.31-.07.63-.14.94-.22-.85 1.29-1.4 2.5-1.54 3.92-.28 2.63 1.13 5.12 3.42 6.08.9.38 3.57 1.04 6.56 1.62 1.16.16 2.84.95 2.87 1.79l-.21.8-.33.79-1.04 1c-4.29 3.95-5.86 5.71-6.51 7.28-.1.18-.15.35-.19.48-.12.24-.18.51-.16.78 0 .02.24 2.56 1.12 3.58l.15.15c.29.26.77.67 1.54.67h.15c3.86-.27 8.82-8.4 9.57-10.31.94-1.93 13.42-11 17.07-13.32 6.25-4.05 15.85-9.02 17.92-9.47.19-.05.41-.1.65-.18-.27.4-.51.76-.7 1.08-1.23 2.15-1.99 4.35-2.19 6.33-.41 3.44.85 5.57 1.97 6.76 1.62 1.7 4.11 2.64 6.94 2.64.3 0 .6-.01.91-.03 1.56-.11 3.91-.37 5.38-.75.05-.01.09-.03.14-.04.75-.27 1.66-.51 1.85-.53.07 0 .14-.01.21-.03.99-.21 5.84-2.19 7.23-2.88.28-.12.58-.25.86-.38.29-.13.57-.27.78-.35.39-.08.84-.28 1.63-.65.37-.17.77-.36 1.14-.52.04-.02.09-.04.13-.06.53-.28 1.09-.57 1.53-.79.26-.13.49-.25.65-.33.61-.19 1.35-.63 1.95-1.02.71-.33 1.74-.89 2.66-1.38l.81-.43c1.06-.51 2.51-1.25 3.33-1.67l.15-.08c.31-.16.59-.31.84-.45.19-.1.35-.19.46-.25.32-.09.67-.29 1.33-.68.03-.02.07-.04.1-.06.22-.15.72-.41 1.17-.64.47-.24.96-.49 1.38-.74.84-.5 2.6-1.42 3.94-2.09.93-.51 1.89-.95 2.22-1.1.32-.1.68-.32 1.43-.76 2.38-1.26 4.12-2.14 4.93-2.29.06-.01.14-.03.2-.05.5-.16 1.15-.38 1.55-.84.53-.47.58-1.03.56-1.34-.03-.48-.25-1.15-.5-1.57-.08-.13-.18-.25-.29-.35ZM480.38 42.4l.02-.55v-.09c-.13-6.42-2.48-12.32-6.29-15.8-2.92-2.67-6.67-3.93-10.81-3.64-13.47.94-31.52 17.37-55.18 50.22-3.08 4.35-5.88 8.12-7.08 9.53-.32-.07-.69-.12-1.09-.1-.59.04-1.09.26-1.53.61 9.04-16.99 17.64-31.56 25.66-43.49 1.89-2.73 5.09-7.44 5.38-8.34.06-.18.08-.37.07-.56v-.11c-.1-1.26-1.05-2.46-1.46-2.91-.57-.64-1.72-1.71-3.01-1.61l-.23.02c-.29.02-.57.12-.8.3-2.98 2.25-15.54 24.78-16.81 27.37-1.18 2.29-2.36 4.59-3.55 6.91-1.96 3.83-3.93 7.68-5.96 11.55-11.03 21.34-20.34 40.34-28.48 58.09-5.32 11.67-6.43 14.41-6.55 15.2-.02.11-.02.22-.01.33v.12c.09 1.25 1.04 2.42 2.68 3.3.92.49 2.27.98 3.45.98h.27c1.59-.11 1.84-1.81 1.93-2.45l.03-.2c.02-.12.03-.25.02-.37v-.05c.8-4.78 3.08-9.42 5.34-13.74.44-.79.87-1.6 1.32-2.42.69-1.28 1.39-2.58 2.17-3.94 5.72-11.16 11.04-21.18 17.57-30.04 5.4 7.67 13.69 8.83 19.82 8.4 26.03-1.82 58.95-32.92 62.89-59.46.13-1.02.17-2.09.21-3.04Zm-89.74 55.18a770.3 770.3 0 0 1 5.81-11.27c-.27 1-.48 2.09-.65 3.17l-.03.17c-1.61 2.51-3.33 5.18-5.13 7.93Zm56.55-62.28c.32-.22.62-.43.93-.64.75-.52 1.47-1.01 2.13-1.52 4.36-3.03 8.13-5.64 13.62-6.02 3.09-.21 5.6.55 7.47 2.28 2.27 2.09 3.54 5.58 3.59 9.91.04.59 0 1.35-.05 2.08l-.06 1.14c-3.72 25.66-34.18 54.63-59.34 56.39-4.73.33-8.54-.57-10.72-2.52-1.46-1.31-2.25-3.15-2.35-5.47v-.04c-.02-.35 0-.9.07-1.65.4-.89 2.77-4.28 4.07-6.12l.55-.78c10.52-14.67 29.71-40.28 40.08-47.02ZM538.92 83.8c.06-.02.12-.05.17-.08 2.03-1.15 5.49-3.35 6.1-4.05.26-.3.39-.69.37-1.09v-.11c-.09-1.27-1.15-2.56-2.59-2.47-.28.02-.62.04-2.54 1.33-.79.58-1.82 1.19-2.29 1.47-.13.08-.27.15-.42.23-.37.2-.75.41-1.06.65-.14.1-.41.26-.72.44-.39.23-.83.49-1.22.75-.7.36-1.84 1.02-2.45 1.52-2.3 1.51-10.58 5.77-12.79 6.57l-2.02.71-.15.06c-.44.21-1.1.42-1.25.44-.67.05-2.01.5-2.42.65-.29.05-.54.11-.76.15-.47.1-.78.16-1.22.19-2.44.17-4-.15-4.8-.99-.73-.76-.98-2.17-.75-4.14.32-2.16.86-4.23 1.54-5.99.02-.06.04-.11.05-.17.19-.74.55-2.43.7-3.61.1-.58.08-1.13.06-1.41 0-.09-.02-.19-.05-.28-.3-1.11-1.68-2.44-2.34-2.9-.09-.06-.19-.11-.29-.16-.52-.21-1.24-.29-2.06-.24-1.18.08-1.55.25-2.43.71-.17.09-.36.19-.6.31-.03.02-.06.03-.09.05-.3.18-.63.37-.86.49-.92-.67-2.3-1.48-4.04-1.34-2.41.17-5.46 2.31-6.9 3.81-.51.45-1.34 1.29-1.87 1.9-1.35 1.31-3.7 4.13-4.51 5.32-.08.12-.14.25-.18.38-.06.19-.43.68-.65.98-.14.19-.28.38-.35.49-.95 1.23-2.65 4.22-3.07 5.38-.16.38-.45 1.08-.61 1.36-.03.06-.06.11-.08.17-.36.88-.75 2.55-.82 3.3-.12.9.28 1.86 1.15 2.78.8.84 2.16 1.79 3.45 1.79h.18c1.21-.08 2.43-1.05 4-2.58 1.38-1.32 1.87-1.9 5.65-6.99 2.03-2.67 3.78-4.95 4.93-6.41.7-.88 1.66-1.77 2.19-2.18.04.02.09.04.14.06.31.13.79.34 1.37.29 1.03-.07 1.72-.75 2.17-1.57 0 .02 0 .04-.01.07-.19.5-.32 1.27-.56 2.85l-.13.88c-.12.56-.19 1.07-.25 1.49-.03.2-.05.38-.09.61-.35 2.92.41 5.46 2.19 7.34 2.04 2.14 5.27 3.23 8.84 2.98.81-.06 1.36-.1 1.82-.31.4-.12.87-.22 1.01-.23 4.41-.31 18.57-7.88 22.81-10.8.29-.22.94-.64 1.42-.84Z" class="cls-2"/><path d="M579.65 44.4c8.41-1.1 15.77-1.92 22.54-2.49 2.44-.28 7.35-.63 12.1-.96h.16c4.51-.33 9.16-.66 10.38-.63h.14c1.13-.08 2.12-.05 2.4-.01.82.25 1.74.3 4.28.23l1.83-.13c.4-.03.76-.21 1.03-.51l.28-.32c.85-.85.96-2.1 1.04-2.94l.02-.18v-.25c-.08-1.16-.86-2.04-1.98-2.24-.09-.02-.17-.02-.26-.02-.2-.03-.53-.08-.91-.06-1.43.1-3.78.5-4.71.88-.64.29-2.17.4-14.11 1.23-3.15.27-6.43.53-9.34.75-4.04.32-7.23.57-8.63.73-3.95.46-5.3.6-5.74.63-1.59.11-6.53.7-9.79 1.14l-.49.03c.32-.5.72-1.1 1.15-1.71.2-.24.55-.71.96-1.26.35-.48.76-1.03 1.14-1.52.03-.03.05-.07.07-.1.6-.94 1.42-2.12 2.06-2.98l.9-1.3c1.36-1.94 1.89-2.69 2.46-3.69.18-.26.4-.61.64-.98.32-.51.68-1.06.93-1.41.6-.76 2.01-2.68 2.15-4.13v-.25c-.1-1.38-1.48-2.51-2.66-2.67-.1-.01-.2-.02-.29 0h-.11c-.16.02-.32.06-.47.12-.45.19-1.38.57-5.65 5.9-.59.8-1.52 1.99-2.14 2.7a.55.55 0 0 0-.07.09c-.79 1.06-1.4 1.85-1.72 2.22-.08.09-.15.19-.2.3-.13.25-.35.56-.55.83-.14.2-.28.38-.38.54-.33.4-.76 1.06-.93 1.31-.17.21-.4.53-.76 1.05-.4.57-.9 1.29-1.42 1.95-1.18 1.52-1.9 2.53-2.6 3.51-.31.44-.63.88-.99 1.36-.03.04-.05.08-.08.12-.57.95-1.16 1.27-1.33 1.31-.62.15-4.16.73-5.21.8-.75.05-3.11.38-4.05.51-4.95.57-7.92.9-10.42 1.07-1.7.12-3.1.15-4.87.18l-1.29.03c-.9-.06-1.85.01-2.31.04l-.34.02c-.3.02-.58.13-.82.31-.57.44-1.27 1.38-1.39 2.59v.25l.02.23c.08 1.1.26 4.02 3.26 3.8l.23-.02c.55-.04 1.47-.22 2.09-.38.32-.04.69-.11 1.07-.18.43-.08.92-.18 1.26-.21.07 0 .14-.01.21-.03.38-.08.9-.17 1.42-.26.56-.1 1.12-.2 1.56-.29 1.23-.29 2.26-.48 2.82-.52.06 0 .12-.01.18-.02l1.08-.2c.66-.12 1.29-.23 1.72-.33.79-.07 2-.27 2.91-.45.76-.16 1.93-.35 2.4-.38.08 0 .16-.02.24-.04.52-.13 1.6-.3 2.63-.46l.97-.16 1.22-.21c-.07.1-.13.18-.18.25-.03.03-.05.07-.07.11-.57.96-1.09 1.68-1.79 2.67l-.43.61c-.04.06-.08.12-.11.18-.17.33-.51.83-.79 1.23-.15.21-.28.41-.36.53-.29.43-.64.97-.93 1.43l-.34.53s-.05.09-.08.14c-.14.28-.32.56-.46.8-.12.2-.22.38-.3.52-1.02 1.36-1.68 2.38-2.39 3.46-.23.35-.46.71-.71 1.08-.02.03-.04.06-.05.09-.57 1-1.33 2.22-1.66 2.73-.3.38-.57.88-.88 1.45-.11.21-.22.41-.37.68-.21.41-.52.94-.75 1.33l-.19.33c-.64.92-3.36 5.38-4.09 6.86-.03.07-.06.13-.08.21-.11.34-.61 1.14-.97 1.73l-.25.4c-.5.87-.77 1.35-.91 1.66-.11.18-.25.45-.51.97-.18.35-.38.76-.59 1.16-1.12 1.78-2.38 4.28-3.26 6.1-.25.4-.48.83-.58 1.02-.09.13-.16.28-.25.44-.09.17-.2.38-.34.6-.05.08-.09.16-.13.24-.16.39-.63 1.26-.89 1.67-.03.04-.05.09-.08.13-.11.22-.26.48-.4.73-.26.47-.51.92-.66 1.28-.12.3-.42.89-.71 1.48l-.43.87c-.54.89-1.06 2-1.28 2.53-.02.04-.03.08-.04.11-.11.33-.59 1.27-.98 2.02l-.44.85s-.03.07-.05.1c-.32.76-.68 1.47-.93 1.94-.14.27-.24.46-.27.55-.06.15-.1.31-.11.47-.01.03-.03.07-.03.07-.15.17-.26.38-.32.61-.06.25-.32.99-.64 1.77-.25.71-.6 1.46-.78 1.77-.03.05-.06.1-.08.16-.22.53-.37.94-.46 1.27 0 .04-.02.08-.03.12-.05.31-.15.58-.14.58-.06.07-.12.15-.17.24-.12.2-.23.44-.35.68-.09.18-.17.36-.26.51-.05.08-.08.17-.11.25-.22.63-.77 2.58-1.37 4.69l-.32 1.14c-.02.07-.04.14-.04.22-.06.44-.28 1.35-.46 1.9-.32.78-.49 1.37-.45 2.02.01.17.06.44.13.7.02.09.04.18.05.21.03.4.22.78.53 1.04.17.14.54.46 1.1.65.44.24.96.44 1.39.55.34.09.79.2 1.35.2h.29c1.63-.11 2.7-1.08 2.81-2.52v-.22c-.02-.22-.04-.56-.18-.94l-.13-1.82c-.04-2.15.43-5.42 1.24-6.95.06-.1.1-.22.13-.33l.09-.34c.11-.37.23-.81.29-1.18 0-.04.01-.08.02-.12.04-.47.54-1.87.8-2.23.06-.09.11-.18.15-.28l.27-.63c1.17-2.74 1.4-3.33 1.47-3.59.01-.06.03-.12.03-.17.04-.11.13-.36.26-.56.37-.58.6-.97.69-1.34.25-.59 1.13-2.57 1.41-3.06.36-.55.78-1.44 2.38-5.01l.39-.69c.28-.51.56-1.01.76-1.32.05-.08.09-.16.13-.24.06-.16.17-.36.29-.57.21-.41.46-.87.61-1.31.32-.62 1.08-1.95 1.74-3.05.02-.03.03-.06.05-.09.23-.45.49-.92.74-1.36.46-.83.77-1.39.93-1.84.93-1.88 1.29-2.27 1.35-2.33.11-.09.2-.2.28-.32l.13-.21c.47-.72 1.73-2.65 3.32-5.27.35-.62 1.12-1.74 1.67-2.5.65-.87 1.08-1.49 1.08-1.49.07-.09.12-.2.16-.3.2-.34.99-1.53 1.48-2.2.03-.04.06-.09.09-.13.19-.34.89-1.42 1.42-2.24.55-.9 1.2-1.85 1.42-2.09.37-.42.9-1.15 1.27-1.83.27-.34.57-.79.91-1.3.27-.4.55-.82.87-1.26.25-.38.55-.81.84-1.22.44-.62.82-1.15 1.05-1.58.19-.28.45-.62.7-.96.3-.41.61-.83.79-1.09 2.02-2.7 2.99-4.07 3.8-5.37q2.5-3.64 6.33-4.01Z" class="cls-2"/><path d="M589.66 57.54c-.1 1.14.11 3.67 1.35 4.97.51.54 1.17.83 1.86.83h.17c.91-.06 1.79-.88 2.07-1.87.1-.22.32-.64.48-.93.3-.52.5-.97.49-1.45.02-1.31-.96-2.41-1.39-2.82-.88-.86-1.9-1.32-2.81-1.25-1.36.09-2.24 1.38-2.24 2.53ZM794 53.6c-.74-.73-2.02-1.54-3.19-1.46-1.69.12-5.6 2.66-5.99 2.94-.03.02-.06.05-.09.08-.12.11-.3.24-.5.4.36-.52.72-1.07.97-1.49.22-.39.51-.82.75-1.17.18-.26.33-.49.43-.66.75-1 1.17-1.75 1.34-2.38.04-.15.05-.31.04-.47-.05-.69-.46-1.23-.83-1.7a.997.997 0 0 0-.2-.21c-.06-.05-.13-.12-.21-.21-.41-.39-.71-.67-1.06-.85-.51-.29-1.1-.61-1.74-.56-1.27.09-2.1 1.26-2.98 2.67-.02.03-.04.06-.05.09-.32.61-.78 1.26-1.11 1.74-.15.22-.28.41-.38.56-.31.48-.96 1.48-1.38 2.23-.02.03-.03.06-.05.09-.35.73-1.33 2.34-2.15 3.51-.04.06-.08.13-.12.2l-.36.75c-.18.27-.35.53-.5.75-.31.46-.52.78-.65 1.04-.23.32-.55.82-.81 1.32l-.32.49-.39.69c-.09-.31-.22-.61-.35-.84a1.69 1.69 0 0 0-.3-.36c-.43-.38-.86-.55-1.13-.67-.22-.09-.45-.12-.69-.11h-.1c-1.3.1-5.67 2.41-6.22 2.78-.33.2-.9.43-1.26.55-.07.02-.15.05-.22.09l-.64.32c-1.34.67-4.12 2.06-5.98 3.16-.77.45-1.33.74-1.47.79.01 0 .15-.06.34-.07-.79.06-5 2.3-5.02 2.31-6.04 3.1-9.58 4.76-10.77 5.3-.74.31-1.95.85-2.95 1.38h-.03c-.64.28-1.51.63-1.78.73-.22.05-.47.14-.97.33-.23.09-.5.19-.78.29-.06.02-.12.05-.17.08-.63.33-1.67.61-2.18.75-.09.02-.17.06-.25.09-.2.1-.45.18-.68.25-.37.12-.75.25-1.09.43-1.56.6-3.43.95-6.04 1.13-2.14.15-2.67.18-3.19.07-.81-.21-1.12-.51-1.14-.53-.03-.11-.07-.57.04-1.12l.03-.2c.06-.85.21-1.65.4-2.09l.12-.29c.95-2.54 1.78-4.2 2.47-4.94.04-.02.08-.05.12-.07.18.03.44.06.75.04l.68-.05c3.89-.27 12.89-6.71 13.54-11.32.01-.11.02-.21.01-.32l-.02-.22c-.05-.73-.29-1.51-.65-2.12-.03-.05-.07-.1-.1-.15-.11-.15-.27-.34-.43-.52-.14-.17-.29-.33-.35-.42-.13-.22-.32-.4-.54-.53-.64-.37-1.27-.51-2.02-.46-4.35.3-10.29 6.1-14.04 10.67.04-.16.07-.33.06-.49-.06-.88-.74-1.56-1.03-1.8-.3-.26-.67-.38-1.08-.36l-.23.02c-.33.02-.58.13-.89.27-.14.06-.33.15-.58.25l-.12.06c-3.35 1.77-7.67 3.25-12.22 4.19l-1.81.45c-.17.02-.38.05-.6.09-.26.04-.56.1-.83.12-.08 0-.16.02-.24.04-1.39.33-3.73.83-4.64 1.01-1.14.27-2.2.49-3 .64 4.02-6.81 6-11.71 6.04-14.98v-.12l-.02-.23s0-.08-.01-.12c-.25-1.69-1.44-3.95-2.99-4.69-.48-.2-1.17-.31-1.73-.27-1.09.08-2.47.59-4.62 1.71-9.06 4.74-17.21 11.5-24.62 18.07-.38.32-.82.69-1.2 1.02-.32.28-.6.52-.77.66-.48.31-1.04.83-1.81 1.58l-.11.11c-.6.42-1.37 1.05-2.28 1.88-.66.48-1.95 1.61-3.01 2.7l-2.26 2.02c-1.27 1.13-2.14 1.91-2.41 2.12-.1.06-.2.13-.28.21-.02.02-.6.56-1.19 1.23-.62.72-2.07 2-3.08 2.85-1.02-2.57-3.34-3.57-5.53-4.21-.04-.01-.08-.02-.13-.03-.35-.07-.68-.14-1.01-.22-.87-.19-1.86-.41-3.51-.64-1.09-.14-2.01-.41-2.56-.62.46-1.47 4.06-5.71 11.25-11.27 5.64-4.37 11.16-7.74 14.4-8.85-.21.42-.33.85-.29 1.34.02.26.08.5.13.68.02.05.03.11.04.11.02.23.09.46.2.65.25.43.91 1.59 2.25 1.48 2.34-.16 6.08-4.55 6.05-7.21v-.12c-.02-.2-.07-.48-.12-.79-.04-.23-.09-.48-.1-.68 0-.11-.03-.22-.06-.33l-.44-1.45c-.66-2.22-2.39-2.39-3.81-2.29-7.79.54-24.67 13.74-29.99 20.25l-.1.13v.01c-.17-.52-.53-.97-1.03-1.3-.53-.35-1.18-.53-1.79-.49-.37.03-.98.15-2.34.84l-1.37.67c-1.06.52-1.97.98-3.05 1.42-.55.2-1.6.69-2.93 1.3-.73.34-1.52.7-2.27 1.04-1.22.53-2.4 1.08-3.31 1.51-.56.26-1.2.57-1.35.62-.04.01-.07.02-.11.04-.36.15-.93.42-1.43.71l-.96.4c-.9.41-1.83.85-2.76 1.3-.91.43-1.81.86-2.64 1.24-.49.2-1.06.46-1.57.7-.4.19-.95.44-1.11.49-.06.02-.12.04-.18.07l-.95.43c-.62.27-1.38.61-2.11.96-.96.51-2.1 1.01-2.43 1.12-.04.01-.16.06-.2.08-.35.15-.94.39-1.46.64-.18.06-.37.14-.55.21-.13.05-.25.1-.34.13-.25.03-.56.13-1.26.36-.35.11-.92.33-1.34.53-.33.07-.93.22-2.03.62-1.65.54-3.33.88-4.85.98-.93.06-2.08.14-2.55-.29l.14-1.06c.55-4.09 3.98-10 6.76-13.83l.51-.72c.75-1.03 1.16-1.6 1.1-2.42l-.03-.46c-.02-.23-.09-.46-.21-.66-.19-.32-.51-.65-1.17-1.22-.12-.1-.25-.19-.4-.25-.79-.33-1.32-.52-1.86-.49-4.09.29-10.05 15.54-10.35 17.38 0 .03 0 .07-.01.1-.14 1.41-.14 1.99.09 2.83l.06.18c.08.19.16.46.24.74l.12.38c.64 3.43 5.29 4.69 8.12 4.69.2 0 .4 0 .58-.02 3.38-.24 7.81-1.61 13.16-4.09.77-.27 1.47-.57 1.94-.77.15-.07.28-.12.36-.15.06-.02.11-.04.17-.06.01 0 .65-.27 1.39-.54.06-.02.12-.05.17-.08.73-.37 1.65-.75 2.01-.87.05-.02.1-.03.14-.06l.78-.34c1.03-.45 2.09-.92 3.04-1.43l.39-.19c.51-.24 1.08-.51 1.48-.74.76-.27 1.38-.51 4.86-2.21.51-.27 1.05-.51 1.5-.71.42-.18.75-.33 1.02-.48.33-.14.81-.37 1.11-.54.39-.17.95-.44 1.35-.68.25-.13.64-.32 1.18-.58 1.1-.54 2.81-1.37 5.3-2.65 1.82-1.02 2.15-1.04 2.38-1.06.15-.01.28-.04.42-.07-.96 1.45-1.72 3.12-1.68 5.09-.01 2.17 1.13 4.89 6.58 5.59l.74.12c.49.08 1.3.21 1.51.3.1.04.21.07.31.09.39.07 1.09.16 1.56.16.78.13 2.18.99 2.58 1.46 0 1.14-1.2 2.59-2.39 3.45-.06.05-6.11 4.86-6.12 7.75-.06.97.29 2.69 1.25 3.53.3.26.78.68 1.46.68h.11c2.72-.19 9.03-7.12 9.59-9.88.07-.14.23-.45.45-.79.31-.54 1.28-1.48 5.01-4.99 1.35-1.35 2.73-2.65 3.73-3.6.9-.85 1.39-1.32 1.65-1.59 1.47-1.31 5.8-5.2 7.27-6.53l.96-.82c.66-.56 1.31-1.12 1.68-1.46.48-.44 1.63-1.41 2.47-2.02.04-.03.07-.05.1-.08l1.27-1.1c.62-.51 1.15-.96 1.62-1.36.68-.57 1.24-1.05 1.81-1.49.03-.03.07-.05.1-.08.47-.43 1.38-1.14 1.97-1.55.32-.25.61-.49.86-.7.18-.15.33-.28.4-.33.05-.03.11-.07.15-.1l.26-.2c.25-.2.54-.43.79-.58.05-.03.1-.07.15-.1l.58-.44c.72-.54 1.79-1.36 3.28-2.54l.44-.32c.26-.18.68-.49.81-.55.12-.05.24-.12.34-.2.38-.29.75-.53.86-.57.1-.04.2-.1.29-.16 1.64-1.15 6.18-3.61 8.23-4.19-.12.57-.41 1.45-.91 2.46-2.17 4.6-4.83 9.1-8.36 14.1l-.63.82-.97.49c-.36.15-.79.3-1.14.42-.3.11-.56.2-.68.25-3.72 1.42-11.03 6.49-13.51 10.62-.2.35-.45.72-.56.84-.02.03-.05.06-.07.09-.78 1.05-1.84 3.51-1.73 5 .02.3.05.81.33 1.28.93 1.76 2.55 2.79 4.2 2.67 6.58-.46 17.78-15.97 18.23-16.6q1.15-1.51 3.33-2.04l.36-.09c1.73-.42 2.6-.62 8.69-1.81l1.32-.31c2.26-.54 3.08-.74 3.43-.88.17-.07.78-.21 1.15-.3l.36-.09c.1-.02 9.14-2.55 12.27-4.72-.76 1-1.38 1.89-1.79 2.58-1.23 2.15-1.99 4.35-2.19 6.33-.41 3.44.85 5.57 1.97 6.76 1.62 1.7 4.11 2.64 6.94 2.64.3 0 .61-.01.91-.03 1.57-.11 3.92-.37 5.38-.75.05-.01.09-.03.14-.04.75-.27 1.66-.51 1.85-.53.07 0 .14-.01.21-.03.99-.21 5.84-2.19 7.23-2.88.28-.12.57-.25.86-.38.29-.13.57-.27.79-.35.39-.08.83-.29 1.62-.66.37-.17.77-.36 1.14-.52.04-.02.09-.04.13-.06.52-.28 1.08-.56 1.52-.78.27-.14.5-.26.67-.34.61-.19 1.35-.62 1.95-1.02.71-.33 1.74-.89 2.66-1.39l.8-.43c1.06-.51 2.51-1.25 3.33-1.67l.15-.08c.31-.16.59-.31.84-.45.19-.1.35-.19.46-.25.32-.09.67-.29 1.33-.68.03-.02.07-.04.1-.06.22-.15.72-.41 1.17-.64.47-.24.96-.49 1.38-.74.84-.5 2.6-1.41 3.94-2.09.93-.51 1.89-.95 2.22-1.1.32-.1.68-.32 1.43-.76 2.38-1.26 4.12-2.14 4.93-2.29a4.285 4.285 0 0 0 .61-.2c-2.1 3.75-4.22 7.6-6.25 11.56l-.4.82c-.43.75-.89 1.63-.83 2.54.1 1.42 2.26 2.56 2.27 2.56.04.02.08.04.11.05.18.09.5.26.92.26h.13c.52-.04 1-.32 1.3-.6.7-.51 1.08-.99 2.39-2.74 2.91-4.14 4.98-6.97 6.31-8.6.73-.84 1.41-1.64 1.79-2.31 1.86-2.25 4.15-5 6.42-6.8.03-.02.06-.05.09-.07.37-.34.84-.74 1.24-1.07l.46-.4c.19-.17.37-.29.47-.35.29-.09.53-.26.8-.45.18-.13.42-.29.73-.48.2-.12.44-.26.66-.39.13.11.27.23.4.35.78.79 1.31 1.32 2.34 1.24 1.63-.11 2.61-1.8 2.84-3.33.02-.11.02-.22.01-.33l-.03-.39c0-.75-.38-1.51-1.1-2.22ZM669.71 86.56a43.27 43.27 0 0 1 4.6-4.58 76.317 76.317 0 0 1-4.6 4.58ZM823.93 47.2h.17c.91-.06 1.8-.88 2.07-1.87.1-.22.32-.64.48-.93.3-.52.49-.97.49-1.45.02-1.31-.96-2.41-1.39-2.83-.88-.86-1.89-1.31-2.81-1.25-1.36.09-2.24 1.38-2.24 2.53-.09 1.14.11 3.67 1.36 4.97.51.54 1.17.82 1.86.82ZM916.32 51.09a1.31 1.31 0 0 0-.3-.36c-.43-.38-.85-.55-1.13-.67-.22-.09-.45-.13-.69-.11h-.1c-1.3.1-5.67 2.41-6.22 2.78-.33.2-.9.43-1.26.55-.07.02-.15.05-.22.09l-.64.32c-1.34.67-4.12 2.06-5.98 3.16-.77.45-1.34.74-1.47.8.01 0 .14-.06.35-.07-.82.08-5 2.3-5.01 2.31-6.02 3.09-9.57 4.75-10.77 5.3-.75.31-2 .87-2.93 1.37-.66.27-1.55.64-1.83.74-.21.04-.46.14-.98.33-.23.09-.5.19-.78.29-.06.02-.12.05-.17.08-.63.32-1.66.61-2.18.75-.09.02-.17.06-.25.09-.2.1-.45.17-.69.25-.37.12-.75.25-1.09.43-1.56.6-3.43.95-6.04 1.13-2.14.15-2.67.18-3.19.07-.81-.21-1.12-.51-1.14-.53-.03-.11-.07-.57.04-1.12l.03-.2c.06-.85.22-1.66.4-2.09l.12-.29c.95-2.54 1.78-4.2 2.47-4.94.04-.02.08-.05.12-.07.18.03.44.06.75.04l.68-.05c3.89-.27 12.89-6.71 13.54-11.32.01-.11.02-.21.01-.32l-.02-.22c-.05-.73-.29-1.51-.65-2.12-.03-.05-.07-.1-.1-.15-.11-.15-.27-.34-.43-.52-.14-.17-.29-.33-.35-.42-.13-.22-.32-.41-.54-.53-.63-.36-1.27-.51-2.02-.46-4.38.31-10.38 6.19-14.12 10.77-.17-.51-.53-.97-1.02-1.3-.53-.35-1.19-.53-1.8-.49-.37.03-.98.15-2.33.84-.49.23-.93.46-1.37.67-1.06.52-1.97.98-3.05 1.43-.55.2-1.61.69-2.94 1.3-.73.34-1.51.7-2.26 1.04-1.22.52-2.4 1.08-3.3 1.5-.56.26-1.2.56-1.35.62-.04.01-.07.03-.11.04-.36.15-.92.42-1.43.71l-.96.4c-.9.41-1.83.85-2.76 1.29-.91.43-1.81.86-2.64 1.25-.49.2-1.05.46-1.56.7-.4.19-.96.44-1.11.49-.06.02-.12.04-.18.07-.22.1-.55.25-.95.42-.62.27-1.38.61-2.11.96-.96.51-2.1 1.01-2.43 1.12-.04.01-.08.03-.12.04l-.1.04c-.35.15-.93.39-1.44.63-.18.06-.37.14-.55.21-.13.05-.25.1-.34.13-.25.04-.56.13-1.25.36-.35.11-.92.33-1.34.53-.33.07-.93.22-2.03.62-1.65.54-3.32.88-4.85.98-.93.07-2.08.14-2.55-.29l.14-1.06c.55-4.09 3.98-10 6.76-13.83l.52-.72c.74-1.03 1.15-1.6 1.09-2.41l-.03-.46c-.02-.23-.08-.46-.2-.66-.22-.37-.59-.73-1.18-1.23-.12-.1-.26-.19-.4-.25-.79-.33-1.31-.52-1.86-.49-4.09.29-10.05 15.54-10.35 17.38 0 .03-.01.07-.01.1-.13 1.41-.14 1.98.09 2.83l.06.18c.08.19.16.47.25.75l.12.37c.64 3.43 5.29 4.68 8.12 4.68.21 0 .4 0 .58-.02 3.38-.24 7.81-1.61 13.16-4.09.77-.27 1.47-.57 1.93-.77.16-.07.28-.12.36-.15.06-.02.12-.04.17-.06 0 0 .65-.27 1.4-.54.06-.02.12-.05.17-.08.72-.37 1.65-.75 2.01-.87.05-.02.1-.03.14-.05l.78-.34c1.03-.45 2.09-.92 3.04-1.43l.39-.18c.51-.24 1.08-.51 1.48-.74.76-.27 1.38-.51 4.86-2.21.5-.27 1.04-.51 1.5-.71.42-.19.76-.34 1.02-.48.33-.14.81-.37 1.11-.54.38-.16.94-.43 1.35-.68.25-.13.64-.32 1.18-.58 1.1-.54 2.81-1.37 5.3-2.65 1.82-1.02 2.15-1.04 2.39-1.06.15-.01.27-.04.4-.07-.17.26-.33.5-.46.72-1.23 2.15-1.99 4.35-2.19 6.33-.41 3.44.85 5.57 1.98 6.76 1.62 1.7 4.11 2.64 6.94 2.64.3 0 .61-.01.91-.03 1.57-.11 3.92-.37 5.38-.75.05-.01.09-.03.14-.04.75-.27 1.66-.51 1.85-.53.07 0 .14-.01.21-.03.99-.21 5.84-2.19 7.23-2.88.28-.12.57-.25.85-.38.3-.13.57-.27.79-.35.39-.08.83-.29 1.62-.66.37-.17.77-.36 1.14-.52.04-.02.09-.04.13-.06.53-.28 1.09-.56 1.53-.78.27-.13.49-.25.65-.33.61-.19 1.36-.63 1.95-1.02.71-.33 1.73-.88 2.64-1.38l.82-.44c1.08-.52 2.58-1.29 3.47-1.75.31-.16.6-.32.85-.45.19-.1.34-.19.46-.24.32-.09.67-.29 1.33-.68.03-.02.07-.04.1-.06.22-.15.72-.41 1.17-.64.47-.24.96-.5 1.38-.74.84-.5 2.6-1.42 3.94-2.09.94-.51 1.9-.96 2.23-1.1.32-.1.7-.32 1.42-.75 2.38-1.26 4.12-2.14 4.92-2.29.06-.01.14-.03.2-.05.5-.16 1.16-.38 1.55-.83.53-.47.58-1.03.56-1.34-.03-.47-.25-1.14-.5-1.56Z" class="cls-2"/></g></svg>