<svg xmlns="http://www.w3.org/2000/svg" id="_レイヤー_1" data-name="レイヤー 1" viewBox="0 0 348.29 203.39"><defs><style>.cls-1{fill:#481a01;stroke-width:0}</style></defs><path d="M144.49 32.56c.03-.06.05-.11.07-.17.84-2.39 1.63-5.18 2.15-7.63.51-2.2.56-4.17.56-4.92 0-5-4.17-9.23-9.1-9.23-5.61 0-14.94 4.65-19.53 7.83-.13.08-.31.19-.53.33-.37.24-.89.57-1.31.78-.05.02-.09.05-.13.08-1.37.87-5.69 3.83-7.3 5.17-.5.37-1.25.87-1.63 1.13-.4.26-1.69 1.25-3.76 2.85l-.16.13c-1.48 1.23-3.3 2.69-4.05 3.29l-.1.08c-1.71 1.31-4.34 3.55-6.09 5.16l-.77.66c-.93.8-2.14 1.83-3.05 2.63-1.62 1.44-2.63 2.36-3.07 2.81-.17.17-.44.41-.73.67-.36.33-.75.68-1.04.97-1.26.99-2.86 2.6-3.74 3.47-.91.92-1.68 1.64-2.32 2.19-.92.85-1.7 1.59-2.54 2.4-.71.68-1.48 1.42-2.51 2.39-2.06 2.19-3.22 3.35-4.82 4.82-.47.48-.95 1-1.35 1.43-.25.28-.47.51-.62.66-.07.07-.13.15-.19.23-.23.34-.64.83-.96 1.07-.06.04-.11.09-.16.14l-1.97 1.97c-.34.34-.84.86-1.4 1.45-.71.75-1.53 1.61-2.32 2.39-2.74 2.99-6.16 6.8-8.14 9.07-.02.03-.05.06-.07.09-.36.48-.96 1.2-1.43 1.67-.05.05-.1.1-.14.16-.16.21-.36.44-.55.65-.36.41-.58.67-.73.94-.11.14-.31.36-.54.62-.26.29-.56.62-.83.95-.46.47-.92.99-1.21 1.31-.09.1-.16.18-.19.21-.05.05-.1.1-.14.16-.18.24-.65.83-1.21 1.52 1.08-1.65 2.01-3.1 2.31-3.62.21-.42.95-1.66 1.44-2.4.94-1.28 2.2-3.18 3.22-4.72.55-.83 1.01-1.52 1.24-1.85.04-.06.08-.13.12-.2.19-.38.64-1.07 1.04-1.61.22-.29.56-.79.94-1.33.3-.43.62-.9.92-1.31.03-.04.06-.08.08-.13.47-.83 1.45-2.31 2.11-3.23.63-.76 1.39-1.88 1.67-2.36.47-.69 2.66-3.82 4.98-7.13 2.4-3.43 4.93-7.04 5.82-8.34.62-.78 1.29-1.69 1.82-2.42.37-.51.69-.94.89-1.2.02-.03.04-.05.06-.08 1.17-1.69 2.37-3.24 2.58-3.47.17-.17.47-.54 1.22-1.48l.07-.08.08-.11c.51-.77 1.96-2.74 3.05-4.19 1.22-1.46 2.34-3.05 2.77-3.68.25-.26.45-.51.6-.7l.06-.08c.35-.31.81-.89 1.92-2.37.55-.73 1.13-1.5 1.61-2.08l.09-.12c.59-.89 1.4-2.01 1.91-2.52.04-.04.08-.08.11-.12.13-.16.29-.35.45-.55.49-.59 1.03-1.25 1.39-1.81.25-.26.55-.59.85-.91.31-.34.62-.68.86-.93.03-.03.06-.07.09-.1l.12-.15c.59-.71.89-1.07 1.11-1.96.1-.49.09-1.25-.51-2.08-.98-1.35-3.17-2.31-4.31-2.45-.06 0-.12-.01-.19-.01h-.39c-.68 0-1.12.3-1.45.53l-.17.12c-.17.11-.31.25-.42.42-.17.26-1 1.08-1.38 1.47-.09.09-.16.18-.23.29-.2.33-.57.8-.86 1.18-.18.23-.34.43-.45.59-.38.39-.74.86-.97 1.24-.27.3-.5.64-.75 1-.16.17-.34.4-.5.59-.08.09-.14.18-.17.21-.17.17-.28.33-.35.56-.08.18-.47.69-.67.96l-.17.22c-.11.15-.26.33-.42.54-.41.51-.86 1.08-1.18 1.6-.3.38-.56.76-.76 1.05-.05.07-.09.14-.13.19-.3.3-.64.78-1.16 1.53-.32.46-.69 1-1.1 1.56-2.28 3.24-2.7 3.85-3.85 5.53l-.33.48c-.5.7-1.29 1.86-1.6 2.39-1.05 1.34-3.46 4.92-4.1 6.22-.14.19-.28.39-.41.58-.13.2-.34.49-.41.57-.18.18-.33.41-.94 1.33-.24.37-.52.8-.83 1.26-1.59 2.43-2.37 3.59-2.98 4.48l-.63.94c-.47.63-1.46 2.21-2.14 3.34l-2.83 4.25c-.83 1.11-1.67 2.5-1.84 2.85-.07.13-.24.39-.42.69-.19.29-.39.62-.53.85-1.84 2.71-2.6 3.85-2.92 4.45-.46.55-1.09 1.56-2.2 3.42-.08.12-.18.29-.3.48-.26.41-.61.98-.93 1.38a.94.94 0 0 0-.12.18c-.81 1.38-1.81 2.96-3.34 5.36l-.53.83c-.6.81-1.29 1.96-1.91 2.97-.23.38-.44.73-.62 1.02-.65 1.04-1.55 2.46-2.07 3.24l-1.31 1.96-.06.09c-.27.47-.93 1.58-1.63 2.76-.63 1.06-1.29 2.17-1.73 2.92-.31.42-.78 1.1-1.03 1.53-.28.34-.58.84-1.01 1.57l-.65 1.09c-.27.47-.55.93-.71 1.18-.08.12-.18.26-.27.4-.25.36-.47.67-.61.94-.03.06-.06.13-.08.2-.2.61-1.08 1.91-2.31 3.7-.38.57-.82 1.35-1.27 2.26-.09.18-.2.37-.31.54-.15.26-.31.52-.44.79-.34.45-.77 1.22-1.54 2.6-.61.97-1.33 2.06-1.68 2.58-.13.2-.26.44-.39.69-.08.16-.16.33-.2.39-.17.17-.29.37-.36.59-.08.24-.41.91-.61 1.21-.08.13-.23.37-.42.68-.41.67-1.04 1.69-1.65 2.57-.03.05-.06.09-.09.14-.75 1.37-1.73 3.09-2.27 4.04l-.02.03c-.57.73-1.24 1.81-1.57 2.47-.33.72-3.38 4.97-4.6 6.55-.54.56-1.43 1.71-1.65 2.81-.22 1.19.17 2.43 1.13 3.59 1.27 1.53 3.34 2.64 4.92 2.64.36 0 1.02 0 1.59-.58.21-.21.35-.48.41-.78.04-.08.08-.17.13-.26.05-.1.09-.2.11-.31.07-.27.21-.6.39-.88.46-.53.88-1.35 1.12-1.94.17-.43.53-1 .58-1.07.11-.11.21-.25.28-.38.04-.08.11-.18.19-.31.19-.29.42-.65.6-1.01.03-.06.06-.13.08-.2.04-.12.15-.33.27-.55.08-.14.16-.28.24-.44l.32-.42c.05-.07.1-.15.14-.23.26-.51.73-1.33 1.04-1.73.03-.04.06-.08.09-.13l.18-.29c.34-.57.76-1.29 1.15-1.77.04-.05.08-.11.11-.16.1-.16.22-.36.36-.58.4-.63.93-1.49 1.35-2.3.65-.92 1.41-2.05 1.67-2.44.03-.05.07-.11.09-.16.2-.4.78-1.34 1.35-2.2.02-.03.04-.06.05-.09.5-.87 1.78-2.79 2.83-4.24l.78-1.19c.5-.76 1.12-1.7 1.26-1.86.09-.09.19-.24.26-.35.38-.66 5.01-7.08 6.74-9.44.2-.29.39-.6.57-.89.2-.32.47-.75.55-.84.17-.17.29-.37.36-.59.03-.1.09-.21.13-.28.43-.33.73-.79.89-1.08 1.19-1.54 1.67-2.02 2.02-2.38.11-.11.17-.18.24-.32.06-.1.17-.22.28-.35.21-.25.42-.51.53-.67.57-.76 1.67-2.13 2.83-3.57l1.25-1.56c.38-.53.87-1.13 1.27-1.62.28-.34.52-.63.68-.85.19-.26.45-.58.71-.9.24-.3.48-.6.68-.86.42-.44.86-1.08 1.29-1.72.18-.27.68-.77.99-1.08.14-.14.33-.36.55-.61.21-.24.43-.5.63-.7.05-.05.1-.1.14-.16.36-.47 1.09-1.33 1.43-1.67.32-.32.64-.71.96-1.1.26-.32.52-.64.75-.87.05-.05.1-.1.14-.16.3-.4 1.24-1.45 2.07-2.38l.48-.54c.23-.26.49-.56.77-.87.88-.99 1.87-2.1 2.42-2.85.32-.37.68-.76 1.01-1.12.46-.49.77-.83.98-1.1.34-.27.68-.65 1.05-1.04.17-.19.35-.38.51-.54.38-.38.76-.82 1.02-1.12.02-.02.03-.04.05-.05.34-.23.76-.62 1.28-1.31.47-.59 1.22-1.34 1.72-1.84.6-.59 1.12-1.13 1.47-1.58.31-.26.69-.65 1.27-1.26.29-.31.61-.64.93-.96 1.09-1.09 1.82-1.83 2.18-2.31l1.29-1.3.59-.47s.07-.06.1-.09c9.16-8.78 18.64-17.86 29.07-25.69 1.06-.8 2.39-1.86 3.02-2.36.45-.34 1.21-.88 1.63-1.17.6-.26 1.17-.71 1.48-1 .81-.64 6.44-4.41 8.09-5.38.44-.29.92-.56 1.08-.61.2-.07.42-.21.58-.36.12-.11.53-.37.75-.52l.13-.09c.65-.21 1.45-.62 2.04-1.05 3.23-1.97 8.95-4.07 12.39-4.07.77 0 1.28.13 1.54.26.44.88.73 3.4.39 4.77-1.88 9.68-6.64 19.97-10.58 27.86-.31.51-.59 1.13-.83 1.62-.09.2-.18.38-.29.6-.74 1.73-2.27 5.05-2.82 6.16-.21.35-.44.82-.68 1.29-.21.42-.42.84-.6 1.14-.06.09-.1.19-.14.3-.16.48-.66 1.46-1.06 2.24-.15.29-.3.58-.43.84-.18.37-.38.75-.57 1.11-.46.88-.7 1.36-.79 1.62-.24.6-1.5 3.23-2.21 4.31-.07.11-.13.24-.17.36-.11.33-.89 1.88-1.39 2.88-.34.76-.93 1.92-1.46 2.94-.27.52-.52 1.02-.77 1.51-.24.53-.53 1.15-.8 1.72-.34.71-.65 1.37-.79 1.74-.1.25-.33.72-.62 1.3-.44.9-.99 2.02-1.46 3.12-1.18 2.37-1.77 3.58-1.99 4.24-.94 1.95-1.53 3.24-1.9 4.04-.21.46-.34.74-.41.88-.1.14-.17.29-.22.45-.03.06-.07.12-.11.2-.09.17-.2.36-.31.58-.02.04-.04.08-.05.12-.24.59-.87 1.98-1.42 3.09-.6 1.34-1.48 3.36-1.99 4.64-.88 2.19-1.28 3.02-1.47 3.32-.04.07-.08.14-.11.21l-.2.5c-.22.56-.5 1.27-.71 1.69l-.39.92c-.03.07-.06.15-.08.23-.14.57-.24.8-.28.87-.02.03-.03.07-.05.1-1.42 3.49-2.89 7.1-4.24 10.74-.33 1.1-.75 2.18-.91 2.55-.28.41-.41.93-.45 1.39l-.18.47c-.16.41-.36.91-.51 1.37-1.63 3.51-3.43 7.6-4.27 11.8-.49 2.52 0 4.82 1.38 6.49 1.33 1.61 3.41 2.5 5.85 2.5.5 0 1.75-.08 2.5-.83l.91-.91c.15-.15.27-.33.34-.53.15-.24.23-.51.23-.8v-.26c0-.33-.11-.64-.3-.9-.29-.39-1.34-1.66-2.73-1.98a.689.689 0 0 1-.08-.03c.02-.41.12-1.17.22-1.88.14-1.1.53-3.66 1.02-6.14.22-.96.42-1.92.6-2.78.25-1.17.55-2.62.69-2.99.09-.17.15-.36.17-.56.04-.14.11-.35.2-.59.13-.38.28-.81.42-1.3.35-1.38 1.21-4.18 2.29-7.01.26-.64.66-1.72.95-2.57.24-.71.74-1.83 1.1-2.56.03-.06.06-.13.08-.2.19-.57.72-1.84 1.24-3.07l.44-1.05c2.41-6.15 5.35-12.77 8.73-19.67.02-.04.04-.09.06-.13.28-.74.81-1.77 1.2-2.52l.31-.61c.04-.08.08-.17.1-.26.21-.75.82-1.97 1.17-2.68.57-.89 1.49-2.83 2.53-5.06l.7-1.42c.71-1.45 1.52-3.09 1.98-3.82.03-.04.09-.17.11-.21.77-1.55 1.04-2.09 1.12-2.45.13-.29.58-1.2 1.32-2.57l2.06-4.12c.28-.48.52-.97.73-1.38.16-.32.29-.59.4-.76.04-.05.07-.11.09-.16.32-.65.61-1.19.86-1.6.04-.06.07-.13.1-.2.88-2.15 1.5-3.39 2.28-4.94 1.11-1.97 3.25-6.21 4.26-8.77.28-.56.63-1.29.95-1.97.28-.59.54-1.14.72-1.5 1.57-3.13 2.66-5.57 3.62-8.71.1-.3.46-1.15.7-1.64ZM261.44 59.47c-1.77 0-3.18 2.13-3.49 2.91-.07.18-.11.37-.11.56v.26c0 .71.19 1.51.58 2.53-1.9 4.44-3.91 8.07-6.47 11.67-4.47 6.37-17.44 20.98-22.05 22.21v-.04c0-.07.01-.14.01-.21 0-.46.1-.96.19-1.23.05-.15.08-.31.08-.47v-.12c.62-3.13 2.85-7.22 5.18-11.21l.1-.18c1.36-2.48 2.56-4.64 2.98-6.26.19-.29.28-.63.24-.98-.21-2.06-2.93-4.5-5.03-4.5-2.56 0-3.73 2.33-4.33 3.54-1.25 2.31-7.52 9.25-14.28 15.81-7.88 7.64-12.24 10.8-14.12 11.75 0-.04.01-.07.02-.11.01-.08.02-.16.04-.22.04-.1.08-.21.09-.32 1.34-7.46 20.84-28.75 27.25-35.75l.24-.27c1.72-1.72 2.65-2.78 2.69-2.82.28-.32.41-.75.36-1.17-.25-2-3.57-3.8-5.03-3.8-2.49 0-9.49 8.33-15.8 16.63-.02-.54-.21-1.25-.41-1.65-.07-.14-.17-.28-.28-.39-.43-.43-.86-.65-1.17-.8-.21-.1-.44-.16-.67-.16h-.13c-1.45 0-6.56 2.27-7.22 2.65-.41.21-1.09.43-1.52.54-.08.02-.15.04-.23.08l-.76.32c-1.57.66-4.85 2.02-7.05 3.12-.94.47-1.62.76-1.77.8.01 0 .15-.04.35-.04-.83 0-5.81 2.21-5.83 2.22-7.13 3.06-11.31 4.67-12.72 5.2-.86.29-2.28.81-3.47 1.33-.8.27-1.84.61-2.16.7-.23.03-.5.11-1.08.29-.28.08-.6.18-.95.28l-.18.06c-.77.33-1.99.58-2.58.69-.09.02-.18.04-.26.08-.25.1-.54.17-.83.25-.42.11-.86.22-1.25.4-1.86.57-4.04.82-7.06.82-2.48 0-3.09 0-3.72-.18-.95-.32-1.36-.73-1.4-.85-.03-.13-.05-.71.14-1.38.02-.07.03-.13.04-.2.14-.98.39-1.91.64-2.42l.15-.31c1.31-2.87 2.41-4.73 3.29-5.53.08-.04.18-.09.25-.12.2.05.5.11.86.11h.79c4.4 0 15.05-6.54 16.14-11.67.02-.1.03-.21.03-.31v-.26c0-.8-.21-1.68-.55-2.37a.864.864 0 0 0-.1-.16c-.11-.17-.27-.39-.43-.6-.16-.22-.32-.43-.39-.54-.12-.23-.29-.43-.51-.58-.66-.44-1.34-.64-2.14-.64-6.64 0-17.39 11.09-20.37 15.34-1.55 2.33-2.58 4.75-2.98 6.97-.58 3.01 0 5.67 1.67 7.69 1.85 2.24 4.98 3.52 8.58 3.52 1.78 0 4.47-.11 6.16-.42.05 0 .1-.02.14-.03.9-.26 1.98-.46 2.21-.47.07 0 .14 0 .21-.02 1.14-.16 6.81-2.03 8.43-2.7.33-.11.69-.25 1.03-.37.35-.13.71-.27.94-.34.43-.06.94-.25 1.86-.6.44-.17.92-.36 1.36-.5.05-.01.09-.03.14-.05.64-.28 1.31-.57 1.83-.79.31-.13.58-.24.76-.32.69-.16 1.58-.6 2.29-1 .82-.32 2.03-.87 3.11-1.35l1-.45c1.32-.53 3.16-1.32 4.09-1.72.36-.16.7-.31.99-.44.24-.11.44-.2.57-.25.37-.07.78-.28 1.53-.65.03-.02.07-.04.1-.06.27-.16.85-.41 1.42-.65.55-.24 1.13-.48 1.63-.73 1.01-.5 3.09-1.42 4.67-2.07 1.13-.51 2.28-.95 2.65-1.09.35-.08.78-.29 1.66-.74 2.83-1.26 4.91-2.12 5.87-2.24.06 0 .12-.02.18-.03.34-.08.7-.18 1.03-.32-5.13 6.84-9.51 13.22-10.16 14.34-1.79 3.03-4.5 7.62-4.79 11.29-.08 1.57.44 3.03 1.46 4.11 1.1 1.16 2.69 1.79 4.49 1.79 5.25 0 14.34-8.83 23.2-17.86l1.31-1.32c.57-.58 1.17-1.18 1.73-1.73-.12.34-.24.68-.38 1.03-1.02 2.56-1.55 4.66-1.68 6.63-.13 2.15.32 3.79 1.33 4.86.56.6 1.59 1.31 3.31 1.31 9.25 0 33.05-28.46 36.14-38.54.25-.31.37-.7.33-1.1-.18-1.84-2.31-4.89-4.24-4.89ZM333.74 77.66c-.37-1.12-1.22-1.81-2.21-1.81H331c-.06 0-.12 0-.19.01-5.74.72-24.88 10.67-29.55 13.31-1.7 1.04-3 1.83-8.26 4.98-1.1.69-2.3 1.49-2.86 1.91-.03.02-.05.04-.08.06-.67-2.01-2.49-5.03-4.99-5.57-.1-.02-.17-.03-.27-.03-.1-.01-.43-.12-.89-.34-.47-.27-1.19-.48-2.81-.9-.35-.09-.71-.19-1.04-.27-2.63-.75-3.55-1.21-3.87-1.47.66-2.05 7.01-7.73 10.39-10.17l.47-.35c5.61-3.84 14.96-9.3 19.61-10.5-.48.81-.58 1.25-.6 1.5-.16 1.09.41 2.51 1.09 3.19.15.15.33.27.52.34.31.2.69.27 1.06.21 2.97-.52 6.23-4.26 6.71-6.79.46-2.06.02-4.3-1.11-5.71-.84-1.04-2.03-1.62-3.36-1.62-8.67 0-28.56 13.87-34.27 20.43-.02.03-.05.06-.07.09l-.29.38c-.37.32-.69.68-.95.97-.15.17-.27.32-.36.4-.11.07-.21.16-.3.27-1.66 1.91-2.75 3.51-3.1 5.57-.51 2.88.85 5.75 3.3 6.97.99.5 3.96 1.46 7.3 2.35 1.43.31 3.37 1.43 3.3 2.52l-.31.94-.47.94-1.31 1.09c-5.19 4.15-7.11 6.01-7.95 7.73-.12.18-.19.36-.24.5-.15.24-.23.51-.23.79 0 .46.17 2.99.95 4.04.04.06.1.12.15.17.33.33.83.83 1.71.83 4.34 0 10.55-8.78 11.54-10.89 1.12-2.09 16.21-11.53 20.62-13.92 7.47-4.14 18.86-9.05 21.26-9.4.76-.12 1.9-.32 2.41-1.33.1-.21.16-.44.16-.67v-.26c0-.16-.03-.32-.08-.47Z" class="cls-1"/></svg>