<svg xmlns="http://www.w3.org/2000/svg" id="_レイヤー_1" data-name="レイヤー 1" viewBox="0 0 388 357"><defs><style>.cls-1{fill:#fff;stroke:#fff;stroke-miterlimit:10;stroke-width:3px}</style></defs><path d="M375.72 69.06c-1.23-1.6-3.17-2.54-5.24-2.54H98.28l-3.33-20.58c-2.59-16.41-17.22-28.51-34.4-28.44H18.72c-3.6.07-6.46 2.94-6.38 6.42.07 3.38 2.89 6.1 6.38 6.17h41.83c10.75-.04 19.91 7.53 21.53 17.8l29.28 180.96c2.63 16.7 17.53 29.02 35.01 28.95h187.99c3.6 0 6.51-2.82 6.51-6.29s-2.92-6.29-6.51-6.29H146.37c-11.06.05-20.48-7.74-22.14-18.31l-4.79-29.59h183.84c20.65-.07 38.87-13.08 44.99-32.13l28.44-90.53c.6-1.91.23-3.98-1-5.58Zm-39.91 92.45c-4.43 13.77-17.6 23.16-32.53 23.2H117.41L100.32 79.09H361.7l-25.88 82.41ZM165.73 271.05c-47.89 1.52-47.88 70.96 0 72.47 47.89-1.52 47.87-70.96 0-72.47Zm0 59.44c-12.82-.2-23.04-10.75-22.84-23.57.2-12.53 10.31-22.65 22.84-22.84 12.82 0 23.21 10.39 23.21 23.21s-10.39 23.21-23.21 23.21ZM294.32 271.05c-47.89 1.52-47.88 70.96 0 72.47 47.89-1.52 47.87-70.96 0-72.47Zm0 59.44c-12.82-.2-23.04-10.75-22.84-23.57.2-12.53 10.31-22.65 22.84-22.84 12.81.35 22.92 11.02 22.57 23.84-.33 12.32-10.25 22.24-22.57 22.58Z" class="cls-1"/></svg>