<svg xmlns="http://www.w3.org/2000/svg" id="_レイヤー_1" data-name="レイヤー 1" viewBox="0 0 527.54 203.39"><defs><style>.cls-1{fill:#481a01;stroke-width:0}</style></defs><path d="m153.94 37.56.06-.59v-.09c.36-7.27-1.83-14.14-5.86-18.37-3.08-3.24-7.19-4.95-11.88-4.95-15.37 0-37.22 17.27-66.79 52.82-3.93 4.8-7.49 8.95-8.94 10.42a4.31 4.31 0 0 0-1.3-.22c-2.87 0-4.2 4.06-5.12 8.08l-.06.23c-2.7 3.62-5.65 7.56-8.73 11.6l.27-.49c16.05-27.08 31-49.55 44.42-66.77 1.9-2.38 6.37-8.01 6.77-9.03.07-.18.11-.37.11-.56v-.13c0-1.9-2.27-5.3-4.51-5.3h-.26c-.29 0-.58.08-.82.24-3.54 2.31-19.63 26.96-21.29 29.82-1.52 2.5-3.03 5.01-4.56 7.54-2.55 4.23-5.13 8.5-7.75 12.77-14.28 23.46-26.42 44.39-37.11 63.99l-.06.11c-6.05 11.14-8.38 15.65-8.6 16.65-.02.11-.04.22-.04.33v.13c0 2.93 4.49 5.17 6.74 5.17 1.65 0 2.04-1.8 2.19-2.48l.05-.23c.03-.12.04-.24.04-.36v-.09c1.3-5.43 4.29-10.57 7.23-15.34.56-.87 1.13-1.76 1.7-2.67.89-1.4 1.79-2.83 2.78-4.32 7.49-12.39 14.4-23.48 22.65-33.12 5.48 9.32 14.88 11.32 21.92 11.32 29.76 0 69.68-32.77 76.27-62.64.23-1.17.36-2.39.48-3.47Zm-37.2-10.86c.38-.22.74-.44 1.1-.65.9-.53 1.76-1.03 2.57-1.58 5.24-3.12 9.77-5.81 16.13-5.81 3.6 0 6.46 1.1 8.5 3.26 2.46 2.61 3.66 6.75 3.37 11.74 0 .69-.11 1.56-.22 2.4-.06.44-.11.87-.16 1.3-6.29 29.07-43.48 59.78-72.4 59.78-5.48 0-9.81-1.35-12.18-3.79-1.61-1.66-2.38-3.87-2.3-6.58v-.05c0-.41.07-1.07.21-1.95.49-.95 3.52-4.69 5.16-6.72l.69-.86c13.18-15.91 37.13-43.62 49.53-50.5ZM171.25 70.27c.96 0 1.96-.81 2.31-1.84.14-.25.43-.74.64-1.05.36-.54.61-1.01.64-1.51.13-1.4-.87-2.68-1.31-3.17-.42-.48-1.56-1.58-2.94-1.58-1.5 0-2.45 1.41-2.54 2.51-.2 1.25-.18 4.09 1.1 5.62.55.66 1.29 1.02 2.1 1.02ZM211.86 86.3c.62-.36 1.24-1.17 1.24-1.93 0-1.58-1.55-2.68-2.94-2.68-.38 0-1.06.08-2.65.76-.56.22-1.08.44-1.58.64-1.26.52-2.35.97-3.65 1.4-.64.18-1.86.65-3.41 1.24-.86.33-1.8.69-2.7 1.02-1.43.5-2.84 1.05-3.88 1.45-.68.26-1.45.56-1.63.61-.04 0-.07.02-.11.03-.42.14-1.09.4-1.67.69l-1.13.38c-1.05.39-2.14.82-3.22 1.25-1.08.42-2.15.85-3.14 1.22-.57.19-1.24.44-1.84.67-.51.19-1.14.43-1.33.48-.07.02-.13.04-.19.06-.26.1-.67.25-1.15.42-.73.26-1.6.57-2.44.91-1.14.51-2.5 1-2.9 1.09-.04 0-.07.02-.11.03-.39.13-1.16.39-1.83.65-.21.05-.42.12-.63.19-.17.05-.32.11-.44.13-.26.01-.58.09-1.44.3-.41.1-1.09.31-1.57.5-.37.04-1.06.17-2.36.54-1.94.49-3.9.74-5.66.74-1.22 0-2.61 0-3.11-.7l.26-1.3c.96-4.66 5.36-11.16 8.86-15.33l.65-.78c.93-1.12 1.4-1.67 1.4-2.53v-.52c0-.23-.05-.46-.16-.67-.2-.41-.59-.84-1.2-1.44-.11-.11-.24-.21-.39-.28-.85-.42-1.4-.68-1.98-.68-4.47 0-12.51 16.84-12.99 18.84 0 .03-.01.07-.02.1-.28 1.67-.3 2.26-.12 3.16.01.06.03.12.05.18.08.23.15.56.23.89.04.16.07.32.11.46.47 4.12 6.29 5.83 9.34 5.83 3.86 0 8.99-1.21 15.27-3.61.89-.25 1.71-.53 2.26-.72.19-.07.34-.12.44-.15.06-.01.13-.03.19-.05.01 0 .76-.25 1.64-.5l.18-.06c.88-.38 1.97-.74 2.39-.84.05-.01.1-.03.15-.04l.9-.32c1.21-.43 2.46-.88 3.6-1.4l.51-.2c.58-.23 1.24-.48 1.7-.7.9-.25 1.59-.46 5.7-2.13.58-.26 1.21-.49 1.77-.69.49-.18.89-.32 1.2-.47.38-.13.96-.36 1.31-.53.45-.15 1.1-.42 1.59-.67.31-.13.78-.32 1.44-.59 1.3-.53 3.3-1.34 6.21-2.57 2.2-1.04 2.6-1.04 2.9-1.04.95 0 1.63-.44 2.1-.75Zm-43.23 10.71h-.05.05Z" class="cls-1"/><path d="M343.77 10.16c-2.91 0-7.44 3.51-9.88 5.6-.03.02-.06.05-.09.08-.51.51-1.45 1.25-2.07 1.75l-.31.24c-1.41 1.16-4.62 4.08-6.38 5.98-3.3 3.19-6.45 6.58-9.49 9.85-.74.8-1.48 1.59-2.22 2.38-.03.03-.05.06-.08.09-.22.27-.51.62-.79.96-.42.5-.83.99-1.07 1.31-.19.25-.44.56-.69.88-.25.31-.49.62-.69.87-.46.48-1.12 1.27-1.37 1.65-.28.37-.77.95-1.25 1.53l-.53.63c-3.46 4.12-6.98 8.82-11.09 14.78-2.05 2.94-2.49 3.49-4.72 5.35-1.93 1.65-4.27 3.96-4.44 5.56v.17c0 .35 0 .87.28 1.45-.11.19-.29.48-.51.82-.25.4-.54.86-.83 1.34a46.88 46.88 0 0 0-2.41 3.48c-.39.66-1.56 2.47-2.43 3.71l-1.39 1.98h-.79c-.08 0-.17 0-.25.02-.26.04-.48.09-.69.13-.02-.03-.04-.07-.07-.1-.59-.73-1.63-1.23-2.53-1.23-3.59 0-11.4 3.42-22.88 8.64l-1.95.86c-12.95 5.74-27.62 12.24-35.17 12.24-1.07 0-2.46-.14-3.02-.81-.44-.53-.52-1.6-.23-3.16 1.58-8 13.81-21.39 21.03-26.24l.18-.09c-.22.43-.46.87-.69 1.29l-.24.44c-.15.27-.31.54-.46.8-.61 1.05-1.14 1.95-1.29 2.89-.2 1.58 1.3 3.37 1.6 3.71.89 1 1.77 1.51 2.64 1.51 4 0 6.22-10.18 6.32-10.64.45-2.25-.07-4.68-1.31-6.2-.94-1.14-2.21-1.75-3.69-1.75-6.64 0-20.1 16.24-21.91 18.69-.01.02-.03.04-.04.06-2.07 3.1-5.7 9.09-6.78 14.33-.57 3.25-.16 5.64 1.25 7.32 1.38 1.64 3.59 2.43 6.78 2.43 8.05 0 21.61-5.76 35.97-12.18 7.42-3.25 14.71-6.38 22.34-8.84l.48-.12c.41-.1.77-.19 1.11-.28.1.43.27.8.33.94.03.06.06.11.09.16.07.11.15.33.22.51v.01c-.17.6-.6 1.56-1.4 2.66-1.58 2.38-2.25 3.59-2.54 4.25l-.69.92c-.41.54-.96 1.36-1.23 1.77-.03.05-.07.11-.09.16-.1.2-.23.41-.33.58-.11.18-.21.34-.29.51-.85 1.11-2.45 4.04-2.73 4.87-.02.06-.04.12-.05.18-.07.34-.16.54-.51.83-.08.06-.15.13-.22.21-.77.92-3.08 4.89-5.27 9.27-.64 1.15-1.58 2.9-2 3.75-.38.77-1.28 2.56-2.03 3.81-.03.05-.06.1-.08.15-.58 1.27-1.21 2.44-1.38 2.7-.03.03-.05.07-.07.1-.35.53-1.82 2.98-2.04 3.87-.03.12-.04.24-.04.36v.13c0 2.82 2.94 5.69 5.82 5.69 1.42 0 3.05-.96 3.31-2.56.01-.08.02-.16.02-.25 0-.27-.06-.48-.11-.64h-.02c0-.29-.11-.59-.26-.84.03-1.08 1.2-4.93 1.81-6.49.34-.56.72-1.48.89-2.36l.11-.27c.27-.7.68-1.75 1.06-2.41.55-.96 1.35-2.56 1.87-3.61l1.29-2.58c1.96-3.93 2.55-5.12 3.57-6.65.38-.54.82-1.26 1.27-2.03.37-.63.76-1.27 1.11-1.8.02-.03.04-.07.06-.1.67-1.2 1.41-2.42 1.72-2.84.05-.07.1-.15.14-.23.14-.29.33-.62.48-.89.13-.23.24-.43.3-.55.06-.11.1-.24.13-.36.07-.12.21-.32.29-.45l.07-.1c.21-.24.42-.54.65-.88.09-.13.19-.27.28-.41 2.39 5.24 3.1 6.4 5.35 8.08 3.47 2.71 6.81 3.98 10.88 4.12h.76c6.33-.44 12.62-2.54 17.26-5.77.03-.02.05-.04.08-.06.53-.43 1.53-.93 1.96-1.14.29-.14.65-.36 1.01-.58.29-.18.58-.35.82-.47.08-.04.16-.09.23-.14.46-.34 1.42-.95 2.13-1.3.05-.03.1-.05.15-.08.61-.4 1.16-.75 1.69-1.08 1.76-1.13 3.16-2.02 5.14-3.51 1.47-.98 3.17-2.15 3.81-2.62.68-.42 1.46-1.05 1.94-1.51l1.4-.94c1.52-.85 4.73-3.23 5.26-3.76.28-.28.44-.66.44-1.06v-.13c0-.23-.05-.46-.16-.67-.2-.41-.87-1.36-2.65-1.36-1.05 0-1.54.07-2.47.82-.55.41-1.33.96-1.88 1.3-.77.33-1.46.87-1.83 1.21-.17.11-.38.24-.59.37-.27.17-.54.34-.81.52-.46.35-1.13.82-1.87 1.35-.93.66-1.97 1.4-2.78 2.01-.41.27-.91.64-1.42 1.02-.47.35-.95.7-1.35.97-.83.55-2.38 1.59-3.4 2.35-2.11 1.45-7.54 4.67-9.12 5.4-.7.35-1.37.69-1.81.97-4.21 2.31-8.44 3.58-11.93 3.58-6.45 0-8.27-4.46-9.12-11.64 0-.06-.02-.13-.03-.19-.07-.3-.08-.63-.09-.85.07-.02.17-.05.3-.08.35-.09.89-.22 1.33-.52.13-.05.28-.12.45-.19.17-.07.37-.16.58-.25 7.13-2.17 17.24-9.68 22.18-14.37 1.5-1.5 2.49-2.6 2.53-3.99.1-1.14-.48-2.73-1.38-3.74-.82-.93-1.66-1.12-2.22-1.12-.84 0-2.34.71-2.72 1.87-.36.52-1.7 2.03-2.15 2.39-.04.03-.09.08-.12.11-.08.08-.23.2-.42.36-.46.38-1.16.96-1.79 1.59-3.84 3.68-12.37 10.48-16.53 11.9.04-.07.08-.14.12-.22.15-.25.34-.53.52-.82.33-.51.64-.98.84-1.38.25-.5.56-.97.77-1.18.07-.07.13-.15.19-.23.22-.33 1.38-2.01 2.62-3.67.54-.81.96-1.44 1.3-1.96.81-1.23 1.22-1.84 1.92-2.81.28-.37.67-.98 1.07-1.59l.55-.84c.43-.65 1.39-1.75 2.04-2.39 1.06-1.06 7.83-6.97 12.63-11.07.52-.46 1.2-1.04 1.89-1.63.69-.59 1.38-1.19 1.98-1.72.6-.6 1.99-1.8 3.46-3.07.66-.57 1.33-1.15 2.01-1.74 1.12-1.05 2.24-2.05 3.07-2.79.65-.58 1.12-1 1.29-1.18.07-.07.13-.15.19-.23.04-.07.17-.24.51-.6.53-.28 1.07-.81 1.79-1.53.62-.62 1.64-1.64 2.23-2.12a.5.5 0 0 0 .08-.07c.38-.35 3.77-3.47 4.9-4.79.29-.38 1.1-1.21 1.85-1.84.04-.03.07-.06.1-.09 2.03-2.03 4.09-4.3 6.5-7.16l.79-.92c.06-.07 5.53-6.57 5.59-9.95.08-1.17-.37-2.37-1.22-3.29-.91-.98-2.15-1.54-3.42-1.54Zm-5.58 11.65-.85.98c-.27.26-.56.57-.86.89-.54.56-1.15 1.2-1.51 1.49-.09.07-.16.15-.23.23-.44.55-1.14 1.26-1.56 1.57-.06.04-.11.09-.16.14-1.12 1.12-2.14 2.19-2.95 3.03-.48.5-.88.92-1.17 1.22-.51.39-1.44 1.17-1.97 1.84-.5.5-1.36 1.35-2.06 1.94-.84.7-1.89 1.75-2.59 2.45-.5.5-2.17 2.04-3.75 3.36l-.88.81-1.86 1.69c.61-.72 1.28-1.52 2.02-2.39.81-.98 1.25-1.51 1.49-1.88.1-.11.21-.24.33-.38.19-.23.43-.5.71-.78.2-.2.45-.48.73-.79.28-.31.58-.65.84-.91.09-.09.16-.18.23-.29.29-.49.86-1.06 1.07-1.27l.09-.08c.24-.21.69-.59 1.08-1.1 7.54-8.61 14.64-14.85 17.86-16.85-.9 1.38-2.42 3.32-4.04 5.09ZM403.49 89.76c.32-.4.79-.84 1.27-1.25-.49 2.57.77 4.86 1.58 6.01.05.07.11.14.17.2.62.62 1.28 1.25 1.89 1.55l.92.52c.23.13.48.2.75.2h1.97c2.4 0 4.66-.29 5.84-.73.14-.04.38-.08.65-.14.45-.09 1-.19 1.55-.34 1.06-.16 2.54-.58 3.17-.83.56-.18 1.39-.38 1.95-.52l.48-.12c1.81-.52 5.1-1.57 6.43-2.02.42-.17.84-.27.98-.29.3-.02.54-.12.92-.27.32-.13.76-.31 1.23-.44l.18-.06c.69-.29 1.61-.52 2.16-.65l.24-.06.11-.03c.12-.04.3-.09.51-.15.5-.14 1.12-.32 1.62-.51 3.68-1.18 5.27-1.67 7.25-2.17 1.69-.24 3.57-.54 3.57-2.13v-.26c0-.33-.11-.64-.3-.9-1.2-1.6-2.9-1.69-5.54-.94-.05.01-.1.03-.15.05-.53.21-1.36.46-1.85.58-1.89.41-6.47 1.87-7.17 2.22-.11.06-.22.13-.31.21-.13.07-.52.22-1.01.32-1.19.24-2.19.52-2.96.84-.37.1-.75.21-1.1.3-.53.14-.99.27-1.23.35-.32.11-1.08.36-1.65.48-.07.01-.15.04-.22.06-1.18.43-3.41 1.08-6.15 1.63-.82.11-1.87.34-2.64.52-.28.06-.52.12-.78.17-2 .53-4.21.87-5.77.87-1.24 0-1.76-.19-1.94-.28v-.02c.37-1.85 3.34-6.36 5.96-9.79.62-.65.93-1.41 1.07-1.81.05-.15.08-.32.08-.48 0-.35 0-.88-.29-1.46-.05-.1-.12-.2-.19-.29-.04-.08-.07-.17-.11-.27-.08-.21-.18-.45-.31-.69-.49-1.46-1.63-2.46-2.82-2.46h-.26c-.1 0-.2 0-.29.03-.92.18-2.04.94-4.96 4.21l-1.52 1.52c-.71.58-1.62 1.49-2.28 2.15-.21.21-.46.44-.69.66-.46.44-.81.76-1.06 1.05-.74.46-1.48 1.3-1.84 1.74-.68.67-2.32 2.18-3.55 3.3-1.31 1.17-2.75 2.61-3.33 3.2-.04.04-.08.08-.11.12-.38.48-1.04.92-1.36 1.13-.08.05-.14.1-.21.17-.12.1-.33.23-.57.39-.33.22-.69.46-1.02.71 2.15-4.85 8.97-13.83 11.98-16.31 1.33-1.11 1.82-1.54 2.07-2.04.08-.16.13-.33.15-.51.14-1.3-.65-2.71-1.45-3.6-.85-.95-1.84-1.47-2.8-1.47-3.48 0-10.69 13.2-11.38 14.49-.09.13-.17.28-.26.42-.1.16-.24.4-.3.47-.07.07-.13.15-.19.23-1.82 2.73-3.36 6.13-4.01 8.87 0 .03-.01.07-.02.1-.33 2.01.3 4.57 2.51 5.78.58.29 1.11.29 1.46.29.65 0 1.4-.2 2.16-.58 2.61-1.44 6.52-4.9 9.38-7.59l.59-.59c.31-.24.59-.52.84-.77.14-.14.36-.36.44-.42.08-.05.16-.12.23-.19l1.57-1.57s.07-.07.1-.11ZM517.21 82.68c-.37-.68-1.22-1-1.83-1-.56 0-1.19.21-1.79.59-.46.22-1.2.54-1.77.77-.84.16-1.63.42-1.96.53-1.29.37-4.84 1.29-5.95 1.4-5.75.78-11.38 1.17-17.22 1.17-.37 0-.69 0-.96-.01.15-.31.32-.65.51-.93.56-.84 1.12-1.81 1.27-2.12.03-.06.06-.13.08-.2.09-.27.43-1.09.95-2.13 1.34-2.55 1.98-4.69 2.14-7.25v-.18c.16-2.96-1.6-5.52-4.41-6.44-.5-.26-1.05-.26-1.42-.26-1.7 0-4.02.59-5.78 1.47-.08.04-.16.09-.23.14-.27.21-.7.42-1.21.59-1.38.53-5.03 2.72-8.18 4.79.21-.24.43-.51.67-.78.36-.42.72-.85 1.06-1.23.92-1.05 1.89-2.28 2.21-2.78.09-.14.27-.36.47-.61.32-.41.71-.91 1.04-1.4 3.66-4.17 5.01-5.91 5.79-7.45.03-.06.06-.13.08-.2.23-.69.34-1.03.34-1.39 0-1.67-2.42-4.51-4.25-4.51-.92 0-1.85.53-2.61 1.48-.03.03-.05.07-.08.11-.12.18-.3.42-.48.65-.15.2-.3.41-.43.58-.65.56-1.16 1.47-1.35 1.81-.14.2-.29.4-.42.6-.14.2-.34.5-.41.57-.03.03-2.34 2.69-3.3 4.35-.16.16-.3.36-.52.66-.1.13-.21.29-.33.46-.37.4-.9 1.17-1.77 2.42l-.61.89c-.99 1.23-1.98 2.58-2.36 3.13-.53.57-1.44 1.76-2.21 2.93-.61 1.01-1.4 2.05-1.88 2.67l-.2.26c-.45.46-1.17 1.32-1.52 2.02-.12.25-.54.84-.87 1.32-.2.28-.39.56-.57.82-.52.66-.85 1.08-1.03 1.45-.14.17-.34.42-.52.6-.44.44-.91 1.12-1.37 1.8-.03.05-.07.1-.09.16-.13.26-.41.64-.63.95-.09.12-.17.24-.25.35-.34.36-.68.84-1.02 1.3-.11.16-.23.31-.33.45-.03.04-.06.08-.08.13-.19.31-.41.63-.6.89-.12.17-.22.31-.31.45-.48.44-.8 1.08-.96 1.44-.18.24-.37.52-.57.8-.22.31-.44.63-.63.88l-.41.54c-.31.41-.63.82-.82 1.1-.03.04-.07.11-.09.16-.12.22-.78 1.17-1.36 2-.71 1.02-1.59 2.28-2.43 3.54-1.93 2.57-3.81 5.37-4.28 6.16-.04.07-.08.14-.11.21-.16.39-1.07 1.89-2.48 3.92-.43.64-.85 1.32-1.24 1.94-.41.65-.92 1.46-1.06 1.63-.11.11-.21.25-.28.39-.25.5-.86 1.59-1.48 2.46-.55.83-1.63 2.58-2.25 3.7-.39.63-1.08 1.69-1.75 2.75l-1.25 1.95c-.97 1.51-1.75 2.71-2.39 3.69-1.83 2.82-2.6 4-3.77 6.14-.26.37-.62.92-.99 1.51-.25.39-.49.78-.67 1.05-.47.66-.87 1.36-1.16 1.87-.13.22-.23.41-.31.53-.06.09-.13.25-.17.35-.06.15-.39.7-.83 1.29-.35.47-.77 1.12-1.02 1.69-.26.34-.56.83-.97 1.52l-.16.26c-.57.77-.95 1.47-1.74 2.94-.36.67-.81 1.5-1.42 2.59-.46.64-.98 1.57-1.23 2.06-1.02 1.75-5.52 10.44-5.68 13.69 0 2.26 3 4.77 5.04 4.77.47 0 .95-.21 1.3-.46.34-.18.62-.49.82-.89.11-.21.16-.44.16-.67 0-.17 0-.54-.15-1.07-.02-.16-.05-.3-.08-.42-.02-.09-.03-.15-.04-.19.14-1.71.87-5.05 1.53-6.55.23-.4.44-.88.64-1.35.17-.4.35-.82.5-1.06.04-.07.08-.14.11-.21 1.12-2.8 2.78-6.16 5.38-10.9.66-.95 1.32-2.22 1.55-2.82.18-.36.52-1.03.73-1.24.07-.07.13-.15.19-.23.21-.32.55-.91 1.08-1.85l.38-.67c.35-.51.72-1.14 1.08-1.75.34-.58.69-1.18 1.01-1.65l.41-.64c.97-1.51 1.67-2.6 2.26-3.76.6-1.08 2.7-4.3 3.39-5.28.33-.37.67-.92 1.17-1.75.04-.07.08-.14.11-.22.13-.33.73-1.28 1.77-2.67.03-.03.05-.07.07-.11.4-.64.96-1.45 1.46-2.16.29-.41.55-.79.74-1.08.03-.05.07-.11.09-.16.21-.42.54-.93.78-1.31.11-.17.2-.32.27-.44.47-.54 1.06-1.51 1.21-1.77 2.98-4.53 3.86-5.72 4.47-6.07.03-.02.06-.03.09-.05.97-.64 1.31-1.11 3.19-3.7l.35-.49c6.3-9 14.22-17.45 22.88-24.43.84-.65 1.81-1.44 2.54-2.03l.75-.6s.08-.07.12-.11c.36-.36 1.06-.88 1.52-1.22l.14-.1c.54-.25 1.12-.62 1.64-.95.21-.14.42-.27.67-.42 3.89-2.66 7.21-4.19 9.11-4.19h.09c0 .07 0 .17-.01.3v.1c-.12 3.01-5.61 13.5-6.99 14.49-.25.12-1.44.45-4.16.85-6.38.87-16.31 7.09-16.75 14.49-.09 1.35.55 2.81 1.75 4.01 1.13 1.13 2.53 1.82 3.84 1.91h.17c7.42-.35 17.67-14.23 17.75-14.33.74-.94 1.33-1.62 1.61-1.91.36-.05 1.22-.13 2.73-.13 9.89-.14 11.35-.28 12.06-.42.03 0 .14-.04.16-.04.1-.03.38-.06 1.11-.06.66 0 1.46-.13 2.58-.3.47-.07.99-.16 1.56-.24.09-.01.18-.03.26-.06.12-.04.24-.05.36-.08.23-.04.46-.08.69-.15l.75-.13c12.62-2.71 12.75-4.42 12.84-5.54v-.12c0-.46-.2-.93-.45-1.29Zm-43.25 9.56c-2.42 2.84-8.15 7.99-10.61 9.22.62-3.27 6.37-8.12 10.61-9.22Z" class="cls-1"/></svg>