<svg xmlns="http://www.w3.org/2000/svg" id="_レイヤー_1" data-name="レイヤー 1" viewBox="0 0 534.77 203.39"><defs><style>.cls-1{fill:#481a01;stroke-width:0}</style></defs><path d="m145.31 38.93.06-.59v-.09c.36-7.27-1.83-14.14-5.86-18.37-3.08-3.24-7.19-4.95-11.88-4.95-15.37 0-37.22 17.27-66.79 52.82-3.93 4.8-7.49 8.95-8.94 10.42a4.31 4.31 0 0 0-1.3-.22c-2.87 0-4.2 4.06-5.12 8.08l-.06.23c-2.7 3.62-5.65 7.56-8.73 11.6l.27-.49c16.05-27.08 31-49.55 44.42-66.77 1.9-2.38 6.37-8.01 6.77-9.03.07-.18.11-.37.11-.56v-.13c0-1.9-2.27-5.3-4.51-5.3h-.26c-.29 0-.58.08-.82.24-3.54 2.31-19.63 26.96-21.29 29.82-1.52 2.5-3.03 5.01-4.56 7.54-2.55 4.23-5.13 8.5-7.75 12.77-14.28 23.46-26.42 44.39-37.11 63.99l-.06.11c-6.05 11.14-8.38 15.65-8.6 16.65-.02.11-.04.22-.04.33v.13c0 2.93 4.49 5.17 6.74 5.17 1.65 0 2.04-1.8 2.19-2.48l.05-.23c.03-.12.04-.24.04-.36v-.09c1.3-5.43 4.29-10.57 7.23-15.34.56-.87 1.13-1.76 1.7-2.67.89-1.4 1.79-2.83 2.78-4.32 7.49-12.39 14.4-23.48 22.65-33.12 5.48 9.32 14.88 11.32 21.92 11.32 29.76 0 69.68-32.77 76.27-62.64.23-1.17.36-2.39.48-3.47Zm-5.55-3.9c0 .69-.11 1.56-.22 2.4-.06.44-.11.87-.16 1.3-6.29 29.07-43.48 59.78-72.4 59.78-5.48 0-9.81-1.35-12.18-3.79-1.61-1.66-2.38-3.87-2.3-6.58v-.05c0-.41.07-1.07.21-1.95.49-.95 3.52-4.69 5.16-6.72l.69-.86c13.18-15.91 37.13-43.62 49.53-50.5.38-.22.74-.44 1.1-.65.9-.53 1.76-1.03 2.57-1.58 5.24-3.12 9.77-5.81 16.13-5.81 3.6 0 6.46 1.1 8.5 3.26 2.46 2.61 3.66 6.75 3.37 11.74ZM166.28 75.06c-1.88 0-6.49 2.56-6.95 2.85-.04.02-.07.05-.11.07-.37.28-1.1.74-1.74 1.13.69-.83 1.58-1.94 2.05-2.64.27-.41.66-.9.96-1.29.22-.28.42-.53.55-.72.92-1.06 1.45-1.87 1.68-2.54.05-.15.08-.31.08-.48 0-.71-.39-1.3-.78-1.88-.05-.08-.12-.16-.19-.23-.06-.06-.15-.16-.24-.26-.42-.47-.73-.8-1.09-1.01-.56-.37-1.13-.74-1.83-.74-1.23 0-2.16.95-3.44 2.71l-.06.09c-.42.68-1 1.4-1.42 1.92-.19.23-.35.43-.47.6-.42.56-1.2 1.6-1.75 2.42-.02.03-.04.06-.05.09-.46.81-1.72 2.58-2.75 3.87-.05.06-.09.13-.13.19l-.48.83c-.23.31-.45.59-.64.83-.4.51-.66.85-.82 1.13-.28.33-.69.88-1.02 1.43l-.4.54c-3.48 5.29-7.08 10.75-10.53 16.46l-.5.87-.04.06c-.53.79-1.1 1.72-1.1 2.7 0 1.51 2.25 2.9 2.27 2.92.05.03.1.05.13.08.19.12.55.34 1.06.34s1.05-.25 1.41-.54c.79-.49 1.21-.94 2.9-2.89 3.66-4.5 6.25-7.56 7.89-9.32.9-.9 1.75-1.77 2.22-2.49 2.3-2.42 5.14-5.4 7.91-7.29a.55.55 0 0 0 .09-.07c.44-.35 1.01-.77 1.48-1.11l.58-.43c.26-.2.5-.33.62-.39.32-.07.59-.23.91-.42.22-.13.51-.31.88-.49.28-.14.64-.32.94-.46.17.16.37.36.55.54.82.95 1.33 1.53 2.41 1.53 1.75 0 2.93-1.76 3.3-3.4.02-.11.04-.22.04-.33v-.45c.06-.79-.29-1.65-1.02-2.47-.75-.85-2.09-1.85-3.36-1.85ZM291.66 52.72c.11-.12.24-.27.37-.42.14-.17.3-.36.46-.53.43-.32.9-.84 1.53-1.68.08-.11.14-.22.19-.34.1-.24.27-.45.37-.54.36-.19.65-.51 1.01-.9.16-.17.34-.37.51-.55.04-.04.08-.08.11-.12.48-.6 1.26-1.38 1.72-1.84l1.05-1.05c.11-.11.19-.21.26-.35.24-.38 1.79-2.09 2.95-3.26 1.24-1.11 4.29-4.54 5.12-5.64l1.58-1.58c1.02-.89 2.79-2.8 6.23-6.76.58-.59 1.14-1.24 1.59-1.76.25-.3.46-.55.6-.69 1.71-1.7 3.99-4.12 4.97-5.38l.06-.09c.46-.69 1.44-1.79 2.17-2.52l.09-.09c1.3-1.54 3.54-4.43 3.98-6.41.02-.11.04-.22.04-.33v-.65c0-.27-.07-.54-.21-.77-.46-.77-1.74-2.56-3.64-2.56-.27 0-.48.06-.64.11v.02c-.2 0-.39.04-.57.11-1.47.59-3.84 2.12-5.65 3.65-.03.03-.06.06-.09.08-.34.34-1.56 1.44-2.68 2.42-1.02.9-2.39 2.12-2.96 2.69-.05.05-.1.1-.14.16-.27.37-.64.71-.79.82-.19.08-.36.19-.51.34-.12.12-.3.33-.51.56-.23.27-.52.59-.8.88l-3.01 3.01s-.07.08-.11.12c-1.66 2.04-2.03 2.41-2.59 2.98-1.36 1.23-4.68 5.06-6.75 7.94l-.43.58c-.35.47-.76 1.04-1.14 1.51l-.79 1.05c-.1.13-.17.27-.22.42-.14.25-.57.89-.88 1.36-2.6 3.97-3.23 5.13-3.62 5.92-.05.1-.09.2-.11.31-.06.23-.29.63-.39.74-.68.67-2.2 3.05-2.38 3.4-.07.13-.12.35-.15.49-.13.74-1.99 3.63-2.93 4.57-1.03.95-2.12 2.06-3.39 3.35-.73.74-1.52 1.56-2.47 2.51-1.42 1.56-2.75 3.01-2.96 3.22-.45.45-1.28 1.42-1.79 2.07-.6.72-1.47 1.59-2 2.13-1.05 1.05-1.91 1.95-2.57 2.71-3.77 4.4-4.75 5.12-4.92 5.22h-.03c-.11-.04-.39-.18-1.08-.69-1.06-.89-2.06-1.26-3.32-1.26-4.37 0-11.5 7.08-11.8 7.38l-1.77 1.77c-.82.65-1.44 1.56-1.56 1.74-.32.48-.84 1.16-1.26 1.5-.09.07-.17.15-.23.23-.31.38-.72.96-1.13 1.56-.01-.77-.5-1.65-1.19-2.17-.22-.2-.4-.32-.53-.39-.5-.41-1.26-.45-1.79-.09-.15.06-.41.18-.67.39-1.23.6-6.49 2.41-8.7 2.78-.03 0-.07.01-.1.02-2.51.6-4.9.88-7.51.88s-5.25-.24-8.01-.77l-.79-.13c-.08-.01-.16-.02-.25-.02-.36 0-.86-.18-1-.27-.5-.34-1.14-.65-1.67-.83-1.55-.52-4.02-2.88-3.72-4.29.53-2.49-.55-4.68-3.05-6.19-.03-.02-.07-.04-.1-.06-.18-.09-.55-.4-.81-.63-.17-.14-.34-.29-.5-.41-.26-.32-.78-.87-1.4-1.1l-.17-.08c-.21-.1-.44-.16-.67-.16-1.59 0-3.06 1.27-3.98 2.31-3.42 3.65-10.5 12.04-12.85 17.7-.14.28-.34.69-.44.84-.16.19-.27.42-.32.67-.01.04-.03.09-.06.14-.1.27-.24.62-.32.97l-.03.15c-.04.15-.11.38-.13.66-.26 1.25-.42 3.47-.25 4.5 0 .04.01.08.02.12.53 2.11 1.9 3.36 3.68 3.36 2.4 0 5.87-2.37 7.27-4.03.08-.09.18-.19.28-.3.32-.34.75-.8 1.08-1 .11-.06.2-.14.29-.23l1.44-1.44c.09-.09.16-.18.23-.29.2-.33.63-.82 1.35-1.62.37-.42.81-.92 1.35-1.53.33-.33.67-.75.96-1.12.22-.27.42-.52.57-.67.07-.07.13-.15.19-.23.8-1.2 1.9-2.78 2.38-3.39.13-.14.29-.34.46-.57.19-.26.41-.56.64-.79.07-.07.13-.15.19-.23.12-.19.22-.31.29-.4.31.22.81.65 1.05.86 4.52 3.7 10.18 5.58 16.8 5.58.77 0 1.49 0 2.35-.13.81 0 2.86-.04 3.76-.34.23-.08.86-.18 1.36-.18.1 0 .2 0 .29-.03l.43-.08c.59-.11 1.32-.24 1.95-.48l2.65-.63c1.72-.41 4.69-1.67 6.3-2.61-.1.13-.19.27-.28.4-.12.17-.24.34-.36.5a.99.99 0 0 0-.11.17l-.62 1.12c-1.85 2.7-2.98 5.13-3.47 7.42-.02.1-.03.21-.03.31v.38c-.28 1.59.17 3.29 1.24 4.69 1.07 1.39 2.56 2.24 4.19 2.32h.39c.09 0 .17 0 .26-.02 3.64-.63 8.02-4.64 10.03-6.9.04-.04.07-.08.1-.12.62-.87 1.76-2.12 2.33-2.69.42-.42.89-.94 1.25-1.34.2-.22.36-.4.45-.49.07-.07.13-.15.19-.23.18-.27.69-.78.99-1.08.22-.22.47-.5.72-.79.21-.24.41-.47.59-.65.05-.05.1-.1.14-.16 1.27-1.69 2.61-3.02 3.01-3.23.06-.03.11-.06.16-.09 1.02-.68 1.52-1.36 2.99-3.37.67-.89 1.5-2 1.82-2.32.47-.47 1.56-1.7 2.35-2.76.54-.69 1.63-2 2.84-3.39-.1.21-.2.42-.28.66-.67 1.12-.92 1.66-1.03 1.93-.35.57-.83 1.57-1.17 2.36-.17.31-.36.67-.55 1.03-.32.62-.72 1.39-.98 1.71-.07.08-.12.17-.17.26l-1.46 2.92-.59 1.28c-.66 1.46-1.42 3.12-2.38 5.05-1.75 3.24-4.53 9.58-5.48 12.03-.1.29-.35.8-.57 1.24-.65 1.3-1.5 3.49-2.13 5.09l-.41 1.05s-.04.1-.05.13c-.17.5-.41 1.22-.52 1.5-.17.27-.42.78-.87 1.9l-.04.12c-.52 1.55-1.16 3.48-2.08 5.83-1.92 5.47-3.39 10.57-4.13 14.4-.45 2.69-.67 4.71-.67 6.01 0 .07 0 .14.01.21.08.52.04 1.18 0 1.62 0 .13-.01.24-.02.34-.19.97.13 1.62.51 2.19.02.04.05.07.08.11.73.91 2.42 1.98 3.45 2.32.27.09.58.08.83.13.26.05.5.08.69.08 1.09 0 2.45-.43 2.88-2.46l.04-.08c.1-.21.16-.44.16-.67 0-1.23-.32-1.72-1.48-2.89-.05-.05-.14-.19-.32-.54-.44-1.66-.53-4.6-.2-6.37l.13-.65c.1-.52.21-1.13.39-1.95l.38-1.78c.23-.78.42-1.56.56-2.15.08-.35.15-.62.19-.76.03-.08.04-.15.06-.23.1-.6.43-1.65.7-2.31.3-.75.57-1.83.7-2.35.45-1.5 1.69-5.17 2.13-6.05.03-.06.06-.13.08-.19.13-.38.5-1.39.79-2.1.55-1.65 2.48-6.75 3.62-9.05l.21-.49c.39-.9.88-2.02 1.13-2.86.38-.88.87-1.98 1.11-2.46.02-.04.04-.08.05-.11.11-.27.37-.79.64-1.33.3-.61.64-1.28.9-1.87 2.99-6.51 4.15-8.95 6.37-13 .02-.03.03-.06.05-.09.32-.7.67-1.42.97-2.05.55-1.16.83-1.73.93-2.03.06-.18.45-.92 1-1.74.04-.05.07-.11.09-.16.32-.64 1-1.89 1.8-3.35.02-.03.03-.06.05-.09.61-1.3 1.39-2.72 2.39-4.52.46-.83.96-1.74 1.48-2.7l.3-.51c.51-.88 1.08-1.88 1.45-2.7.15-.26.29-.52.43-.78.22-.41.53-.97.6-1.06.08-.08.14-.16.2-.25.79-1.24 1.22-2.13 1.56-2.84l.22-.44s.04-.08.05-.11c.13-.32.24-.52.33-.6.4-.24.88-.7 1.82-1.65.07-.07.13-.15.19-.23.15-.23.41-.48.63-.63.08-.06.16-.12.23-.19.25-.25.46-.51.65-.73.09-.12.18-.22.27-.31.05-.05.1-.11.14-.16.16-.21.36-.44.55-.65.29-.33.48-.56.63-.77Zm-92.54 28.92c-.12.38-.5 1.16-2.14 3.67-.03.05-.06.1-.08.15l-.22.45c-.45.79-1.01 1.46-1.2 1.65-.28.28-.86.86-1.37 1.54-.74 1.12-2.28 2.74-3.92 4.15-.03.03-.06.05-.08.08l-1.7 1.7s-.07.08-.11.12c-.16.2-.53.52-.96.85 2.65-4.54 9.26-13.5 11.76-15.31.04.29.06.65.03.96Zm53.98 4.75c-.3.3-1 1-1.48 1.77-.22.28-.57.7-.92 1.11-.29.34-.57.68-.8.96-.59.6-1.62 1.77-2.21 2.48-2.69 2.94-4.82 4.77-6.11 5.58 1.62-5.21 8.44-13.55 13.16-16.94.83-.56 1.77-1.23 2.37-1.68.35-.3.87-.64 1.38-.94-1.03 2-3.39 5.56-5.4 7.66ZM357.33 86.91v-.26c0-.33-.11-.64-.3-.9-1.2-1.6-2.9-1.69-5.54-.94-.05.01-.1.03-.15.05-.53.21-1.36.46-1.85.58-1.89.41-6.47 1.87-7.17 2.22-.11.06-.22.13-.31.21-.13.07-.52.22-1.01.32-1.19.24-2.19.52-2.96.84-.37.1-.75.21-1.1.3-.53.14-.99.27-1.23.35-.32.11-1.08.36-1.65.48-.07.01-.15.04-.22.06-1.18.43-3.41 1.08-6.15 1.63-.82.11-1.87.34-2.64.52-.28.06-.52.12-.78.17-2 .53-4.21.87-5.77.87-1.24 0-1.76-.19-1.94-.28v-.02c.37-1.85 3.34-6.36 5.96-9.79.62-.65.93-1.41 1.07-1.81.05-.15.08-.32.08-.48 0-.35 0-.88-.29-1.46-.05-.1-.12-.2-.19-.29-.04-.08-.07-.17-.11-.27-.08-.21-.18-.45-.31-.69-.49-1.46-1.63-2.46-2.82-2.46h-.26c-.1 0-.2 0-.29.03-.92.18-2.04.94-4.96 4.21l-1.52 1.52c-.71.58-1.62 1.49-2.28 2.15-.21.21-.46.44-.69.66-.46.44-.81.76-1.06 1.05-.74.46-1.48 1.3-1.84 1.74-.68.67-2.32 2.18-3.55 3.3-1.31 1.17-2.75 2.61-3.33 3.2-.04.04-.08.08-.11.12-.38.48-1.04.92-1.36 1.13-.08.05-.14.1-.21.17-.12.1-.33.23-.57.39-.33.22-.69.46-1.02.71 2.15-4.85 8.97-13.83 11.98-16.31 1.33-1.11 1.82-1.54 2.07-2.04.08-.16.13-.33.15-.51.14-1.3-.65-2.71-1.45-3.6-.85-.95-1.84-1.47-2.8-1.47-3.48 0-10.69 13.2-11.38 14.49-.09.13-.17.28-.26.42-.1.16-.24.4-.3.47-.07.07-.13.15-.19.23-1.82 2.73-3.36 6.13-4.01 8.87 0 .03-.01.07-.02.1-.33 2.01.3 4.57 2.51 5.78.58.29 1.11.29 1.46.29.65 0 1.4-.2 2.16-.58 2.61-1.44 6.52-4.9 9.38-7.59l.59-.59c.31-.24.59-.52.84-.77.14-.14.36-.36.44-.42.08-.05.16-.12.23-.19l1.57-1.57s.07-.07.1-.11c.32-.4.79-.84 1.27-1.25-.49 2.57.77 4.86 1.58 6.01.05.07.11.14.17.2.62.62 1.28 1.25 1.89 1.55l.92.52c.23.13.48.2.75.2h1.97c2.4 0 4.66-.29 5.84-.73.14-.04.38-.08.65-.14.45-.09 1-.19 1.55-.34 1.06-.16 2.54-.58 3.17-.83.56-.18 1.39-.38 1.95-.52l.48-.12c1.81-.52 5.1-1.57 6.43-2.02.42-.17.84-.27.98-.29.3-.02.54-.12.92-.27.32-.13.76-.31 1.23-.44l.18-.06c.69-.29 1.61-.52 2.16-.65l.24-.06.11-.03c.12-.04.3-.09.51-.15.5-.14 1.12-.32 1.62-.51 3.68-1.18 5.27-1.67 7.25-2.17 1.69-.24 3.57-.54 3.57-2.13Z" class="cls-1"/><path d="M419.08 87.97c3.08-.77 4.08-1.02 4.14-2.24.07-.6-.12-1.2-.54-1.71-.59-.73-1.63-1.23-2.53-1.23-3.59 0-11.4 3.42-22.88 8.64l-1.95.86c-12.95 5.74-27.62 12.24-35.17 12.24-1.07 0-2.46-.14-3.02-.81-.44-.53-.52-1.6-.23-3.16 1.58-8 13.81-21.39 21.03-26.24l.18-.09c-.22.43-.46.87-.69 1.29l-.24.44c-.15.27-.31.54-.46.8-.61 1.05-1.14 1.95-1.29 2.89-.2 1.58 1.3 3.37 1.6 3.71.89 1 1.77 1.51 2.64 1.51 4 0 6.22-10.18 6.32-10.64.45-2.25-.07-4.68-1.31-6.2-.94-1.14-2.21-1.75-3.69-1.75-6.64 0-20.1 16.24-21.91 18.69-.01.02-.03.04-.04.06-2.07 3.1-5.7 9.09-6.78 14.33-.57 3.25-.16 5.64 1.25 7.32 1.38 1.64 3.59 2.43 6.78 2.43 8.05 0 21.61-5.76 35.97-12.18 7.42-3.25 14.71-6.38 22.34-8.84l.48-.12Z" class="cls-1"/><path d="M526.49 41.83c-.12-.03-.17-.05-.29-.05a4.5 4.5 0 0 0-.99-.12c-1.63 0-4.31.26-5.37.62-.77.29-2.1.3-16.26.3-3.61.06-7.36.09-10.69.12-4.64.04-8.31.07-9.92.15-3.53.17-5.87.26-6.61.26-1.82 0-7.5.28-11.27.52h-.98c.44-.62 1.04-1.41 1.71-2.21.24-.25.61-.68 1.2-1.37.44-.52.95-1.11 1.43-1.65.03-.03.05-.06.08-.1.77-1.03 1.8-2.31 2.59-3.24l1.09-1.36c1.78-2.2 2.4-2.96 3.14-4.06.23-.29.52-.68.83-1.09.41-.55.85-1.15 1.17-1.53.73-.81 2.46-2.85 2.73-4.43.01-.08.02-.16.02-.25 0-1.48-1.4-2.79-2.65-3.04-.1-.02-.2-.03-.29-.03h-.13c-.16 0-.32.03-.47.08-.47.16-1.58.52-6.82 6.21-.76.88-1.92 2.17-2.67 2.93l-.08.08c-1 1.17-1.75 2-2.15 2.41-.09.09-.16.18-.23.29-.17.29-.46.63-.71.93-.18.22-.35.42-.47.58-.4.43-.97 1.17-1.16 1.42-.21.22-.48.56-.94 1.13-.51.63-1.15 1.42-1.79 2.13-1.47 1.66-2.38 2.75-3.26 3.82-.39.47-.78.94-1.21 1.45-.03.04-.06.07-.08.11-.74 1.06-1.46 1.42-1.77 1.48-.72.12-4.82.5-6.04.5-.94 0-4.07.22-4.65.26-5.71.26-9.13.39-11.98.39-1.95 0-3.54-.08-5.55-.18l-1.51-.08c-1-.14-2.1-.14-2.63-.14h-.39c-.3 0-.59.09-.83.25-.65.43-1.48 1.4-1.7 2.7-.01.08-.02.16-.02.25v.26c0 1.31 0 4.38 3.2 4.38h.26c.62 0 1.68-.13 2.39-.26.36-.01.77-.06 1.24-.12.51-.06 1.08-.14 1.48-.14.07 0 .14 0 .21-.01.44-.06 1.05-.13 1.65-.19.64-.07 1.28-.14 1.79-.21 1.42-.24 2.62-.37 3.29-.37.06 0 .12 0 .19-.01.37-.05.81-.09 1.25-.14.76-.08 1.49-.16 1.98-.24.89-.01 2.29-.14 3.34-.28.89-.13 2.25-.25 2.8-.25.08 0 .17 0 .25-.02.62-.1 1.86-.21 3.07-.32l1.13-.11c.78-.08 1.41-.14 1.91-.2l-.56.68c-.03.03-.05.07-.08.1-.73 1.04-1.36 1.81-2.24 2.88l-.57.7c-.05.06-.09.12-.13.18-.22.37-.67.93-1.02 1.37-.18.22-.34.42-.44.56-.38.48-.83 1.08-1.2 1.59l-.4.54s-.06.08-.08.13c-.19.31-.41.63-.6.89-.16.23-.29.42-.4.58-1.26 1.46-2.09 2.56-2.97 3.73-.29.39-.59.79-.92 1.21-.02.03-.04.05-.06.08-.73 1.1-1.71 2.44-2.12 3-.36.39-.71.93-1.1 1.56-.14.23-.29.46-.48.74-.27.45-.67 1.02-.96 1.45l-.26.39c-.79.98-4.25 5.85-5.2 7.48-.04.06-.07.13-.1.2-.16.4-.79 1.28-1.26 1.92l-.3.42c-.59.88-.98 1.48-1.19 1.84-.13.19-.3.47-.64 1.04-.23.39-.51.86-.79 1.3-1.42 1.94-3.06 4.7-4.21 6.7-.32.44-.62.92-.75 1.12-.11.14-.21.3-.32.48-.12.19-.26.43-.45.67-.05.07-.1.15-.14.23-.22.45-.83 1.42-1.17 1.87-.03.04-.06.08-.09.13-.15.25-.34.53-.52.82-.33.51-.64.98-.84 1.38-.17.33-.56 1-.95 1.67-.19.33-.38.65-.55.94-.72 1.02-1.39 2.24-1.65 2.75-.02.04-.04.08-.05.12-.16.39-.8 1.45-1.32 2.3l-.54.89s-.04.07-.06.1c-.42.85-.92 1.67-1.22 2.16-.17.29-.3.49-.35.59-.08.15-.13.32-.15.49-.03.06-.07.14-.1.17-.17.17-.29.37-.36.59-.09.28-.44 1.12-.87 1.98-.34.79-.82 1.64-1.05 1.99-.03.05-.07.11-.1.17-.15.31-.44.88-.6 1.37l-.03.11c-.1.39-.25.72-.26.75-.07.07-.13.14-.18.22-.15.22-.3.49-.45.75-.11.2-.22.39-.34.56-.05.08-.09.16-.13.24-.29.69-1.03 2.72-1.89 5.12l-.5 1.38c-.03.07-.05.14-.06.22-.1.51-.44 1.55-.69 2.17-.41.83-.65 1.47-.65 2.18 0 .19.04.48.09.77.02.11.04.22.04.28 0 .4.16.78.44 1.06.16.16.55.56 1.17.81.48.3 1.05.58 1.52.73.45.15 1.01.34 1.78.34 1.75 0 2.97-.95 3.19-2.47 0-.07.01-.14.01-.21 0-.27 0-.64-.13-1.06v-2.13c.13-2.54.92-6.2 2-7.93.06-.1.11-.21.15-.32.04-.11.08-.24.14-.38.14-.38.31-.86.42-1.3 0-.04.02-.08.02-.12.09-.57.79-2.16 1.13-2.58.07-.08.12-.17.17-.27l.41-.79c1.51-2.95 1.81-3.57 1.9-3.86.02-.06.04-.13.05-.2.05-.13.2-.44.38-.69.46-.62.74-1.03.87-1.42.33-.64 1.51-2.87 1.88-3.43.44-.59 1-1.57 3.1-5.5.17-.25.35-.53.53-.81.36-.55.71-1.09.96-1.42.05-.07.1-.15.14-.23.09-.18.23-.41.38-.65.28-.45.59-.95.79-1.43.41-.67 1.39-2.14 2.25-3.36l.06-.09c.3-.5.64-1.02.96-1.5.59-.91.98-1.51 1.2-2 1.26-2.15 1.71-2.56 1.78-2.62.11-.08.21-.19.3-.3l.19-.25c.6-.79 2.18-2.88 4.18-5.71.45-.67 1.39-1.87 2.12-2.74.81-.94 1.34-1.61 1.34-1.61.08-.09.14-.2.19-.3.24-.36 1.26-1.67 1.89-2.43.03-.04.07-.08.1-.13.24-.36 1.06-1.45 1.81-2.45.71-.99 1.54-2.03 1.81-2.3.46-.46 1.12-1.26 1.57-1.97.33-.35.71-.84 1.13-1.4.34-.44.7-.91 1.1-1.38.32-.42.7-.89 1.06-1.33.55-.67 1.03-1.25 1.32-1.71.25-.31.57-.69.89-1.07.37-.44.75-.88.98-1.18 2.51-2.9 3.72-4.38 4.75-5.81q3.2-4.04 7.69-4.15c9.66-.59 18.12-.93 25.92-1.05 2.85-.13 8.56-.13 14.08-.13 5.18 0 10.54 0 11.92.12h.14c1.33 0 2.49.12 2.8.19.89.34 1.95.47 4.8.6h2.1c.4 0 .78-.16 1.06-.44l.35-.35c.98-.85 1.2-2.22 1.35-3.14l.03-.21c.01-.08.02-.16.02-.25 0-1.23-.75-2.21-1.92-2.5Z" class="cls-1"/></svg>